<svg width="45" height="45" viewBox="0 0 45 45" fill="none" xmlns="http://www.w3.org/2000/svg">
<path d="M35.6391 10.4645C35.3861 10.4865 35.1312 10.4555 34.8907 10.3737C34.6502 10.2919 34.4294 10.161 34.2422 9.98934C34.055 9.81765 33.9055 9.60891 33.8032 9.37639C33.701 9.14386 33.6482 8.89261 33.6482 8.63859C33.6482 8.38458 33.701 8.13333 33.8032 7.9008C33.9055 7.66827 34.055 7.45954 34.2422 7.28785C34.4294 7.11616 34.6502 6.98525 34.8907 6.90345C35.1312 6.82164 35.3861 6.79072 35.6391 6.81264C35.8612 6.78537 36.0655 6.67782 36.2138 6.51028C36.362 6.34274 36.4438 6.12678 36.4438 5.90309C36.4438 5.6794 36.362 5.46343 36.2138 5.29589C36.0655 5.12835 35.8612 5.02081 35.6391 4.99353H11.9223C10.9561 4.99715 10.0307 5.3835 9.34883 6.06797C8.66693 6.75244 8.28405 7.67925 8.28406 8.64543V36.9032C8.28405 37.8694 8.66693 38.7962 9.34883 39.4807C10.0307 40.1652 10.9561 40.5515 11.9223 40.5551H33.8063C34.5318 40.5551 35.2276 40.2669 35.7406 39.7539C36.2536 39.2409 36.5419 38.5451 36.5419 37.8196V11.3809C36.5419 11.1402 36.4472 10.9092 36.2783 10.7377C36.1094 10.5663 35.8798 10.4681 35.6391 10.4645ZM11.9223 6.81264H32.4386C32.1295 7.37323 31.9738 8.00543 31.9872 8.64543C31.9861 9.28487 32.1561 9.91297 32.4796 10.4645H11.9633C11.5063 10.425 11.0808 10.2154 10.7708 9.87739C10.4607 9.53933 10.2887 9.0973 10.2887 8.63859C10.2887 8.17989 10.4607 7.73786 10.7708 7.3998C11.0808 7.06174 11.5063 6.85223 11.9633 6.81264H11.9223ZM10.1032 36.9032V11.8323L10.4725 12.0238L10.8418 12.1469H10.9649L11.2794 12.2153H11.4709H11.9086H15.5742V38.736H11.9223C11.4386 38.7324 10.9759 38.5377 10.6351 38.1944C10.2944 37.8511 10.1032 37.387 10.1032 36.9032ZM34.7227 37.8196C34.7227 38.0627 34.6262 38.2957 34.4543 38.4676C34.2825 38.6395 34.0494 38.736 33.8063 38.736H17.3933V12.2837H34.7227V37.8196Z" fill="black"/>
<path d="M20.1289 20.9553H31.9873C32.2304 20.9553 32.4635 20.8587 32.6353 20.6869C32.8072 20.515 32.9037 20.2819 32.9037 20.0389V15.4843C32.9037 15.2412 32.8072 15.0081 32.6353 14.8363C32.4635 14.6644 32.2304 14.5679 31.9873 14.5679H20.1289C19.8883 14.5715 19.6587 14.6696 19.4898 14.8411C19.3208 15.0125 19.2262 15.2436 19.2262 15.4843V20.0389C19.2262 20.2796 19.3208 20.5106 19.4898 20.6821C19.6587 20.8536 19.8883 20.9517 20.1289 20.9553ZM21.0453 16.387H31.0709V19.1225H21.0453V16.387ZM20.1289 29.6132H24.6972C24.9192 29.5859 25.1236 29.4783 25.2718 29.3108C25.42 29.1433 25.5019 28.9273 25.5019 28.7036C25.5019 28.4799 25.42 28.2639 25.2718 28.0964C25.1236 27.9289 24.9192 27.8213 24.6972 27.794H20.1289C19.9069 27.8213 19.7025 27.9289 19.5543 28.0964C19.4061 28.2639 19.3243 28.4799 19.3243 28.7036C19.3243 28.9273 19.4061 29.1433 19.5543 29.3108C19.7025 29.4783 19.9069 29.5859 20.1289 29.6132ZM20.1289 33.2651H26.5163C26.7594 33.2651 26.9925 33.1685 27.1643 32.9967C27.3362 32.8248 27.4327 32.5917 27.4327 32.3487C27.4327 32.1056 27.3362 31.8725 27.1643 31.7007C26.9925 31.5288 26.7594 31.4323 26.5163 31.4323H20.1289C19.8859 31.4323 19.6528 31.5288 19.4809 31.7007C19.3091 31.8725 19.2125 32.1056 19.2125 32.3487C19.2125 32.5917 19.3091 32.8248 19.4809 32.9967C19.6528 33.1685 19.8859 33.2651 20.1289 33.2651ZM20.1289 36.9033H24.6972C24.9192 36.876 25.1236 36.7685 25.2718 36.6009C25.42 36.4334 25.5019 36.2174 25.5019 35.9937C25.5019 35.77 25.42 35.5541 25.2718 35.3865C25.1236 35.219 24.9192 35.1115 24.6972 35.0842H20.1289C19.9069 35.1115 19.7025 35.219 19.5543 35.3865C19.4061 35.5541 19.3243 35.77 19.3243 35.9937C19.3243 36.2174 19.4061 36.4334 19.5543 36.6009C19.7025 36.7685 19.9069 36.876 20.1289 36.9033Z" fill="black"/>
</svg>
