<svg width="44" height="32" viewBox="0 0 44 32" fill="none" xmlns="http://www.w3.org/2000/svg">
<path d="M10.0835 19.8711C8.94832 19.8711 7.83864 20.2076 6.89466 20.8381C5.95068 21.4685 5.21478 22.3647 4.77995 23.4133C4.34512 24.4618 4.23088 25.6158 4.45167 26.7293C4.67245 27.8427 5.21836 28.8658 6.02039 29.6691C6.82242 30.4724 7.84458 31.02 8.95771 31.2426C10.0708 31.4652 11.225 31.3528 12.2742 30.9196C13.3235 30.4865 14.2208 29.7521 14.8528 28.8091C15.4848 27.8661 15.8231 26.757 15.825 25.6218C15.825 24.0982 15.2204 22.6369 14.1439 21.5587C13.0674 20.4805 11.6071 19.8736 10.0835 19.8711ZM10.0835 30.4272C9.13084 30.4272 8.1996 30.1446 7.40763 29.6152C6.61566 29.0857 5.99856 28.3332 5.63442 27.4529C5.27028 26.5726 5.17548 25.6041 5.36201 24.6699C5.54854 23.7356 6.00801 22.8778 6.68228 22.2048C7.35656 21.5318 8.21532 21.074 9.14988 20.8893C10.0844 20.7045 11.0528 20.8012 11.9324 21.167C12.812 21.5329 13.5633 22.1514 14.0913 22.9444C14.6192 23.7374 14.9 24.6692 14.8982 25.6218C14.8969 26.8984 14.3893 28.1223 13.4866 29.025C12.584 29.9276 11.36 30.4353 10.0835 30.4365V30.4272ZM10.0835 21.5532C9.28043 21.5523 8.49514 21.7896 7.82697 22.2351C7.15881 22.6806 6.63779 23.3142 6.32984 24.0559C6.02188 24.7976 5.94083 25.6139 6.09694 26.4017C6.25305 27.1894 6.6393 27.9131 7.20682 28.4813C7.77435 29.0495 8.49764 29.4366 9.28521 29.5936C10.0728 29.7506 10.8892 29.6705 11.6312 29.3634C12.3732 29.0562 13.0075 28.536 13.4537 27.8683C13.9 27.2006 14.1382 26.4156 14.1382 25.6126C14.1357 24.5384 13.7076 23.5089 12.9476 22.7498C12.1876 21.9907 11.1577 21.5637 10.0835 21.5625V21.5532ZM10.0835 28.7405C9.46353 28.7414 8.85724 28.5583 8.34139 28.2145C7.82553 27.8706 7.42331 27.3814 7.18564 26.8089C6.94797 26.2363 6.88554 25.606 7.00627 24.9979C7.12699 24.3899 7.42543 23.8313 7.8638 23.3929C8.30218 22.9545 8.86077 22.6561 9.46886 22.5353C10.0769 22.4146 10.7072 22.4771 11.2798 22.7147C11.8524 22.9524 12.3415 23.3546 12.6854 23.8705C13.0293 24.3863 13.2123 24.9926 13.2114 25.6126C13.212 26.0239 13.1316 26.4314 12.9747 26.8117C12.8179 27.192 12.5876 27.5377 12.2972 27.829C12.0067 28.1203 11.6617 28.3515 11.2819 28.5095C10.9021 28.6675 10.4949 28.7491 10.0835 28.7498V28.7405ZM33.4757 21.5625C32.6728 21.5625 31.888 21.8006 31.2204 22.2466C30.5529 22.6927 30.0326 23.3266 29.7253 24.0684C29.4181 24.8101 29.3377 25.6263 29.4943 26.4138C29.651 27.2012 30.0376 27.9245 30.6053 28.4922C31.173 29.0599 31.8963 29.4465 32.6837 29.6032C33.4712 29.7598 34.2874 29.6794 35.0291 29.3722C35.7709 29.0649 36.4049 28.5446 36.8509 27.8771C37.297 27.2095 37.535 26.4247 37.535 25.6218C37.535 25.0888 37.43 24.5609 37.226 24.0684C37.022 23.5759 36.723 23.1284 36.3461 22.7514C35.9691 22.3745 35.5216 22.0755 35.0291 21.8715C34.5366 21.6675 34.0088 21.5625 33.4757 21.5625ZM33.4757 28.7498C32.8559 28.7498 32.2501 28.5659 31.7349 28.2215C31.2196 27.8771 30.8181 27.3876 30.5811 26.8149C30.3442 26.2422 30.2824 25.6121 30.4037 25.0044C30.5249 24.3966 30.8237 23.8384 31.2623 23.4005C31.7008 22.9626 32.2594 22.6646 32.8674 22.5443C33.4754 22.4239 34.1054 22.4866 34.6777 22.7244C35.25 22.9622 35.7389 23.3645 36.0826 23.8802C36.4262 24.396 36.6092 25.0021 36.6082 25.6218C36.607 26.4518 36.2764 27.2474 35.6891 27.8339C35.1018 28.4204 34.3057 28.7498 33.4757 28.7498ZM43.0958 12.4568C42.4481 12.4568 41.8269 12.1995 41.369 11.7415C40.911 11.2835 40.6537 10.6624 40.6537 10.0147C40.6537 9.89178 40.6049 9.77391 40.518 9.687C40.4311 9.6001 40.3132 9.55128 40.1903 9.55128H33.1652L29.2217 1.21016C29.1959 1.15451 29.1592 1.10455 29.1139 1.06318C29.0686 1.02181 29.0155 0.989853 28.9577 0.969161C28.9 0.948468 28.8387 0.939454 28.7774 0.942643C28.7161 0.945831 28.6561 0.961157 28.6008 0.987732C28.4904 1.04082 28.4055 1.13545 28.3647 1.25095C28.3239 1.36644 28.3304 1.49339 28.383 1.60405L32.3265 9.94517L29.2171 13.6523L26.4367 10.872L27.3403 10.01C27.4266 9.92322 27.4751 9.80577 27.4751 9.68335C27.4751 9.56092 27.4266 9.44348 27.3403 9.35665C27.2973 9.31322 27.246 9.27875 27.1895 9.25522C27.1331 9.2317 27.0725 9.21958 27.0113 9.21958C26.9501 9.21958 26.8896 9.2317 26.8331 9.25522C26.7766 9.27875 26.7254 9.31322 26.6823 9.35665L24.3653 11.6736C24.279 11.7605 24.2306 11.8779 24.2306 12.0003C24.2306 12.1227 24.279 12.2402 24.3653 12.327C24.4084 12.3705 24.4597 12.4049 24.5161 12.4285C24.5726 12.452 24.6332 12.4641 24.6943 12.4641C24.7555 12.4641 24.8161 12.452 24.8726 12.4285C24.929 12.4049 24.9803 12.3705 25.0234 12.327L25.8065 11.5439L28.6332 14.366L25.3663 18.2585C25.2281 18.4241 25.0552 18.5574 24.8598 18.6487C24.6644 18.74 24.4513 18.7871 24.2356 18.7868H19.4626C19.1915 18.7938 18.9238 18.7256 18.6891 18.5899C18.4543 18.4541 18.2617 18.256 18.1327 18.0175L13.8324 9.82005C13.7936 9.74519 13.7351 9.68233 13.6633 9.63823C13.5914 9.59414 13.5089 9.57049 13.4246 9.56982H11.5154V1.42796C11.5154 1.30506 11.4666 1.18719 11.3797 1.10029C11.2927 1.01338 11.1749 0.964563 11.052 0.964563C10.9291 0.964563 10.8112 1.01338 10.7243 1.10029C10.6374 1.18719 10.5886 1.30506 10.5886 1.42796V2.92009L2.62282 9.32422C2.54535 9.38627 2.4914 9.47292 2.4699 9.56982H1.92772C1.41849 9.56858 0.929554 9.76938 0.568168 10.1282C0.206782 10.4869 0.00245266 10.9744 0 11.4836V25.6218C0 25.7447 0.0488219 25.8626 0.135725 25.9495C0.222629 26.0364 0.340495 26.0852 0.463395 26.0852H2.81281C2.93104 26.0854 3.04488 26.0405 3.13103 25.9595C3.21718 25.8785 3.26911 25.7677 3.27621 25.6496V25.594C3.326 23.8188 4.06715 22.1331 5.34169 20.8964C6.61623 19.6596 8.32339 18.9695 10.0993 18.9731C11.8753 18.9768 13.5796 19.6738 14.8491 20.9158C16.1186 22.1577 16.8528 23.8464 16.8954 25.6218C16.8948 25.7371 16.9372 25.8485 17.0143 25.9342C17.0915 26.0198 17.1978 26.0737 17.3125 26.0852H26.2467C26.3614 26.0737 26.4677 26.0198 26.5448 25.9342C26.6219 25.8485 26.6644 25.7371 26.6638 25.6218C26.7043 23.8462 27.4368 22.1567 28.705 20.9133C29.9733 19.6699 31.677 18.971 33.4531 18.9655C35.2291 18.9601 36.9371 19.6485 38.2129 20.8841C39.4887 22.1197 40.2315 23.8048 40.283 25.5801V25.6496C40.2901 25.7677 40.342 25.8785 40.4281 25.9595C40.5143 26.0405 40.6281 26.0854 40.7464 26.0852C41.4815 26.078 42.1845 25.7827 42.7044 25.2629C43.2242 24.743 43.5195 24.04 43.5267 23.3049V12.9202C43.527 12.8027 43.4827 12.6895 43.4027 12.6034C43.3227 12.5174 43.213 12.465 43.0958 12.4568ZM10.5886 4.11565V9.56982H3.79057L10.5886 4.11565ZM42.6324 23.2817C42.6314 23.7009 42.4904 24.1077 42.2318 24.4376C41.9732 24.7675 41.6119 25.0017 41.2051 25.1028C41.0984 23.3996 40.4314 21.7794 39.3079 20.4948C38.1844 19.2102 36.6676 18.3332 34.9937 18.0006C33.3199 17.6679 31.583 17.8982 30.0537 18.6556C28.5244 19.4131 27.2885 20.655 26.5387 22.1881H25.1485C25.0256 22.1881 24.9077 22.2369 24.8208 22.3238C24.7339 22.4107 24.6851 22.5286 24.6851 22.6515C24.6851 22.7744 24.7339 22.8922 24.8208 22.9791C24.9077 23.066 25.0256 23.1149 25.1485 23.1149H26.1401C26.0799 23.291 26.0197 23.4624 25.9733 23.6431H24.6851C24.5622 23.6431 24.4443 23.692 24.3574 23.7789C24.2705 23.8658 24.2217 23.9836 24.2217 24.1065C24.2217 24.2294 24.2705 24.3473 24.3574 24.4342C24.4443 24.5211 24.5622 24.5699 24.6851 24.5699H25.8158C25.788 24.7599 25.7648 24.9499 25.7509 25.1445H17.8083C17.6901 23.1759 16.8248 21.3267 15.3891 19.9746C13.9534 18.6224 12.0557 17.8695 10.0835 17.8695C8.11132 17.8695 6.21355 18.6224 4.77785 19.9746C3.34215 21.3267 2.47684 23.1759 2.35868 25.1445H0.926791V14.8201H3.58205C3.70495 14.8201 3.82281 14.7713 3.90972 14.6844C3.99662 14.5975 4.04544 14.4796 4.04544 14.3567C4.04544 14.2338 3.99662 14.1159 3.90972 14.029C3.82281 13.9421 3.70495 13.8933 3.58205 13.8933H0.926791V13.0963H5.51904C5.64194 13.0963 5.75981 13.0474 5.84671 12.9605C5.93361 12.8736 5.98244 12.7558 5.98244 12.6329C5.98244 12.51 5.93361 12.3921 5.84671 12.3052C5.75981 12.2183 5.64194 12.1695 5.51904 12.1695H0.926791V11.4836C0.928016 11.2214 1.03304 10.9704 1.21888 10.7854C1.40472 10.6004 1.65625 10.4966 1.91846 10.4966H13.1326L17.3032 18.4485C17.5086 18.8417 17.8194 19.17 18.2008 19.3967C18.5821 19.6234 19.019 19.7395 19.4626 19.7321H24.2217C24.5748 19.7349 24.9241 19.6595 25.2446 19.5113C25.5651 19.3631 25.8488 19.1457 26.0753 18.8748L33.0911 10.4966H39.7501C39.8494 11.2265 40.1849 11.9038 40.7054 12.4251C41.2259 12.9464 41.9026 13.283 42.6324 13.3836V23.2817ZM14.9538 10.251C14.9194 10.1478 14.9225 10.0358 14.9625 9.9346C15.0024 9.83342 15.0767 9.74952 15.1722 9.69758C15.2678 9.64565 15.3786 9.629 15.4853 9.65054C15.5919 9.67208 15.6875 9.73045 15.7554 9.81541L19.3699 16.5995C19.4142 16.6833 19.4811 16.7529 19.5631 16.8004C19.645 16.8479 19.7387 16.8715 19.8333 16.8683H24.1707C24.2936 16.8683 24.4115 16.9171 24.4984 17.004C24.5853 17.0909 24.6341 17.2088 24.6341 17.3317C24.6341 17.4546 24.5853 17.5725 24.4984 17.6594C24.4115 17.7463 24.2936 17.7951 24.1707 17.7951H19.8194C19.5562 17.7991 19.297 17.7303 19.0704 17.5961C18.8439 17.462 18.6589 17.2679 18.5358 17.0351L14.9538 10.251ZM39.2635 11.6412C39.2635 11.7641 39.2147 11.882 39.1278 11.9689C39.0409 12.0558 38.923 12.1046 38.8001 12.1046H35.8946C35.7717 12.1046 35.6538 12.0558 35.5669 11.9689C35.48 11.882 35.4312 11.7641 35.4312 11.6412C35.4312 11.5183 35.48 11.4004 35.5669 11.3135C35.6538 11.2266 35.7717 11.1778 35.8946 11.1778H38.8001C38.863 11.1777 38.9252 11.1904 38.983 11.2151C39.0407 11.2399 39.0929 11.2761 39.1362 11.3216C39.1796 11.3671 39.2132 11.421 39.2351 11.4799C39.257 11.5388 39.2666 11.6016 39.2635 11.6644V11.6412ZM34.9076 11.6412C34.9076 11.7641 34.8588 11.882 34.7719 11.9689C34.685 12.0558 34.5671 12.1046 34.4442 12.1046H33.4757C33.3528 12.1046 33.2349 12.0558 33.148 11.9689C33.0611 11.882 33.0123 11.7641 33.0123 11.6412C33.0123 11.5183 33.0611 11.4004 33.148 11.3135C33.2349 11.2266 33.3528 11.1778 33.4757 11.1778H34.4442C34.507 11.1777 34.5692 11.1904 34.627 11.2151C34.6848 11.2399 34.737 11.2761 34.7803 11.3216C34.8237 11.3671 34.8573 11.421 34.8792 11.4799C34.9011 11.5388 34.9107 11.6016 34.9076 11.6644V11.6412ZM24.18 22.6515C24.18 22.7744 24.1312 22.8922 24.0442 22.9791C23.9573 23.066 23.8395 23.1149 23.7166 23.1149H22.7481C22.6252 23.1149 22.5073 23.066 22.4204 22.9791C22.3335 22.8922 22.2847 22.7744 22.2847 22.6515C22.2847 22.5286 22.3335 22.4107 22.4204 22.3238C22.5073 22.2369 22.6252 22.1881 22.7481 22.1881H23.7166C23.8395 22.1881 23.9573 22.2369 24.0442 22.3238C24.1312 22.4107 24.18 22.5286 24.18 22.6515ZM8.42453 12.619C8.42453 12.7419 8.37571 12.8597 8.2888 12.9466C8.2019 13.0335 8.08403 13.0824 7.96113 13.0824H6.98337C6.86047 13.0824 6.7426 13.0335 6.6557 12.9466C6.5688 12.8597 6.51997 12.7419 6.51997 12.619C6.51997 12.4961 6.5688 12.3782 6.6557 12.2913C6.7426 12.2044 6.86047 12.1556 6.98337 12.1556H7.95187C8.01391 12.1555 8.07532 12.168 8.13247 12.1921C8.18962 12.2163 8.24133 12.2517 8.28455 12.2962C8.32777 12.3407 8.36161 12.3934 8.38406 12.4513C8.40651 12.5091 8.41712 12.5708 8.41526 12.6329L8.42453 12.619ZM33.4757 19.8711C32.3405 19.8711 31.2308 20.2076 30.2869 20.8381C29.3429 21.4685 28.607 22.3647 28.1722 23.4133C27.7373 24.4618 27.6231 25.6158 27.8439 26.7293C28.0647 27.8427 28.6106 28.8658 29.4126 29.6691C30.2146 30.4724 31.2368 31.02 32.3499 31.2426C33.463 31.4652 34.6172 31.3528 35.6664 30.9196C36.7157 30.4865 37.613 29.7521 38.245 28.8091C38.877 27.8661 39.2153 26.757 39.2172 25.6218C39.2172 24.0982 38.6125 22.6369 37.5361 21.5587C36.4596 20.4805 34.9993 19.8736 33.4757 19.8711ZM33.4757 30.4272C32.523 30.4272 31.5918 30.1446 30.7998 29.6152C30.0079 29.0857 29.3908 28.3332 29.0266 27.4529C28.6625 26.5726 28.5677 25.6041 28.7542 24.6699C28.9407 23.7356 29.4002 22.8778 30.0745 22.2048C30.7488 21.5318 31.6075 21.074 32.5421 20.8893C33.4767 20.7045 34.445 20.8012 35.3246 21.167C36.2042 21.5329 36.9555 22.1514 37.4835 22.9444C38.0114 23.7374 38.2922 24.6692 38.2904 25.6218C38.2891 26.8984 37.7815 28.1223 36.8788 29.025C35.9762 29.9276 34.7522 30.4353 33.4757 30.4365V30.4272Z" fill="black"/>
</svg>
