<svg width="45" height="45" viewBox="0 0 45 45" fill="none" xmlns="http://www.w3.org/2000/svg">
<path d="M34.1549 28.2772H10.9031C9.74048 28.2772 8.85144 27.3881 8.85144 26.2255V23.49C8.85144 23.0797 9.12499 22.8062 9.53532 22.8062H35.5226C35.933 22.8062 36.2065 23.0797 36.2065 23.49V26.2255C36.2065 27.3881 35.3175 28.2772 34.1549 28.2772ZM10.2192 24.1739V26.2255C10.2192 26.6359 10.4927 26.9094 10.9031 26.9094H34.1549C34.5652 26.9094 34.8388 26.6359 34.8388 26.2255V24.1739H10.2192Z" fill="black"/>
<path d="M29.1625 39.2193H15.8953C14.254 39.2193 12.8178 38.0567 12.5443 36.4154L10.903 27.7302C10.8346 27.525 10.903 27.3199 11.0397 27.1831C11.1765 27.0463 11.3817 26.9095 11.5868 26.9095H33.4709C33.6761 26.9095 33.8812 26.9779 34.018 27.1831C34.1548 27.3882 34.2232 27.525 34.1548 27.7302L32.5135 36.4154C32.2399 38.0567 30.8038 39.2193 29.1625 39.2193ZM12.4075 28.2773L13.912 36.2103C14.1172 37.1677 14.9378 37.8516 15.8953 37.8516H29.1625C30.1199 37.8516 31.0089 37.1677 31.2141 36.2103L32.6502 28.2773H12.4075ZM30.1199 12.2746C29.436 12.2746 28.8205 12.2062 28.2051 12.001C26.9741 11.5907 26.1534 10.9068 25.9483 9.94939C25.7431 8.99196 26.1534 7.96615 27.1108 7.07711C27.9315 6.32484 29.1625 5.70935 30.5302 5.36742C33.5393 4.68354 36.2064 5.64097 36.6167 7.48743C36.8219 8.44486 36.4116 9.47068 35.4541 10.3597C34.6335 11.112 33.4025 11.7275 32.0348 12.0694C31.4193 12.2062 30.7354 12.2746 30.1199 12.2746ZM32.4451 6.53001C31.9664 6.53001 31.4193 6.59839 30.8038 6.73517C29.7096 7.00872 28.6838 7.48743 27.9999 8.10292C27.4528 8.65002 27.1792 9.19713 27.2476 9.67584C27.3844 10.1546 27.8631 10.4965 28.547 10.77C29.436 11.0436 30.5302 11.0436 31.6928 10.77C32.8554 10.4965 33.8128 10.0178 34.4967 9.40229C35.0438 8.85519 35.3174 8.30809 35.249 7.82937C35.1122 7.1455 34.018 6.53001 32.4451 6.53001ZM17.3998 18.2243C16.5791 18.2243 15.7585 18.0875 14.9378 17.814C13.6385 17.4036 12.4075 16.7198 11.6552 15.8307C10.7662 14.8733 10.4243 13.8475 10.7662 12.8901C11.0397 11.9326 11.9288 11.2488 13.1598 10.9752C14.3223 10.7017 15.6217 10.8384 16.9895 11.2488C18.2888 11.6591 19.5198 12.343 20.2721 13.232C21.1611 14.1894 21.5031 15.2152 21.1611 16.1727C20.8876 17.1301 19.9985 17.814 18.7675 18.0875C18.2888 18.1559 17.8785 18.2243 17.3998 18.2243ZM14.4591 12.2746C14.1172 12.2746 13.7752 12.2746 13.4333 12.4113C12.681 12.5481 12.1339 12.9584 11.9972 13.3688C11.8604 13.8475 12.0656 14.3946 12.6127 14.9417C13.2281 15.6256 14.1856 16.1727 15.2798 16.5146C16.374 16.8565 17.5366 16.9249 18.4256 16.7198C19.1779 16.583 19.725 16.1727 19.8618 15.7623C19.9985 15.2836 19.7934 14.7365 19.2463 14.1894C18.6308 13.5055 17.6733 12.9584 16.5791 12.6165C15.8269 12.343 15.0746 12.2746 14.4591 12.2746Z" fill="black"/>
<path d="M26.6322 10.4964C26.3586 10.4964 26.0167 10.2912 25.9483 9.94931C25.8799 9.60737 26.0851 9.19705 26.427 9.12866L31.898 7.76091C32.24 7.69252 32.6503 7.89768 32.7187 8.23962C32.7871 8.58156 32.5819 8.99188 32.24 9.06027L26.769 10.428C26.769 10.4964 26.7006 10.4964 26.6322 10.4964ZM20.4773 16.6513C20.4089 16.6513 20.3405 16.6513 20.2721 16.5829L14.1172 14.5313C13.7753 14.3945 13.5701 14.0526 13.7069 13.6422C13.8437 13.3003 14.1856 13.0951 14.5959 13.2319L20.7508 15.2836C21.0928 15.4203 21.2979 15.7623 21.1612 16.1726C21.0244 16.4461 20.7508 16.6513 20.4773 16.6513Z" fill="black"/>
<path d="M23.5549 24.1739H19.9303C19.5884 24.1739 19.2465 23.9004 19.2465 23.5584C18.8361 16.1042 21.3665 10.9751 26.4272 9.19703C26.7007 9.12864 27.0426 9.19703 27.2478 9.47058C27.453 9.74413 27.3846 10.0861 27.2478 10.2912C23.76 14.5997 23.6916 19.7971 24.3071 23.4217C24.3071 23.6268 24.3071 23.832 24.1704 23.9688C23.8968 24.1055 23.76 24.1739 23.5549 24.1739ZM20.6142 22.8062H22.8026C22.3923 19.592 22.5291 15.4887 24.5807 11.659C21.1613 14.2577 20.4774 18.8397 20.6142 22.8062Z" fill="black"/>
</svg>
