<svg width="532" height="92" viewBox="0 0 532 92" fill="none" xmlns="http://www.w3.org/2000/svg">
<g clip-path="url(#clip0)">
<path d="M515.052 13.0939C512.687 11.9316 500.699 13.2602 492.053 21.5517C478.435 35.1522 478.762 53.0654 478.762 53.0654C478.762 53.0654 478.312 54.9102 476.393 52.2352C472.194 46.8861 474.394 34.575 474.64 32.8615C474.987 30.4448 473.448 30.3723 472.805 31.1734C457.636 52.2346 471.337 69.4855 480.309 74.958C490.811 81.3661 511.53 81.3639 519.785 63.1838C530.06 40.5436 518.014 14.5458 515.052 13.0939Z" fill="#7FBA0D"/>
<path d="M472.806 39.8289C469.097 44.9773 467.118 49.898 466.369 54.4751C468.014 64.334 474.992 71.7143 480.31 74.9586C490.811 81.3667 511.53 81.3646 519.785 63.1844C522.104 58.0757 523.283 52.796 523.689 47.6651C522.639 33.8131 516.961 22.685 515.052 21.7504C512.688 20.5881 500.7 21.9156 492.053 30.2072C478.435 43.8081 478.762 61.7214 478.762 61.7214C478.762 61.7214 478.312 63.5662 476.393 60.8911C473.523 57.2354 473.643 50.328 474.085 45.7731C473.809 43.6445 473.805 41.411 473.913 39.3994C473.525 39.3025 473.083 39.4836 472.806 39.8289Z" fill="#66A00A"/>
<path d="M479.217 48.1707C477.24 57.0029 481.886 64.03 481.886 64.03M515.052 13.0939C512.687 11.9316 500.699 13.2602 492.053 21.5517C478.435 35.1522 478.762 53.0654 478.762 53.0654C478.762 53.0654 478.312 54.9102 476.393 52.2352C472.194 46.8861 474.394 34.575 474.64 32.8615C474.987 30.4448 473.448 30.3723 472.805 31.1734C457.636 52.2346 471.337 69.4855 480.31 74.958C490.811 81.3661 511.53 81.3639 519.785 63.1838C530.06 40.5436 518.014 14.5458 515.052 13.0939V13.0939Z" stroke="#33363A" stroke-width="6.54098" stroke-miterlimit="10" stroke-linecap="round" stroke-linejoin="round"/>
</g>
<path d="M57.455 48.2832H76.848C76.8736 48.9731 76.8864 49.5863 76.8864 50.1229C76.8864 57.6092 74.4335 63.6009 69.5278 68.0978C64.622 72.5947 58.1449 74.8432 50.0964 74.8432C40.4638 74.8432 33.2841 72.1092 28.5572 66.6414C23.8303 61.148 21.4669 54.6581 21.4669 47.1717C21.4669 39.3277 23.8814 32.8122 28.7105 27.6254C33.5396 22.4387 40.0933 19.8453 48.3718 19.8453C55.807 19.8453 62.0414 22.1065 67.0749 26.629V20.6884H73.8586V38.2034H67.0749C65.7974 35.2651 63.5233 32.6589 60.2528 30.3849C57.0079 28.0854 53.2903 26.9356 49.1 26.9356C43.2744 26.9356 38.6753 28.903 35.3026 32.8378C31.9299 36.7726 30.2435 41.5123 30.2435 47.0568C30.2435 53.4189 32.1598 58.4652 35.9924 62.1956C39.8506 65.926 44.4881 67.7912 49.9048 67.7912C54.1462 67.7912 57.9277 66.6158 61.2493 64.2652C64.5709 61.889 66.5128 58.7845 67.0749 54.9519H57.455V48.2832ZM89.8023 67.5229V43.3775H82.3287V36.9004H95.6278V45.2554C96.4454 43.0836 97.5824 41.2823 99.0388 39.8515C100.495 38.4206 102.028 37.4752 103.638 37.0153C105.273 36.5554 107.496 36.3255 110.307 36.3255H112.223V43.6841H110.767C107.062 43.6841 104.29 44.0546 102.45 44.7955C100.636 45.5365 99.2816 46.8907 98.3873 48.8581C97.5186 50.7999 97.0842 54.3004 97.0842 59.3594V67.5229H105.171V74H82.3287V67.5229H89.8023ZM151.507 57.2898H120.31C120.77 60.7136 122.124 63.4859 124.372 65.6066C126.621 67.7273 129.495 68.7877 132.996 68.7877C138.08 68.7877 142.105 66.7436 145.068 62.6555L151.507 65.4916C149.412 68.7366 146.691 71.1511 143.344 72.7352C139.997 74.2938 136.496 75.0731 132.842 75.0731C127.17 75.0731 122.316 73.3101 118.279 69.7841C114.267 66.2326 112.261 61.4546 112.261 55.4502C112.261 49.7524 114.216 45.0638 118.125 41.3845C122.06 37.7052 126.57 35.8656 131.654 35.8656C136.637 35.8656 141.146 37.6669 145.183 41.2695C149.246 44.8466 151.354 50.1867 151.507 57.2898ZM143.995 52.0008C143.484 49.3947 142.13 47.044 139.933 44.9488C137.735 42.8281 135.04 41.7678 131.846 41.7678C128.933 41.7678 126.442 42.7259 124.372 44.6422C122.303 46.533 121.038 48.9858 120.578 52.0008H143.995ZM196.502 57.2898H165.305C165.765 60.7136 167.119 63.4859 169.367 65.6066C171.616 67.7273 174.49 68.7877 177.991 68.7877C183.075 68.7877 187.099 66.7436 190.063 62.6555L196.502 65.4916C194.407 68.7366 191.686 71.1511 188.339 72.7352C184.991 74.2938 181.491 75.0731 177.837 75.0731C172.165 75.0731 167.31 73.3101 163.273 69.7841C159.262 66.2326 157.256 61.4546 157.256 55.4502C157.256 49.7524 159.211 45.0638 163.12 41.3845C167.055 37.7052 171.565 35.8656 176.649 35.8656C181.632 35.8656 186.141 37.6669 190.178 41.2695C194.241 44.8466 196.349 50.1867 196.502 57.2898ZM188.99 52.0008C188.479 49.3947 187.125 47.044 184.928 44.9488C182.73 42.8281 180.035 41.7678 176.841 41.7678C173.928 41.7678 171.437 42.7259 169.367 44.6422C167.298 46.533 166.033 48.9858 165.573 52.0008H188.99ZM215.32 36.9004V41.3845C219.996 38.0118 224.263 36.3255 228.121 36.3255C230.523 36.3255 232.503 36.9004 234.062 38.0501C235.646 39.1744 236.681 40.5669 237.166 42.2277C237.651 43.8629 237.894 46.2647 237.894 49.433V67.5229H244.141V74H230.612V49.7396C230.612 46.929 230.191 45.1021 229.348 44.259C228.504 43.3902 227.47 42.9559 226.243 42.9559C223.024 42.9559 219.383 44.5272 215.32 47.67V67.5229H221.721V74H201.523V67.5229H208.038V43.3775H201.523V36.9004H215.32ZM299.139 74.5749L300.711 75.2648C304.875 76.9767 308.082 77.8326 310.33 77.8326C311.046 77.8326 311.979 77.7176 313.128 77.4877L310.292 84.0798C309.526 84.2075 308.823 84.2714 308.184 84.2714C305.655 84.2714 302.167 83.1983 297.721 81.052C293.889 79.2123 290.874 78.2925 288.676 78.2925C286.402 78.2925 284.575 78.9185 283.196 80.1705L280.934 76.9128C282.442 75.2775 284.409 74.2044 286.837 73.6934C282.544 72.3392 278.903 70.1674 275.914 67.178C272.95 64.163 270.88 60.9308 269.705 57.4815C268.53 54.0066 267.942 50.5572 267.942 47.1334C267.942 39.596 270.433 33.17 275.415 27.8554C280.398 22.5153 287.028 19.8453 295.307 19.8453C303.585 19.8453 310.279 22.4387 315.39 27.6254C320.5 32.8122 323.055 39.3532 323.055 47.2484C323.055 51.4387 322.25 55.4374 320.64 59.2445C319.031 63.026 316.271 66.4242 312.362 69.4392C308.453 72.4542 304.045 74.1661 299.139 74.5749ZM276.719 47.1334C276.719 52.9845 278.43 57.8903 281.854 61.8506C285.278 65.811 289.775 67.7912 295.345 67.7912C300.864 67.7912 305.399 65.7727 308.951 61.7357C312.502 57.6731 314.278 52.8312 314.278 47.2101C314.278 41.5378 312.464 36.7471 308.836 32.8378C305.233 28.903 300.698 26.9356 295.23 26.9356C289.788 26.9356 285.342 28.8647 281.893 32.7228C278.443 36.581 276.719 41.3845 276.719 47.1334ZM370.387 67.5229V74H356.705V69.7458C352.438 72.9907 348.35 74.6132 344.441 74.6132C341.962 74.6132 339.905 74.0767 338.27 73.0035C336.661 71.9048 335.587 70.4996 335.051 68.7877C334.514 67.0502 334.246 64.2652 334.246 60.4326V43.3775H328.995V36.9004H341.528V59.5127C341.528 62.2467 341.605 64.0863 341.758 65.0317C341.911 65.9771 342.358 66.7564 343.099 67.3696C343.84 67.9828 344.773 68.2894 345.897 68.2894C349.27 68.2894 352.872 66.6797 356.705 63.4603V43.3775H350.151V36.9004H363.987V67.5229H370.387ZM378.474 24.2911C378.474 23.1157 378.883 22.0937 379.701 21.225C380.544 20.3563 381.604 19.9219 382.882 19.9219C384.083 19.9219 385.117 20.3435 385.986 21.1867C386.855 22.0298 387.289 23.0646 387.289 24.2911C387.289 25.5175 386.855 26.5651 385.986 27.4338C385.117 28.277 384.083 28.6986 382.882 28.6986C381.655 28.6986 380.608 28.2642 379.739 27.3955C378.896 26.5268 378.474 25.492 378.474 24.2911ZM379.509 67.5229V43.3775H373.722V36.9004H386.791V67.5229H392.502V74H373.722V67.5229H379.509ZM395.376 74V67.9445L418.64 42.9176H403.386V50.0462H397.177V36.9004H427.302V43.3775L403.961 67.9445H420.94V60.3559H427.302V74H395.376Z" fill="white"/>
<path d="M57.455 48.2832V47.2832H56.455V48.2832H57.455ZM76.848 48.2832L77.8474 48.2462L77.8117 47.2832H76.848V48.2832ZM69.5278 68.0978L68.852 67.3606L69.5278 68.0978ZM28.5572 66.6414L27.7992 67.2936L27.8007 67.2954L28.5572 66.6414ZM67.0749 26.629L66.4066 27.3728L68.0749 28.8718V26.629H67.0749ZM67.0749 20.6884V19.6884H66.0749V20.6884H67.0749ZM73.8586 20.6884H74.8586V19.6884H73.8586V20.6884ZM73.8586 38.2034V39.2034H74.8586V38.2034H73.8586ZM67.0749 38.2034L66.1578 38.6022L66.4192 39.2034H67.0749V38.2034ZM60.2528 30.3849L59.6746 31.2009L59.682 31.206L60.2528 30.3849ZM35.3026 32.8378L36.0618 33.4886L35.3026 32.8378ZM35.9924 62.1956L35.295 62.9122L35.2973 62.9145L35.9924 62.1956ZM61.2493 64.2652L61.827 65.0815L61.8312 65.0785L61.2493 64.2652ZM67.0749 54.9519L68.0643 55.0971L68.2323 53.9519H67.0749V54.9519ZM57.455 54.9519H56.455V55.9519H57.455V54.9519ZM57.455 49.2832H76.848V47.2832H57.455V49.2832ZM75.8487 48.3202C75.8739 49.001 75.8864 49.6015 75.8864 50.1229H77.8864C77.8864 49.571 77.8732 48.9451 77.8474 48.2462L75.8487 48.3202ZM75.8864 50.1229C75.8864 57.3677 73.5242 63.0778 68.852 67.3606L70.2035 68.8349C75.3428 64.1239 77.8864 57.8508 77.8864 50.1229H75.8864ZM68.852 67.3606C64.1677 71.6546 57.9499 73.8432 50.0964 73.8432V75.8432C58.3399 75.8432 65.0763 73.5349 70.2035 68.8349L68.852 67.3606ZM50.0964 73.8432C40.652 73.8432 33.7926 71.1685 29.3137 65.9874L27.8007 67.2954C32.7755 73.05 40.2756 75.8432 50.0964 75.8432V73.8432ZM29.3152 65.9892C24.75 60.6836 22.4669 54.4274 22.4669 47.1717H20.4669C20.4669 54.8888 22.9106 61.6123 27.7992 67.2936L29.3152 65.9892ZM22.4669 47.1717C22.4669 39.5512 24.8046 33.2882 29.4424 28.3069L27.9786 26.944C22.9582 32.3363 20.4669 39.1041 20.4669 47.1717H22.4669ZM29.4424 28.3069C34.0502 23.3578 40.32 20.8453 48.3718 20.8453V18.8453C39.8667 18.8453 33.029 21.5195 27.9786 26.944L29.4424 28.3069ZM48.3718 20.8453C55.5866 20.8453 61.5753 23.0321 66.4066 27.3728L67.7432 25.8851C62.5075 21.1809 56.0274 18.8453 48.3718 18.8453V20.8453ZM68.0749 26.629V20.6884H66.0749V26.629H68.0749ZM67.0749 21.6884H73.8586V19.6884H67.0749V21.6884ZM72.8586 20.6884V38.2034H74.8586V20.6884H72.8586ZM73.8586 37.2034H67.0749V39.2034H73.8586V37.2034ZM67.992 37.8047C66.6244 34.6592 64.2097 31.9182 60.8237 29.5639L59.682 31.206C62.837 33.3997 64.9703 35.871 66.1578 38.6022L67.992 37.8047ZM60.831 29.569C57.4077 27.1431 53.4856 25.9356 49.1 25.9356V27.9356C53.0949 27.9356 56.6081 29.0277 59.6747 31.2008L60.831 29.569ZM49.1 25.9356C43.023 25.9356 38.1309 28.0015 34.5433 32.187L36.0618 33.4886C39.2196 29.8045 43.5257 27.9356 49.1 27.9356V25.9356ZM34.5433 32.187C31.0039 36.3163 29.2435 41.2916 29.2435 47.0568H31.2435C31.2435 41.7329 32.8558 37.2289 36.0618 33.4886L34.5433 32.187ZM29.2435 47.0568C29.2435 53.6337 31.2327 58.9582 35.295 62.9122L36.6899 61.479C33.087 57.9721 31.2435 53.2041 31.2435 47.0568H29.2435ZM35.2973 62.9145C39.3439 66.8271 44.2314 68.7912 49.9048 68.7912V66.7912C44.7447 66.7912 40.3573 65.0249 36.6875 61.4767L35.2973 62.9145ZM49.9048 68.7912C54.3438 68.7912 58.329 67.5569 61.827 65.0814L60.6717 63.4489C57.5264 65.6748 53.9486 66.7912 49.9048 66.7912V68.7912ZM61.8312 65.0785C65.3603 62.5538 67.4604 59.2144 68.0643 55.0971L66.0855 54.8068C65.5651 58.3547 63.7815 61.2241 60.6675 63.4519L61.8312 65.0785ZM67.0749 53.9519H57.455V55.9519H67.0749V53.9519ZM58.455 54.9519V48.2832H56.455V54.9519H58.455ZM89.8023 67.5229V68.5229H90.8023V67.5229H89.8023ZM89.8023 43.3775H90.8023V42.3775H89.8023V43.3775ZM82.3287 43.3775H81.3287V44.3775H82.3287V43.3775ZM82.3287 36.9004V35.9004H81.3287V36.9004H82.3287ZM95.6278 36.9004H96.6278V35.9004H95.6278V36.9004ZM95.6278 45.2554H94.6278L96.5637 45.6078L95.6278 45.2554ZM103.638 37.0153L103.367 36.0527L103.363 36.0538L103.638 37.0153ZM112.223 36.3255H113.223V35.3255H112.223V36.3255ZM112.223 43.6841V44.6841H113.223V43.6841H112.223ZM102.45 44.7955L102.076 43.8679L102.072 43.8698L102.45 44.7955ZM98.3873 48.8581L97.4769 48.4443L97.4745 48.4497L98.3873 48.8581ZM97.0842 67.5229H96.0842V68.5229H97.0842V67.5229ZM105.171 67.5229H106.171V66.5229H105.171V67.5229ZM105.171 74V75H106.171V74H105.171ZM82.3287 74H81.3287V75H82.3287V74ZM82.3287 67.5229V66.5229H81.3287V67.5229H82.3287ZM90.8023 67.5229V43.3775H88.8023V67.5229H90.8023ZM89.8023 42.3775H82.3287V44.3775H89.8023V42.3775ZM83.3287 43.3775V36.9004H81.3287V43.3775H83.3287ZM82.3287 37.9004H95.6278V35.9004H82.3287V37.9004ZM94.6278 36.9004V45.2554H96.6278V36.9004H94.6278ZM96.5637 45.6078C97.3371 43.5533 98.4002 41.8807 99.7397 40.5648L98.338 39.1381C96.7647 40.6839 95.5538 42.6139 94.6919 44.9031L96.5637 45.6078ZM99.7397 40.5648C101.103 39.2255 102.495 38.3819 103.913 37.9769L103.363 36.0538C101.561 36.5686 99.8876 37.6157 98.338 39.1381L99.7397 40.5648ZM103.909 37.978C105.417 37.5537 107.536 37.3255 110.307 37.3255V35.3255C107.456 35.3255 105.129 35.5571 103.367 36.0527L103.909 37.978ZM110.307 37.3255H112.223V35.3255H110.307V37.3255ZM111.223 36.3255V43.6841H113.223V36.3255H111.223ZM112.223 42.6841H110.767V44.6841H112.223V42.6841ZM110.767 42.6841C107.025 42.6841 104.097 43.0539 102.076 43.8679L102.823 45.7231C104.482 45.0552 107.098 44.6841 110.767 44.6841V42.6841ZM102.072 43.8698C99.9962 44.7175 98.465 46.2706 97.4769 48.4443L99.2977 49.2719C100.098 47.5108 101.275 46.3555 102.828 45.7213L102.072 43.8698ZM97.4745 48.4497C96.5098 50.606 96.0842 54.302 96.0842 59.3594H98.0842C98.0842 54.2988 98.5273 50.9938 99.3001 49.2665L97.4745 48.4497ZM96.0842 59.3594V67.5229H98.0842V59.3594H96.0842ZM97.0842 68.5229H105.171V66.5229H97.0842V68.5229ZM104.171 67.5229V74H106.171V67.5229H104.171ZM105.171 73H82.3287V75H105.171V73ZM83.3287 74V67.5229H81.3287V74H83.3287ZM82.3287 68.5229H89.8023V66.5229H82.3287V68.5229ZM151.507 57.2898V58.2898H152.529L152.507 57.2683L151.507 57.2898ZM120.31 57.2898V56.2898H119.167L119.319 57.423L120.31 57.2898ZM145.068 62.6555L145.472 61.7403L144.733 61.4149L144.259 62.0685L145.068 62.6555ZM151.507 65.4916L152.347 66.034L152.983 65.0491L151.91 64.5765L151.507 65.4916ZM143.344 72.7352L143.766 73.6418L143.772 73.6391L143.344 72.7352ZM118.279 69.7841L117.616 70.5329L117.621 70.5373L118.279 69.7841ZM118.125 41.3845L117.442 40.6541L117.44 40.6563L118.125 41.3845ZM145.183 41.2695L144.518 42.0157L144.523 42.0201L145.183 41.2695ZM143.995 52.0008V53.0008H145.21L144.977 51.8084L143.995 52.0008ZM139.933 44.9488L139.238 45.6684L139.243 45.6726L139.933 44.9488ZM124.372 44.6422L125.047 45.3805L125.052 45.376L124.372 44.6422ZM120.578 52.0008L119.59 51.85L119.414 53.0008H120.578V52.0008ZM151.507 56.2898H120.31V58.2898H151.507V56.2898ZM119.319 57.423C119.805 61.0456 121.251 64.0375 123.686 66.3341L125.059 64.8791C122.997 62.9343 121.734 60.3817 121.301 57.1567L119.319 57.423ZM123.686 66.3341C126.145 68.6533 129.277 69.7877 132.996 69.7877V67.7877C129.714 67.7877 127.096 66.8013 125.059 64.8791L123.686 66.3341ZM132.996 69.7877C138.398 69.7877 142.725 67.5922 145.878 63.2424L144.259 62.0685C141.485 65.895 137.763 67.7877 132.996 67.7877V69.7877ZM144.665 63.5706L151.104 66.4068L151.91 64.5765L145.472 61.7403L144.665 63.5706ZM150.667 64.9492C148.668 68.0447 146.087 70.3305 142.916 71.8314L143.772 73.6391C147.295 71.9717 150.156 69.4285 152.347 66.034L150.667 64.9492ZM142.922 71.8287C139.705 73.3264 136.349 74.0731 132.842 74.0731V76.0731C136.644 76.0731 140.288 75.2613 143.766 73.6418L142.922 71.8287ZM132.842 74.0731C127.397 74.0731 122.78 72.388 118.936 69.031L117.621 70.5373C121.851 74.2322 126.944 76.0731 132.842 76.0731V74.0731ZM118.941 69.0354C115.172 65.6978 113.261 61.2068 113.261 55.4502H111.261C111.261 61.7024 113.363 66.7674 117.616 70.5329L118.941 69.0354ZM113.261 55.4502C113.261 50.0091 115.116 45.5904 118.811 42.1127L117.44 40.6563C113.316 44.5372 111.261 49.4956 111.261 55.4502H113.261ZM118.808 42.1149C122.57 38.5975 126.839 36.8656 131.654 36.8656V34.8656C126.3 34.8656 121.55 36.8129 117.442 40.6541L118.808 42.1149ZM131.654 36.8656C136.369 36.8656 140.647 38.5613 144.518 42.0156L145.849 40.5234C141.646 36.7725 136.904 34.8656 131.654 34.8656V36.8656ZM144.523 42.0201C148.315 45.3591 150.358 50.396 150.507 57.3114L152.507 57.2683C152.35 49.9775 150.177 44.3341 145.844 40.519L144.523 42.0201ZM144.977 51.8084C144.42 48.9711 142.948 46.4418 140.623 44.2251L139.243 45.6726C141.313 47.6462 142.548 49.8182 143.014 52.1932L144.977 51.8084ZM140.627 44.2293C138.234 41.9197 135.286 40.7678 131.846 40.7678V42.7678C134.794 42.7678 137.237 43.7365 139.238 45.6684L140.627 44.2293ZM131.846 40.7678C128.69 40.7678 125.954 41.8149 123.693 43.9085L125.052 45.376C126.93 43.6369 129.176 42.7678 131.846 42.7678V40.7678ZM123.698 43.9039C121.444 45.9628 120.081 48.6303 119.59 51.85L121.567 52.1516C121.995 49.3414 123.161 47.1032 125.047 45.3805L123.698 43.9039ZM120.578 53.0008H143.995V51.0008H120.578V53.0008ZM196.502 57.2898V58.2898H197.524L197.502 57.2683L196.502 57.2898ZM165.305 57.2898V56.2898H164.161L164.314 57.423L165.305 57.2898ZM190.063 62.6555L190.466 61.7403L189.728 61.4149L189.254 62.0685L190.063 62.6555ZM196.502 65.4916L197.342 66.034L197.978 65.0491L196.905 64.5765L196.502 65.4916ZM188.339 72.7352L188.761 73.6418L188.766 73.6391L188.339 72.7352ZM163.273 69.7841L162.61 70.5329L162.616 70.5373L163.273 69.7841ZM163.12 41.3845L162.437 40.6541L162.435 40.6563L163.12 41.3845ZM190.178 41.2695L189.512 42.0157L189.517 42.0201L190.178 41.2695ZM188.99 52.0008V53.0008H190.205L189.971 51.8084L188.99 52.0008ZM184.928 44.9488L184.233 45.6684L184.237 45.6726L184.928 44.9488ZM169.367 44.6422L170.042 45.3805L170.047 45.376L169.367 44.6422ZM165.573 52.0008L164.584 51.85L164.409 53.0008H165.573V52.0008ZM196.502 56.2898H165.305V58.2898H196.502V56.2898ZM164.314 57.423C164.8 61.0456 166.246 64.0375 168.681 66.3341L170.053 64.8791C167.991 62.9343 166.729 60.3817 166.296 57.1567L164.314 57.423ZM168.681 66.3341C171.14 68.6533 174.272 69.7877 177.991 69.7877V67.7877C174.709 67.7877 172.091 66.8013 170.053 64.8791L168.681 66.3341ZM177.991 69.7877C183.393 69.7877 187.719 67.5922 190.873 63.2424L189.254 62.0685C186.479 65.895 182.757 67.7877 177.991 67.7877V69.7877ZM189.66 63.5706L196.099 66.4068L196.905 64.5765L190.466 61.7403L189.66 63.5706ZM195.662 64.9492C193.663 68.0447 191.082 70.3305 187.911 71.8314L188.766 73.6391C192.289 71.9717 195.15 69.4285 197.342 66.034L195.662 64.9492ZM187.916 71.8287C184.7 73.3264 181.344 74.0731 177.837 74.0731V76.0731C181.638 76.0731 185.283 75.2613 188.761 73.6418L187.916 71.8287ZM177.837 74.0731C172.392 74.0731 167.775 72.388 163.931 69.031L162.616 70.5373C166.846 74.2322 171.938 76.0731 177.837 76.0731V74.0731ZM163.936 69.0354C160.166 65.6978 158.256 61.2068 158.256 55.4502H156.256C156.256 61.7024 158.357 66.7674 162.61 70.5329L163.936 69.0354ZM158.256 55.4502C158.256 50.0091 160.11 45.5904 163.805 42.1127L162.435 40.6563C158.311 44.5372 156.256 49.4956 156.256 55.4502H158.256ZM163.803 42.1149C167.565 38.5975 171.834 36.8656 176.649 36.8656V34.8656C171.295 34.8656 166.545 36.8129 162.437 40.6541L163.803 42.1149ZM176.649 36.8656C181.364 36.8656 185.642 38.5613 189.512 42.0156L190.844 40.5234C186.641 36.7725 181.899 34.8656 176.649 34.8656V36.8656ZM189.517 42.0201C193.31 45.3591 195.353 50.396 195.502 57.3114L197.502 57.2683C197.344 49.9775 195.172 44.3341 190.839 40.519L189.517 42.0201ZM189.971 51.8084C189.415 48.9711 187.942 46.4418 185.618 44.2251L184.237 45.6726C186.307 47.6462 187.543 49.8182 188.009 52.1932L189.971 51.8084ZM185.622 44.2293C183.229 41.9197 180.281 40.7678 176.841 40.7678V42.7678C179.789 42.7678 182.231 43.7365 184.233 45.6684L185.622 44.2293ZM176.841 40.7678C173.685 40.7678 170.949 41.8149 168.688 43.9085L170.047 45.376C171.925 43.6369 174.171 42.7678 176.841 42.7678V40.7678ZM168.693 43.9039C166.439 45.9628 165.075 48.6303 164.584 51.85L166.561 52.1516C166.99 49.3414 168.156 47.1032 170.042 45.3805L168.693 43.9039ZM165.573 53.0008H188.99V51.0008H165.573V53.0008ZM215.32 36.9004H216.32V35.9004H215.32V36.9004ZM215.32 41.3845H214.32V43.3388L215.905 42.1955L215.32 41.3845ZM234.062 38.0501L233.468 38.8549L233.475 38.8603L233.483 38.8656L234.062 38.0501ZM237.166 42.2277L236.206 42.5083L236.207 42.5123L237.166 42.2277ZM237.894 67.5229H236.894V68.5229H237.894V67.5229ZM244.141 67.5229H245.141V66.5229H244.141V67.5229ZM244.141 74V75H245.141V74H244.141ZM230.612 74H229.612V75H230.612V74ZM229.348 44.259L228.63 44.9554L228.635 44.9608L228.64 44.9661L229.348 44.259ZM215.32 47.67L214.708 46.879L214.32 47.1793V47.67H215.32ZM215.32 67.5229H214.32V68.5229H215.32V67.5229ZM221.721 67.5229H222.721V66.5229H221.721V67.5229ZM221.721 74V75H222.721V74H221.721ZM201.523 74H200.523V75H201.523V74ZM201.523 67.5229V66.5229H200.523V67.5229H201.523ZM208.038 67.5229V68.5229H209.038V67.5229H208.038ZM208.038 43.3775H209.038V42.3775H208.038V43.3775ZM201.523 43.3775H200.523V44.3775H201.523V43.3775ZM201.523 36.9004V35.9004H200.523V36.9004H201.523ZM214.32 36.9004V41.3845H216.32V36.9004H214.32ZM215.905 42.1955C220.49 38.8882 224.554 37.3255 228.121 37.3255V35.3255C223.972 35.3255 219.501 37.1355 214.735 40.5735L215.905 42.1955ZM228.121 37.3255C230.361 37.3255 232.119 37.8597 233.468 38.8549L234.655 37.2454C232.887 35.941 230.684 35.3255 228.121 35.3255V37.3255ZM233.483 38.8656C234.907 39.8764 235.792 41.09 236.206 42.5082L238.126 41.9471C237.569 40.0438 236.384 38.4723 234.64 37.2346L233.483 38.8656ZM236.207 42.5123C236.651 44.0073 236.894 46.2936 236.894 49.433H238.894C238.894 46.2358 238.652 43.7185 238.125 41.9431L236.207 42.5123ZM236.894 49.433V67.5229H238.894V49.433H236.894ZM237.894 68.5229H244.141V66.5229H237.894V68.5229ZM243.141 67.5229V74H245.141V67.5229H243.141ZM244.141 73H230.612V75H244.141V73ZM231.612 74V49.7396H229.612V74H231.612ZM231.612 49.7396C231.612 48.2922 231.504 47.0506 231.27 46.0366C231.04 45.0362 230.664 44.1615 230.055 43.5519L228.64 44.9661C228.874 45.1996 229.131 45.6599 229.322 46.4864C229.509 47.2993 229.612 48.3764 229.612 49.7396H231.612ZM230.065 43.5625C229.031 42.4969 227.736 41.9559 226.243 41.9559V43.9559C227.203 43.9559 227.978 44.2836 228.63 44.9554L230.065 43.5625ZM226.243 41.9559C222.705 41.9559 218.849 43.6759 214.708 46.879L215.932 48.4609C219.916 45.3786 223.343 43.9559 226.243 43.9559V41.9559ZM214.32 47.67V67.5229H216.32V47.67H214.32ZM215.32 68.5229H221.721V66.5229H215.32V68.5229ZM220.721 67.5229V74H222.721V67.5229H220.721ZM221.721 73H201.523V75H221.721V73ZM202.523 74V67.5229H200.523V74H202.523ZM201.523 68.5229H208.038V66.5229H201.523V68.5229ZM209.038 67.5229V43.3775H207.038V67.5229H209.038ZM208.038 42.3775H201.523V44.3775H208.038V42.3775ZM202.523 43.3775V36.9004H200.523V43.3775H202.523ZM201.523 37.9004H215.32V35.9004H201.523V37.9004ZM299.139 74.5749L299.056 73.5783L298.737 75.4905L299.139 74.5749ZM300.711 75.2648L300.309 76.1804L300.32 76.1852L300.33 76.1897L300.711 75.2648ZM313.128 77.4877L314.047 77.8829L314.799 76.1336L312.932 76.5071L313.128 77.4877ZM310.292 84.0798L310.457 85.0662L310.995 84.9764L311.211 84.475L310.292 84.0798ZM297.721 81.052L298.156 80.1514L298.154 80.1505L297.721 81.052ZM283.196 80.1705L282.374 80.7407L283.024 81.6767L283.868 80.9111L283.196 80.1705ZM280.934 76.9128L280.199 76.235L279.656 76.8244L280.113 77.483L280.934 76.9128ZM286.837 73.6934L287.043 74.6719L290.773 73.8866L287.137 72.7397L286.837 73.6934ZM275.914 67.178L275.201 67.879L275.207 67.8851L275.914 67.178ZM269.705 57.4815L268.758 57.8019L268.758 57.804L269.705 57.4815ZM275.415 27.8554L276.145 28.5393L276.147 28.5376L275.415 27.8554ZM320.64 59.2445L321.56 59.6361L321.561 59.6339L320.64 59.2445ZM281.854 61.8506L281.098 62.5046L281.854 61.8506ZM308.951 61.7357L309.702 62.3962L309.704 62.3938L308.951 61.7357ZM308.836 32.8378L308.098 33.5131L308.103 33.5181L308.836 32.8378ZM281.893 32.7228L282.638 33.3893L281.893 32.7228ZM298.737 75.4905L300.309 76.1804L301.113 74.3491L299.541 73.6592L298.737 75.4905ZM300.33 76.1897C304.519 77.9115 307.877 78.8326 310.33 78.8326V76.8326C308.287 76.8326 305.231 76.0418 301.091 74.3398L300.33 76.1897ZM310.33 78.8326C311.14 78.8326 312.145 78.7041 313.324 78.4683L312.932 76.5071C311.812 76.7312 310.952 76.8326 310.33 76.8326V78.8326ZM312.21 77.0925L309.374 83.6846L311.211 84.475L314.047 77.8829L312.21 77.0925ZM310.128 83.0934C309.404 83.2139 308.758 83.2714 308.184 83.2714V85.2714C308.888 85.2714 309.647 85.2011 310.457 85.0662L310.128 83.0934ZM308.184 83.2714C305.89 83.2714 302.571 82.283 298.156 80.1514L297.286 81.9525C301.763 84.1135 305.42 85.2714 308.184 85.2714V83.2714ZM298.154 80.1505C294.29 78.2956 291.107 77.2925 288.676 77.2925V79.2925C290.641 79.2925 293.488 80.1291 297.288 81.9535L298.154 80.1505ZM288.676 77.2925C286.211 77.2925 284.126 77.976 282.524 79.4299L283.868 80.9111C285.025 79.861 286.593 79.2925 288.676 79.2925V77.2925ZM284.017 79.6003L281.756 76.3426L280.113 77.483L282.374 80.7407L284.017 79.6003ZM281.67 77.5906C283.02 76.1256 284.794 75.1453 287.043 74.6719L286.631 72.7148C284.024 73.2635 281.864 74.4295 280.199 76.235L281.67 77.5906ZM287.137 72.7397C282.988 71.4307 279.489 69.3393 276.621 66.4709L275.207 67.8851C278.317 70.9955 282.1 73.2477 286.536 74.6471L287.137 72.7397ZM276.627 66.4769C273.751 63.5519 271.771 60.4451 270.651 57.1589L268.758 57.804C269.989 61.4165 272.148 64.7741 275.201 67.879L276.627 66.4769ZM270.652 57.1611C269.509 53.782 268.942 50.4407 268.942 47.1334H266.942C266.942 50.6737 267.55 54.2311 268.758 57.8019L270.652 57.1611ZM268.942 47.1334C268.942 39.8403 271.343 33.6616 276.145 28.5393L274.686 27.1715C269.523 32.6783 266.942 39.3516 266.942 47.1334H268.942ZM276.147 28.5376C280.914 23.4282 287.265 20.8453 295.307 20.8453V18.8453C286.792 18.8453 279.882 21.6024 274.684 27.1732L276.147 28.5376ZM295.307 20.8453C303.357 20.8453 309.781 23.358 314.677 28.3273L316.102 26.9236C310.777 21.5193 303.813 18.8453 295.307 18.8453V20.8453ZM314.677 28.3273C319.587 33.3103 322.055 39.5915 322.055 47.2484H324.055C324.055 39.115 321.413 32.3142 316.102 26.9236L314.677 28.3273ZM322.055 47.2484C322.055 51.3068 321.276 55.1729 319.719 58.855L321.561 59.6339C323.224 55.7019 324.055 51.5706 324.055 47.2484H322.055ZM319.72 58.8528C318.19 62.4477 315.552 65.716 311.751 68.6473L312.972 70.2311C316.99 67.1324 319.871 63.6042 321.56 59.6361L319.72 58.8528ZM311.751 68.6473C307.994 71.5451 303.769 73.1856 299.056 73.5783L299.222 75.5714C304.321 75.1466 308.911 73.3633 312.972 70.2311L311.751 68.6473ZM275.719 47.1334C275.719 53.1945 277.498 58.3409 281.098 62.5046L282.611 61.1966C279.363 57.4396 277.719 52.7746 277.719 47.1334H275.719ZM281.098 62.5046C284.725 66.7002 289.506 68.7912 295.345 68.7912V66.7912C290.044 66.7912 285.831 64.9218 282.611 61.1966L281.098 62.5046ZM295.345 68.7912C301.143 68.7912 305.955 66.6554 309.702 62.3962L308.2 61.0751C304.844 64.8899 300.585 66.7912 295.345 66.7912V68.7912ZM309.704 62.3938C313.422 58.1409 315.278 53.0623 315.278 47.2101H313.278C313.278 52.6002 311.583 57.2053 308.198 61.0775L309.704 62.3938ZM315.278 47.2101C315.278 41.3031 313.38 36.2642 309.569 32.1575L308.103 33.5181C311.548 37.2299 313.278 41.7726 313.278 47.2101H315.278ZM309.573 32.1625C305.776 28.015 300.97 25.9356 295.23 25.9356V27.9356C300.425 27.9356 304.69 29.7909 308.098 33.5131L309.573 32.1625ZM295.23 25.9356C289.52 25.9356 284.797 27.9739 281.147 32.0563L282.638 33.3893C285.887 29.7555 290.056 27.9356 295.23 27.9356V25.9356ZM281.147 32.0563C277.515 36.1186 275.719 41.168 275.719 47.1334H277.719C277.719 41.601 279.371 37.0434 282.638 33.3893L281.147 32.0563ZM370.387 67.5229H371.387V66.5229H370.387V67.5229ZM370.387 74V75H371.387V74H370.387ZM356.705 74H355.705V75H356.705V74ZM356.705 69.7458H357.705V67.729L356.1 68.9498L356.705 69.7458ZM338.27 73.0035L337.706 73.8295L337.714 73.8346L337.722 73.8396L338.27 73.0035ZM335.051 68.7877L334.095 69.0827L334.097 69.0867L335.051 68.7877ZM334.246 43.3775H335.246V42.3775H334.246V43.3775ZM328.995 43.3775H327.995V44.3775H328.995V43.3775ZM328.995 36.9004V35.9004H327.995V36.9004H328.995ZM341.528 36.9004H342.528V35.9004H341.528V36.9004ZM341.758 65.0317L340.771 65.1918L341.758 65.0317ZM356.705 63.4603L357.348 64.226L357.705 63.9263V63.4603H356.705ZM356.705 43.3775H357.705V42.3775H356.705V43.3775ZM350.151 43.3775H349.151V44.3775H350.151V43.3775ZM350.151 36.9004V35.9004H349.151V36.9004H350.151ZM363.987 36.9004H364.987V35.9004H363.987V36.9004ZM363.987 67.5229H362.987V68.5229H363.987V67.5229ZM369.387 67.5229V74H371.387V67.5229H369.387ZM370.387 73H356.705V75H370.387V73ZM357.705 74V69.7458H355.705V74H357.705ZM356.1 68.9498C351.943 72.1108 348.063 73.6132 344.441 73.6132V75.6132C348.637 75.6132 352.933 73.8707 357.31 70.5418L356.1 68.9498ZM344.441 73.6132C342.105 73.6132 340.253 73.1084 338.819 72.1675L337.722 73.8396C339.558 75.0449 341.819 75.6132 344.441 75.6132V73.6132ZM338.834 72.1776C337.393 71.194 336.468 69.967 336.005 68.4886L334.097 69.0867C334.706 71.0321 335.928 72.6157 337.706 73.8295L338.834 72.1776ZM336.006 68.4926C335.517 66.9076 335.246 64.2505 335.246 60.4326H333.246C333.246 64.2799 333.512 67.1928 334.095 69.0827L336.006 68.4926ZM335.246 60.4326V43.3775H333.246V60.4326H335.246ZM334.246 42.3775H328.995V44.3775H334.246V42.3775ZM329.995 43.3775V36.9004H327.995V43.3775H329.995ZM328.995 37.9004H341.528V35.9004H328.995V37.9004ZM340.528 36.9004V59.5127H342.528V36.9004H340.528ZM340.528 59.5127C340.528 62.236 340.603 64.1546 340.771 65.1918L342.745 64.8716C342.607 64.018 342.528 62.2573 342.528 59.5127H340.528ZM340.771 65.1918C340.963 66.3773 341.535 67.3731 342.462 68.14L343.737 66.5992C343.182 66.1397 342.859 65.5768 342.745 64.8716L340.771 65.1918ZM342.462 68.14C343.411 68.9259 344.581 69.2894 345.897 69.2894V67.2894C344.964 67.2894 344.269 67.0397 343.737 66.5992L342.462 68.14ZM345.897 69.2894C349.596 69.2894 353.42 67.5258 357.348 64.226L356.062 62.6946C352.325 65.8336 348.944 67.2894 345.897 67.2894V69.2894ZM357.705 63.4603V43.3775H355.705V63.4603H357.705ZM356.705 42.3775H350.151V44.3775H356.705V42.3775ZM351.151 43.3775V36.9004H349.151V43.3775H351.151ZM350.151 37.9004H363.987V35.9004H350.151V37.9004ZM362.987 36.9004V67.5229H364.987V36.9004H362.987ZM363.987 68.5229H370.387V66.5229H363.987V68.5229ZM379.701 21.225L378.983 20.5285L378.978 20.534L378.973 20.5396L379.701 21.225ZM385.986 27.4338L386.683 28.1514L386.688 28.1462L386.693 28.1409L385.986 27.4338ZM379.739 27.3955L379.021 28.092L379.027 28.0973L379.032 28.1026L379.739 27.3955ZM379.509 67.5229V68.5229H380.509V67.5229H379.509ZM379.509 43.3775H380.509V42.3775H379.509V43.3775ZM373.722 43.3775H372.722V44.3775H373.722V43.3775ZM373.722 36.9004V35.9004H372.722V36.9004H373.722ZM386.791 36.9004H387.791V35.9004H386.791V36.9004ZM386.791 67.5229H385.791V68.5229H386.791V67.5229ZM392.502 67.5229H393.502V66.5229H392.502V67.5229ZM392.502 74V75H393.502V74H392.502ZM373.722 74H372.722V75H373.722V74ZM373.722 67.5229V66.5229H372.722V67.5229H373.722ZM379.474 24.2911C379.474 23.3747 379.783 22.5967 380.429 21.9104L378.973 20.5396C377.983 21.5908 377.474 22.8568 377.474 24.2911H379.474ZM380.418 21.9215C381.062 21.2584 381.858 20.9219 382.882 20.9219V18.9219C381.351 18.9219 380.026 19.4541 378.983 20.5285L380.418 21.9215ZM382.882 20.9219C383.82 20.9219 384.606 21.2405 385.29 21.9042L386.683 20.4691C385.629 19.4464 384.345 18.9219 382.882 18.9219V20.9219ZM385.29 21.9042C385.962 22.5563 386.289 23.3311 386.289 24.2911H388.289C388.289 22.7982 387.748 21.5033 386.683 20.4691L385.29 21.9042ZM386.289 24.2911C386.289 25.2518 385.961 26.0452 385.279 26.7267L386.693 28.1409C387.749 27.085 388.289 25.7832 388.289 24.2911H386.289ZM385.29 26.7162C384.606 27.3799 383.82 27.6986 382.882 27.6986V29.6986C384.345 29.6986 385.629 29.174 386.683 28.1514L385.29 26.7162ZM382.882 27.6986C381.921 27.6986 381.128 27.3699 380.446 26.6884L379.032 28.1026C380.088 29.1585 381.39 29.6986 382.882 29.6986V27.6986ZM380.457 26.699C379.793 26.0152 379.474 25.2296 379.474 24.2911H377.474C377.474 25.7544 377.999 27.0383 379.021 28.092L380.457 26.699ZM380.509 67.5229V43.3775H378.509V67.5229H380.509ZM379.509 42.3775H373.722V44.3775H379.509V42.3775ZM374.722 43.3775V36.9004H372.722V43.3775H374.722ZM373.722 37.9004H386.791V35.9004H373.722V37.9004ZM385.791 36.9004V67.5229H387.791V36.9004H385.791ZM386.791 68.5229H392.502V66.5229H386.791V68.5229ZM391.502 67.5229V74H393.502V67.5229H391.502ZM392.502 73H373.722V75H392.502V73ZM374.722 74V67.5229H372.722V74H374.722ZM373.722 68.5229H379.509V66.5229H373.722V68.5229ZM395.376 74H394.376V75H395.376V74ZM395.376 67.9445L394.644 67.2636L394.376 67.5515V67.9445H395.376ZM418.64 42.9176L419.372 43.5984L420.935 41.9176H418.64V42.9176ZM403.386 42.9176V41.9176H402.386V42.9176H403.386ZM403.386 50.0462V51.0462H404.386V50.0462H403.386ZM397.177 50.0462H396.177V51.0462H397.177V50.0462ZM397.177 36.9004V35.9004H396.177V36.9004H397.177ZM427.302 36.9004H428.302V35.9004H427.302V36.9004ZM427.302 43.3775L428.027 44.0662L428.302 43.7768V43.3775H427.302ZM403.961 67.9445L403.236 67.2557L401.632 68.9445H403.961V67.9445ZM420.94 67.9445V68.9445H421.94V67.9445H420.94ZM420.94 60.3559V59.3559H419.94V60.3559H420.94ZM427.302 60.3559H428.302V59.3559H427.302V60.3559ZM427.302 74V75H428.302V74H427.302ZM396.376 74V67.9445H394.376V74H396.376ZM396.108 68.6253L419.372 43.5984L417.908 42.2367L394.644 67.2636L396.108 68.6253ZM418.64 41.9176H403.386V43.9176H418.64V41.9176ZM402.386 42.9176V50.0462H404.386V42.9176H402.386ZM403.386 49.0462H397.177V51.0462H403.386V49.0462ZM398.177 50.0462V36.9004H396.177V50.0462H398.177ZM397.177 37.9004H427.302V35.9004H397.177V37.9004ZM426.302 36.9004V43.3775H428.302V36.9004H426.302ZM426.577 42.6887L403.236 67.2557L404.686 68.6333L428.027 44.0662L426.577 42.6887ZM403.961 68.9445H420.94V66.9445H403.961V68.9445ZM421.94 67.9445V60.3559H419.94V67.9445H421.94ZM420.94 61.3559H427.302V59.3559H420.94V61.3559ZM426.302 60.3559V74H428.302V60.3559H426.302ZM427.302 73H395.376V75H427.302V73Z" fill="black"/>
<defs>
<clipPath id="clip0">
<rect width="74.1312" height="74.1312" fill="white" transform="translate(457.869 8.72121)"/>
</clipPath>
</defs>
</svg>
