<svg width="600" height="450" viewBox="0 0 600 450" fill="none" xmlns="http://www.w3.org/2000/svg">
<path opacity="0.5" fill-rule="evenodd" clip-rule="evenodd" d="M593.213 450H0.401077C-7.10447 349.226 92.5521 285.725 146.696 251.224C153.729 246.742 159.995 242.75 165.157 239.229C187.787 223.795 204.567 190.091 222.413 154.246C255.292 88.2082 291.79 14.901 375.151 35.1756C448.44 53.0472 558.587 129.09 600 242.85V431.795C597.945 437.816 595.685 443.885 593.213 450Z" fill="url(#paint0_linear)"/>
<path d="M325.755 317.045C239.637 317.045 169.825 324.066 169.825 332.727C169.825 341.388 239.637 348.409 325.755 348.409C411.872 348.409 481.685 341.388 481.685 332.727C481.685 324.066 411.872 317.045 325.755 317.045Z" fill="#F0F0F5"/>
<path d="M466.899 271.921C466.899 271.921 444.776 334.811 442.406 334.811C440.035 334.811 392.629 349.747 434.504 330.88C434.504 330.88 439.245 262.487 446.356 259.343C453.467 256.198 466.899 271.921 466.899 271.921Z" fill="#965450"/>
<path d="M450.307 317.202C457.497 298.571 466.899 271.921 466.899 271.921C466.899 271.921 453.467 256.198 446.356 259.343C441.773 261.387 438.139 290.788 436.164 311.227C440.904 313.114 445.566 315.158 450.307 317.202Z" fill="#76413B"/>
<path d="M427.631 334.261C427.631 334.261 425.813 338.427 443.196 334.025L442.406 336.383C442.406 336.383 393.419 347.861 427.631 334.261Z" fill="#051F38"/>
<path d="M453.467 245.271C453.467 245.271 487.679 302.58 486.178 304.388C484.676 306.196 465.714 351.949 478.04 307.847C478.04 307.847 428.421 260.286 430.554 252.818C432.766 245.429 453.467 245.271 453.467 245.271Z" fill="#965450"/>
<path d="M476.301 315.237C476.301 315.237 478.356 319.325 486.099 303.209L487.442 305.331C487.363 305.331 464.766 350.141 476.301 315.237Z" fill="#051F38"/>
<path d="M473.378 279.389C464.213 263.274 453.467 245.271 453.467 245.271C453.467 245.271 432.766 245.429 430.554 252.818C429.132 257.613 449.517 279.311 463.976 293.932C464.055 294.011 469.664 287.801 473.378 279.389Z" fill="#76413B"/>
<path d="M475.194 159.112C475.194 159.112 454.256 135.922 442.009 150.465C429.763 165.008 410.8 212.962 413.565 232.615C415.225 244.171 426.365 256.513 435.293 264.768L427.787 306.904C427.787 306.904 458.602 315.158 456.626 315.158C455.441 315.158 487.046 230.65 490.206 203.921C493.367 177.193 475.194 159.112 475.194 159.112Z" fill="#6633CC"/>
<path opacity="0.2" d="M459.156 164.3C465.003 164.222 471.403 163.436 477.012 161.156C475.906 159.819 475.195 159.112 475.195 159.112C475.195 159.112 454.257 135.921 442.01 150.465C440.114 152.744 438.06 155.732 436.006 159.348C442.88 163.121 451.571 164.458 459.156 164.3Z" fill="#352C38"/>
<path opacity="0.2" d="M427.788 175.542C419.097 195.274 411.749 219.801 413.566 232.536C415.146 244.013 426.208 256.277 435.136 264.531C438.297 243.149 444.065 213.433 447.541 196.296C438.929 191.422 431.818 184.425 427.788 175.542Z" fill="#352C38"/>
<path d="M414.752 112.73L402.11 137.1C402.11 137.1 379.987 124.915 376.826 124.915C373.666 124.915 358.654 125.308 365.765 128.452C365.765 128.452 362.604 130.418 366.16 131.204C366.16 131.204 362.999 133.955 366.95 134.348L376.036 133.955C376.036 133.955 394.209 150.464 403.295 152.822C412.381 155.18 426.998 124.522 426.998 124.522L414.752 112.73Z" fill="#965450"/>
<path d="M416.806 130.182C418.781 130.89 420.836 131.597 422.89 132.305C425.418 127.903 426.999 124.444 426.999 124.444L414.752 112.652L407.799 126.016C410.564 127.745 413.646 129.082 416.806 130.182Z" fill="#76413B"/>
<path d="M430.553 100.938C430.553 100.938 418.702 98.9731 414.356 105.262C410.011 111.551 408.035 121.771 408.035 121.771L425.023 130.025L430.553 100.938Z" fill="#34CB79"/>
<path opacity="0.1" d="M423.996 123.186C419.651 119.805 414.673 115.56 411.434 110.451C409.063 115.953 407.957 121.692 407.957 121.692L424.944 129.946L425.972 124.601C425.34 124.208 424.628 123.736 423.996 123.186Z" fill="#161826"/>
<path d="M347.434 122.007C347.908 123.264 347.197 124.68 345.933 125.151L336.61 128.532C335.345 129.003 333.923 128.296 333.449 127.038L329.736 116.74C329.262 115.482 329.973 114.067 331.237 113.595L340.56 110.215C341.824 109.743 343.247 110.451 343.721 111.708L347.434 122.007Z" fill="#23173B"/>
<path d="M354.94 114.303L325.706 124.758C320.57 126.566 317.963 132.226 319.78 137.336L328.788 162.256C330.605 167.366 336.294 169.96 341.429 168.152L370.663 157.697C375.799 155.889 378.407 150.229 376.589 145.119L367.582 120.199C365.686 115.089 360.076 112.416 354.94 114.303ZM373.745 147.399C374.456 149.443 373.429 151.722 371.375 152.43L358.812 117.84C360.866 117.133 363.157 118.155 363.869 120.199L373.745 147.399Z" fill="#322153"/>
<path d="M345.538 111.551C345.933 112.652 345.38 113.91 344.274 114.303L331 119.098C329.894 119.491 328.63 118.941 328.235 117.84L327.129 114.774C326.733 113.674 327.287 112.416 328.393 112.023L341.667 107.228C342.773 106.834 344.037 107.385 344.432 108.485L345.538 111.551Z" fill="#6633CC"/>
<path d="M364.185 126.488C364.185 126.488 369.163 124.758 370.032 125.78C370.822 126.723 365.844 128.138 366.081 128.217C366.239 128.296 371.454 127.116 371.928 128.217C372.402 129.318 366.397 131.283 366.397 131.283C366.397 131.283 372.086 129.711 372.481 130.89C372.876 132.069 366.555 133.798 366.555 133.798L366.239 131.204L365.844 128.217L364.185 126.488Z" fill="#965450"/>
<path d="M371.216 125.151C371.216 125.151 367.345 122.557 367.345 121.692C367.266 120.749 377.616 125.073 377.616 125.073L371.216 125.151Z" fill="#965450"/>
<path d="M447.541 98.9732C446.751 100.388 450.622 67.4496 450.622 67.4496L432.687 79.4773C432.687 79.4773 434.267 100.545 432.292 100.624C431.502 100.624 428.42 101.803 425.023 103.061C425.813 106.992 427.393 107.856 428.736 111.63C438.771 111.551 449.674 111.315 455.837 102.196C452.282 101.017 448.568 97.0079 447.541 98.9732Z" fill="#76413B"/>
<path d="M430.554 100.938L429.764 98.1869L449.516 93.8632L450.307 98.58C450.307 98.58 474.01 106.441 477.17 124.129C480.331 141.817 478.751 153.216 475.195 159.112C475.195 159.112 447.541 163.042 435.689 157.146C423.838 151.25 411.591 107.227 417.912 103.297C424.233 99.3661 430.554 100.938 430.554 100.938Z" fill="#34CB79"/>
<path opacity="0.1" d="M456.39 149.914C446.909 149.364 435.294 148.263 427.393 142.446C425.892 141.345 424.549 140.166 423.285 138.83C426.84 147.556 431.265 154.945 435.689 157.146C447.541 163.042 475.195 159.112 475.195 159.112C476.775 156.517 477.96 152.823 478.513 147.949C471.402 150.071 463.975 150.386 456.39 149.914Z" fill="#161826"/>
<path d="M455.442 136.314L475.59 134.741C475.59 134.741 470.455 170.117 464.529 182.302C458.603 194.487 431.344 242.441 442.01 215.712C442.01 215.712 428.184 236.545 440.035 215.319C440.035 215.319 426.998 232.221 438.455 214.14C438.455 214.14 425.023 229.469 439.245 207.851C439.245 207.851 428.579 212.961 440.43 204.313L451.887 174.441L455.442 136.314Z" fill="#965450"/>
<path d="M475.116 137.572C475.432 135.764 475.59 134.663 475.59 134.663L455.442 136.236L455.284 138.279C461.842 138.279 468.479 137.965 475.116 137.572Z" fill="#76413B"/>
<path d="M434.346 46.3028C434.346 46.3028 444.381 40.4855 459.077 50.0762C468.795 56.4439 468.321 76.8045 447.304 90.1687C422.336 106.048 434.346 46.3028 434.346 46.3028Z" fill="#051F38"/>
<path d="M448.252 57.1516C448.252 57.1516 436.954 48.4256 427.315 52.6706C415.147 58.1735 416.411 70.9874 416.174 81.9145C415.858 96.4578 427.394 99.2093 430.87 99.3665C436.006 99.681 456.944 98.4232 448.252 57.1516Z" fill="#965450"/>
<path d="M449.358 70.7515C449.358 70.7515 449.833 68.5503 453.625 70.2798C458.445 72.5596 455.837 84.037 450.465 83.7225C445.013 83.4867 449.358 70.7515 449.358 70.7515Z" fill="#965450"/>
<path d="M449.358 70.7513C449.358 70.7513 449.99 78.6126 448.173 78.6912C446.277 78.7698 444.301 64.4623 449.516 64.4623C454.731 64.6196 449.358 70.7513 449.358 70.7513Z" fill="#051F38"/>
<path d="M449.358 70.7514C449.358 70.7514 445.487 53.2994 422.495 56.2081C422.495 56.2081 425.813 49.6832 433.082 46.6173C442.958 42.4509 457.733 59.1953 453.625 70.2797C453.625 70.2797 451.729 70.5156 449.358 70.7514Z" fill="#34CB79"/>
<path d="M459.077 54.6358C459.077 54.6358 457.812 33.8035 462.869 33.8035C467.926 33.8035 462.474 51.3341 462.474 51.3341C462.474 51.3341 466.662 26.2567 478.829 30.0301C490.997 33.8035 469.98 51.3341 469.98 51.3341C469.98 51.3341 479.619 42.5295 483.017 45.5167C486.335 48.4254 469.19 54.3213 469.19 54.3213C469.19 54.3213 482.227 50.5479 483.886 56.8369C485.545 63.0473 458.681 62.1826 459.077 54.6358Z" fill="#051F38"/>
<path d="M416.806 66.7417C416.806 66.7417 416.806 66.5845 416.964 66.2701C417.122 65.9556 417.28 65.5625 417.675 65.1695C418.07 64.7764 418.544 64.3047 419.176 63.9903C419.334 63.9117 419.492 63.8331 419.729 63.7545C419.887 63.6758 420.124 63.5972 420.282 63.5972C420.519 63.5972 420.677 63.5186 420.914 63.5186H421.546C421.942 63.5186 422.337 63.6758 422.732 63.8331C423.127 63.9903 423.443 64.1475 423.759 64.3834C424.075 64.6192 424.312 64.855 424.549 65.0909C424.786 65.3267 424.944 65.5625 425.023 65.7984C425.102 65.877 425.181 66.0342 425.181 66.1128C425.26 66.1914 425.26 66.3487 425.339 66.4273C425.418 66.6631 425.497 66.8203 425.497 66.9776C425.576 67.292 425.576 67.4492 425.576 67.4492C425.576 67.4492 425.418 67.3706 425.102 67.292C424.944 67.2134 424.786 67.1348 424.628 67.0562C424.47 66.9776 424.233 66.899 423.996 66.7417C423.759 66.6631 423.601 66.5059 423.364 66.4273C423.127 66.3487 422.89 66.2701 422.653 66.1914C422.416 66.1128 422.179 66.0342 421.942 65.9556C421.704 65.9556 421.467 65.877 421.23 65.877H420.914C420.835 65.877 420.677 65.877 420.519 65.877C420.282 65.877 420.045 65.9556 419.808 65.9556C419.571 66.0342 419.334 66.0342 419.097 66.1128C418.86 66.1914 418.623 66.1914 418.386 66.2701C417.912 66.4273 417.517 66.5059 417.28 66.5845C417.043 66.7417 416.806 66.7417 416.806 66.7417Z" fill="#051F38"/>
<path d="M422.89 88.3606C422.89 88.3606 435.847 88.7536 436.716 88.5964C437.507 88.4392 429.447 94.7282 422.89 88.3606Z" fill="white"/>
<path d="M423.759 73.9745C423.759 73.9745 423.759 74.1318 423.68 74.4462C423.601 74.7607 423.522 75.1537 423.364 75.704C423.285 75.9399 423.206 76.2543 423.047 76.4901C422.968 76.6474 422.889 76.8046 422.81 76.8832C422.731 77.0404 422.573 77.1977 422.494 77.2763C422.257 77.5121 422.02 77.8266 421.625 77.9838C421.546 78.0624 421.467 78.0624 421.309 78.141L421.072 78.2196C420.914 78.2982 420.677 78.2982 420.44 78.2982C420.045 78.2982 419.571 78.2196 419.255 77.9052C418.939 77.6693 418.702 77.3549 418.544 76.9618C418.386 76.6474 418.307 76.3329 418.228 76.0185C418.149 75.704 418.149 75.3896 418.149 75.1537C418.149 74.6034 418.149 74.2104 418.228 73.8959C418.307 73.5815 418.386 73.4243 418.386 73.4243C418.386 73.4243 418.386 74.1318 418.623 75.1537C418.702 75.6254 418.86 76.2543 419.176 76.726C419.334 76.9618 419.492 77.1977 419.729 77.3549C419.966 77.5121 420.203 77.5907 420.44 77.5907C420.598 77.5907 420.677 77.5907 420.835 77.5121L421.072 77.4335C421.072 77.4335 421.151 77.3549 421.23 77.3549C421.467 77.2763 421.704 77.0404 421.941 76.8832C422.178 76.6474 422.336 76.4115 422.494 76.1757C422.652 75.9399 422.81 75.704 422.889 75.4682C423.127 74.9965 423.285 74.6034 423.443 74.3676C423.68 74.1318 423.759 73.9745 423.759 73.9745Z" fill="#1F2733"/>
<path d="M436.796 74.9965C436.796 74.9965 436.796 75.1537 436.717 75.4682C436.638 75.7826 436.559 76.1757 436.401 76.726C436.322 76.9618 436.243 77.2763 436.085 77.5121C436.006 77.6693 435.927 77.8266 435.848 77.9052C435.769 78.0624 435.611 78.2196 435.532 78.2982C435.294 78.5341 435.057 78.8485 434.662 79.0058C434.583 79.0844 434.504 79.0844 434.346 79.163L434.109 79.2416C433.951 79.3202 433.714 79.3202 433.477 79.3202C433.082 79.3202 432.608 79.2416 432.292 78.9271C431.976 78.6913 431.739 78.3769 431.581 77.9838C431.423 77.6693 431.344 77.3549 431.265 77.0404C431.186 76.726 431.186 76.4115 431.186 76.1757C431.186 75.6254 431.186 75.2324 431.265 74.9179C431.344 74.6035 431.423 74.4462 431.423 74.4462C431.423 74.4462 431.423 75.1537 431.66 76.1757C431.739 76.6474 431.897 77.2763 432.213 77.748C432.371 77.9838 432.529 78.2196 432.766 78.3769C433.003 78.5341 433.24 78.6127 433.477 78.6127C433.635 78.6127 433.714 78.6127 433.872 78.5341L434.109 78.4555C434.109 78.4555 434.188 78.3769 434.267 78.3769C434.504 78.2982 434.741 78.0624 434.978 77.9052C435.215 77.6693 435.374 77.4335 435.532 77.1977C435.69 76.9618 435.848 76.726 435.927 76.4902C436.164 76.0185 436.322 75.6254 436.48 75.3896C436.717 75.1537 436.796 74.9965 436.796 74.9965Z" fill="#1F2733"/>
<path d="M451.176 81.5214C451.413 81.2069 451.571 80.9711 451.729 80.6566C451.887 80.3422 451.966 80.0277 452.045 79.7133C452.045 79.5561 452.045 79.3988 452.045 79.2416C452.045 79.163 451.966 79.0844 451.966 79.0844C451.966 79.0058 451.887 78.9272 451.808 78.9272C451.729 78.8486 451.729 78.8485 451.65 78.7699L451.492 78.6127C451.413 78.5341 451.334 78.5341 451.255 78.5341L451.018 78.4555L450.86 78.3769V78.2196C450.623 77.3549 450.544 76.5688 450.465 75.704C450.386 75.311 450.386 74.8393 450.465 74.4462C450.465 73.9746 450.544 73.5815 450.702 73.1098C450.781 72.874 450.939 72.6382 451.176 72.4809C451.413 72.3237 451.729 72.1665 451.966 72.2451C452.282 72.2451 452.44 72.3237 452.677 72.4023C452.914 72.4809 453.151 72.5595 453.309 72.7168C453.467 72.874 453.704 73.0312 453.783 73.1884C453.941 73.3457 454.02 73.5815 454.099 73.7387C454.257 74.1318 454.336 74.6035 454.257 74.9965C454.178 74.6035 454.099 74.2104 453.862 73.8173C453.783 73.6601 453.625 73.5029 453.467 73.3457C453.309 73.1884 453.151 73.1098 452.993 73.0312C452.835 72.9526 452.677 72.874 452.44 72.874C452.282 72.874 452.045 72.7954 451.887 72.7954C451.571 72.7954 451.413 73.0312 451.334 73.3457C451.097 74.0532 451.176 74.8393 451.176 75.6254C451.255 76.4116 451.334 77.2763 451.492 78.0624L451.334 77.8266L451.571 77.9838C451.65 78.0624 451.729 78.0624 451.808 78.141L452.045 78.2983C452.124 78.3769 452.203 78.4555 452.282 78.5341C452.361 78.6127 452.44 78.6913 452.44 78.8485C452.519 78.9272 452.519 79.0844 452.519 79.163C452.598 79.3988 452.519 79.5561 452.519 79.7919C452.44 80.185 452.203 80.4994 451.966 80.8139C451.729 81.0497 451.413 81.3641 451.176 81.5214Z" fill="#76413B"/>
<path d="M424.944 84.8231C424.549 84.9017 424.233 84.9017 423.917 84.9017C423.601 84.9017 423.285 84.823 423.048 84.7444C422.732 84.6658 422.495 84.5086 422.258 84.43C422.1 84.3514 422.021 84.2728 421.863 84.1942C421.705 84.1155 421.626 84.0369 421.468 83.9583L420.994 83.5652L421.073 83.2508C421.863 80.971 422.653 78.7699 423.443 76.5687C424.233 74.3676 425.102 72.0878 425.971 69.8867C425.418 72.1664 424.786 74.5248 424.233 76.8046C423.601 79.0843 422.969 81.3641 422.337 83.6439L422.021 82.9363C422.179 82.9363 422.337 83.015 422.495 83.015C422.653 83.015 422.811 83.0936 422.89 83.1722C423.127 83.2508 423.443 83.408 423.68 83.5652C423.917 83.7225 424.154 83.9583 424.391 84.1942C424.549 84.2728 424.786 84.5086 424.944 84.8231Z" fill="#76413B"/>
<path d="M429.605 65.7989C429.605 65.7989 429.684 65.563 429.922 65.3272C430.08 65.17 430.159 65.0127 430.396 64.7769C430.633 64.6197 430.791 64.3838 431.107 64.2266C431.344 64.0694 431.66 63.8335 432.055 63.6763C432.371 63.5191 432.766 63.3619 433.161 63.2046C433.556 63.126 434.03 62.9688 434.504 62.9688C434.741 62.9688 434.978 62.9688 435.215 62.9688L435.926 63.0474C436.4 63.0474 436.874 63.2833 437.27 63.3619C437.665 63.5191 438.06 63.7549 438.455 63.9122C438.85 64.148 439.166 64.3838 439.403 64.6197C439.719 64.8555 439.956 65.17 440.114 65.4058C440.351 65.6416 440.509 65.8775 440.667 66.1133C440.825 66.3492 440.904 66.585 440.983 66.7422C441.141 67.0567 441.22 67.2925 441.22 67.2925C441.22 67.2925 440.983 67.2139 440.667 67.0567C440.509 66.9781 440.272 66.8994 440.035 66.7422C439.798 66.585 439.561 66.5064 439.245 66.4278C439.008 66.3491 438.692 66.1919 438.376 66.0347C438.06 65.9561 437.744 65.7989 437.428 65.7203C437.112 65.6416 436.795 65.563 436.479 65.4844C436.163 65.4844 435.847 65.3272 435.452 65.3272L434.978 65.2486H434.504C434.188 65.2486 433.793 65.2486 433.477 65.2486C433.161 65.2486 432.845 65.2486 432.529 65.3272C432.213 65.3272 431.897 65.4058 431.581 65.4058C431.028 65.4844 430.475 65.563 430.159 65.6416C429.842 65.7989 429.605 65.7989 429.605 65.7989Z" fill="#051F38"/>
<path d="M418.702 334.654C418.702 337.484 416.411 339.842 413.567 339.921C410.722 339.921 408.352 337.641 408.273 334.811L408.036 318.145C408.036 315.315 410.327 312.957 413.171 312.878C416.016 312.878 418.386 315.158 418.465 317.988L418.702 334.654Z" fill="#091E1D"/>
<path d="M345.933 335.519C345.933 338.349 343.642 340.708 340.797 340.786C337.953 340.786 335.582 338.507 335.503 335.676L335.266 319.011C335.266 316.181 337.558 313.822 340.402 313.744C343.246 313.744 345.617 316.023 345.696 318.853L345.933 335.519Z" fill="#091E1D"/>
<path d="M412.855 322.783C412.934 329.23 407.72 334.497 401.241 334.575L352.57 335.126C346.091 335.204 340.797 330.016 340.718 323.57L335.503 213.355C335.424 206.909 340.639 201.641 347.118 201.563L403.611 200.855C410.09 200.777 415.384 205.965 415.463 212.411L412.855 322.783Z" fill="#34CB79"/>
<path opacity="0.1" d="M415.147 223.496L415.384 212.569C415.305 206.122 410.011 200.934 403.532 201.013L347.039 201.72C340.56 201.799 335.345 207.066 335.424 213.512L335.978 224.439L415.147 223.496Z" fill="#161826"/>
<path d="M424.786 209.817C424.786 211.625 423.364 213.04 421.547 213.119L329.262 214.22C327.445 214.22 326.022 212.805 325.943 210.996L325.785 199.362C325.785 197.554 327.208 196.139 329.025 196.06L421.31 194.959C423.127 194.959 424.549 196.374 424.628 198.183L424.786 209.817Z" fill="#34CB79"/>
<path d="M375.799 242.127L386.545 235.681L383.937 242.363L375.799 242.127Z" fill="white"/>
<path d="M371.77 231.986C371.77 231.986 372.639 231.986 373.982 234.03C375.325 236.074 378.328 241.577 378.328 241.577L383.779 239.14L385.044 237.017C385.044 237.017 382.673 232.3 380.777 231.986H371.77Z" fill="white"/>
<path d="M368.767 233.401C368.767 233.401 370.427 231.592 371.77 232.536C373.113 233.479 375.483 237.41 375.483 237.41L371.612 244.17L364.659 240.318L368.767 233.401Z" fill="white"/>
<path d="M380.698 250.539L381.251 262.959L376.59 257.535L380.698 250.539Z" fill="white"/>
<path d="M391.602 251.796C391.602 251.796 391.207 252.582 388.757 252.818C386.308 253.054 379.987 253.054 379.987 253.054L379.513 259.029L380.777 261.151C380.777 261.151 386.071 261.387 387.256 259.815L391.602 251.796Z" fill="white"/>
<path d="M391.681 248.495C391.681 248.495 392.55 250.774 391.049 251.56C389.626 252.268 384.965 252.425 384.965 252.425L380.777 245.822L387.493 241.498L391.681 248.495Z" fill="white"/>
<path d="M371.215 250.381L360.153 244.564L367.264 243.306L371.215 250.381Z" fill="white"/>
<path d="M364.659 259.107C364.659 259.107 364.184 258.4 365.212 256.199C366.239 253.997 369.399 248.573 369.399 248.573L364.5 245.193L362.051 245.271C362.051 245.271 359.207 249.752 359.918 251.482L364.659 259.107Z" fill="white"/>
<path d="M367.424 260.837C367.424 260.837 364.974 260.365 365.132 258.793C365.211 257.142 367.424 253.133 367.424 253.133L375.246 252.897L375.562 260.837H367.424Z" fill="white"/>
<path d="M206.241 303.523C206.241 303.523 204.503 331.273 203.001 331.824C197.234 333.789 153.698 344.795 194.863 326.321L193.757 306.117L206.241 303.523Z" fill="#051F38"/>
<path d="M204.423 325.063C205.45 316.652 206.241 303.523 206.241 303.523L193.757 306.117L194.784 324.12C197.865 324.984 201.421 325.063 204.423 325.063Z" fill="#041523"/>
<path d="M177.402 335.99C176.137 339.056 198.893 333.239 203.001 331.824C203.08 331.745 203.238 331.588 203.396 331.195C198.26 332.61 182.695 336.148 177.402 335.99Z" fill="white"/>
<path d="M232.867 302.03C232.867 302.03 235.159 329.78 236.739 330.251C242.586 332.138 286.279 342.279 244.719 324.591L245.43 304.388L232.867 302.03Z" fill="#051F38"/>
<path d="M235.159 323.491C233.974 315.158 232.867 302.03 232.867 302.03L245.43 304.388L244.798 322.39C241.717 323.334 238.161 323.412 235.159 323.491Z" fill="#041523"/>
<path d="M262.417 333.946C263.761 337.012 240.847 331.588 236.739 330.251C236.581 330.251 236.502 330.016 236.344 329.623C241.479 331.038 257.124 334.261 262.417 333.946Z" fill="white"/>
<path d="M240.532 152.194C240.532 152.194 251.909 243.62 249.618 317.595C249.618 317.595 236.028 321.368 232.473 318.617C229.391 301.086 229.786 266.968 225.204 241.655C220.858 217.757 219.12 198.182 219.12 198.182L217.697 196.61C217.697 196.61 208.374 312.171 206.32 320.975C194.547 323.727 190.834 320.504 190.834 320.504C190.834 320.504 185.461 175.935 188.779 152.587C193.046 122.085 240.532 152.194 240.532 152.194Z" fill="#34CB79"/>
<path opacity="0.1" d="M242.585 171.139C241.4 159.347 240.452 152.272 240.452 152.272C240.452 152.272 193.045 122.164 188.699 152.665C188.304 155.495 188.067 160.134 187.83 166.029C191.386 167.995 235.79 174.284 242.585 171.139Z" fill="#161826"/>
<path opacity="0.1" d="M218.251 195.667C218.804 201.877 221.648 221.923 225.204 241.655C229.786 267.047 229.391 301.086 232.473 318.617C236.028 321.368 249.618 317.595 249.618 317.595C250.961 272.078 247.248 219.958 244.087 186.626C236.581 191.343 227.021 193.623 218.251 195.667Z" fill="#161826"/>
<path d="M222.28 72.2449C222.359 62.6541 223.07 49.9975 223.07 49.9975L204.108 44.8091C204.108 44.8091 204.74 61.9466 205.293 72.4021C196.681 75.3108 186.883 80.8136 186.883 80.8136L222.675 89.8541L235.396 77.5905C235.396 77.5905 228.996 74.3674 222.28 72.2449Z" fill="#FFB39F"/>
<path d="M222.28 72.2449C222.359 62.6541 223.07 49.9975 223.07 49.9975L204.108 44.8091C204.108 44.8091 204.74 61.9466 205.293 72.4021C196.681 75.3108 186.883 80.8136 186.883 80.8136L222.675 89.8541L239.584 75.3894C239.584 75.3894 229.075 71.4587 222.28 72.2449Z" fill="#E09B8D"/>
<path d="M202.448 26.6496C202.448 26.6496 207.426 10.6126 220.542 13.1283C233.658 15.6439 235.554 32.7028 237.213 44.1802C238.873 55.7363 235.159 66.1131 224.888 67.3709C215.959 68.4715 200.394 66.742 202.448 26.6496Z" fill="#FFB39F"/>
<path d="M203.081 40.0923C203.081 40.0923 202.291 37.9697 199.051 40.3281C194.943 43.3154 199.13 54.3211 204.108 53.1419C209.086 51.9628 203.081 40.0923 203.081 40.0923Z" fill="#FFB39F"/>
<path d="M198.498 17.452C198.814 17.3734 204.977 16.9017 200.868 17.2948C204.661 21.3827 204.266 22.4046 209.48 23.348C212.246 31.8381 206.794 36.9479 206.794 36.9479L208.295 47.1676L204.345 47.5606C204.345 47.5606 204.424 40.4855 201.421 39.8566C198.419 39.2277 197.55 42.8439 197.55 42.8439C191.308 34.9826 184.987 19.5746 198.498 17.452Z" fill="#051F38"/>
<path d="M234.29 11.7133C236.818 5.50288 232.552 0 232.552 0C233.263 2.27976 232.947 4.4023 232.236 6.13178C231.762 4.4023 230.893 2.5156 229.312 0.6289C229.312 0.6289 229.786 6.91791 221.174 6.13178C212.562 5.34565 197.471 6.52484 196.839 19.8104C196.128 33.0959 209.006 23.4265 209.006 23.4265C209.006 23.4265 234.685 30.5803 238.399 9.9838L234.29 11.7133Z" fill="#051F38"/>
<path d="M222.122 34.6688C222.122 34.6688 221.885 34.6688 221.569 34.5902C221.174 34.5116 220.7 34.433 220.147 34.3543C219.831 34.2757 219.594 34.2757 219.278 34.2757C218.962 34.1971 218.646 34.1971 218.33 34.1971C218.014 34.1971 217.698 34.1971 217.303 34.1971C217.145 34.1971 216.987 34.1971 216.829 34.1971L216.355 34.2757C216.039 34.2757 215.722 34.3543 215.327 34.433C215.011 34.5116 214.695 34.5902 214.379 34.6688C214.063 34.7474 213.747 34.9046 213.431 34.9832C213.115 35.0619 212.878 35.2191 212.562 35.2977C212.325 35.3763 212.009 35.4549 211.851 35.6121C211.614 35.6908 211.456 35.7694 211.298 35.848C210.982 36.0052 210.745 36.0838 210.745 36.0838C210.745 36.0838 210.824 35.848 210.982 35.5335C211.061 35.3763 211.14 35.1405 211.298 34.9046C211.456 34.6688 211.614 34.433 211.851 34.1971C212.088 33.9613 212.246 33.6468 212.562 33.411C212.878 33.1752 213.194 32.9393 213.589 32.7035C213.984 32.5463 214.379 32.3104 214.774 32.1532C215.248 31.996 215.643 31.9174 216.118 31.8387L216.829 31.7601C217.066 31.7601 217.303 31.7601 217.54 31.8387C217.777 31.8387 218.014 31.9174 218.172 31.9174C218.409 31.996 218.567 31.996 218.804 32.0746C219.199 32.2318 219.594 32.3104 219.91 32.5463C220.226 32.7035 220.542 32.9393 220.858 33.0965C221.095 33.2538 221.332 33.4896 221.569 33.6468C221.727 33.8041 221.885 34.0399 222.043 34.1185C221.964 34.433 222.122 34.6688 222.122 34.6688Z" fill="#051F38"/>
<path d="M235.475 34.2751C235.475 34.2751 235.317 34.1964 235.001 34.1178C234.685 34.0392 234.29 33.882 233.895 33.7248C233.658 33.6462 233.421 33.5675 233.184 33.4889C232.947 33.4103 232.71 33.3317 232.472 33.3317C232.235 33.3317 231.998 33.2531 231.761 33.1745C231.682 33.1745 231.524 33.1745 231.445 33.0959H231.129C230.892 33.0173 230.655 33.1745 230.418 33.0959C230.181 33.1745 229.944 33.1745 229.707 33.2531C229.47 33.3317 229.233 33.4103 228.996 33.4889C228.759 33.5675 228.522 33.6462 228.364 33.7248C228.127 33.8034 227.89 33.882 227.732 33.9606C227.574 34.0392 227.416 34.1178 227.258 34.1178C226.942 34.1964 226.784 34.2751 226.784 34.2751C226.784 34.2751 226.784 34.1178 226.942 33.8034C227.021 33.6462 227.021 33.4889 227.179 33.2531C227.258 33.0173 227.416 32.86 227.574 32.6242C227.732 32.3884 227.89 32.1525 228.127 31.9167C228.364 31.6808 228.68 31.5236 228.917 31.2878C229.233 31.1306 229.628 30.9733 229.944 30.8161C230.339 30.7375 230.734 30.6589 231.129 30.6589C231.366 30.6589 231.524 30.6589 231.761 30.6589C231.998 30.6589 232.156 30.7375 232.314 30.8161C232.472 30.8161 232.71 30.8947 232.868 30.9733C233.026 31.0519 233.184 31.1306 233.342 31.2092C233.974 31.6022 234.448 31.9953 234.764 32.467C235.08 32.9386 235.238 33.3317 235.396 33.6462C235.475 34.1178 235.475 34.2751 235.475 34.2751Z" fill="#051F38"/>
<path d="M225.757 35.1398C226.231 36.1617 226.705 37.2623 227.179 38.2843C227.416 38.8346 227.574 39.3062 227.811 39.8565L228.443 41.4288L229.075 43.001C229.312 43.5513 229.47 44.023 229.707 44.5733L230.023 45.3594C230.102 45.5952 230.26 45.9097 230.339 46.1455C230.576 46.6172 230.813 47.0889 231.05 47.6392L231.287 48.2681L230.813 48.5039C230.102 48.8184 229.391 49.2114 228.601 49.5259C227.89 49.8403 227.1 50.1548 226.31 50.3906C226.942 49.8403 227.574 49.3686 228.206 48.897C228.838 48.4253 229.549 47.9536 230.181 47.4819L229.944 48.3467C229.628 47.875 229.312 47.3247 228.996 46.853C228.68 46.3814 228.443 45.8311 228.206 45.2808L227.811 44.4947L227.495 43.7085C227.337 43.1583 227.1 42.608 226.942 42.0577L226.468 40.4068C226.31 39.8565 226.231 39.3062 226.073 38.7559C225.994 37.4981 225.836 36.319 225.757 35.1398Z" fill="#DD9078"/>
<path d="M202.843 50.8623C202.527 50.7051 202.211 50.4693 201.974 50.1548C201.737 49.919 201.421 49.6045 201.263 49.2115C201.184 49.0543 201.105 48.8184 201.105 48.5826C201.105 48.504 201.105 48.3467 201.105 48.2681C201.105 48.1895 201.184 48.0323 201.184 47.9537C201.263 47.7178 201.421 47.5606 201.579 47.4034C201.658 47.3248 201.737 47.2462 201.816 47.1675L202.053 47.0103L201.895 47.2462C201.895 46.3814 201.895 45.5167 201.816 44.7306C201.737 43.8658 201.658 43.0011 201.342 42.2936C201.263 42.1363 201.184 41.9791 201.026 41.9005C200.947 41.8219 200.789 41.7433 200.631 41.7433C200.552 41.7433 200.473 41.7433 200.394 41.8219C200.315 41.8219 200.157 41.9005 200.078 41.9005C199.92 41.9791 199.762 42.0577 199.604 42.215C199.446 42.3722 199.288 42.4508 199.209 42.608C199.13 42.7652 198.972 42.9225 198.893 43.1583C198.735 43.5514 198.656 43.9444 198.656 44.4161C198.498 44.023 198.498 43.5514 198.577 43.0797C198.577 42.8439 198.656 42.608 198.814 42.4508C198.893 42.215 199.051 42.0577 199.209 41.9005L199.446 41.6647L199.762 41.4288C199.841 41.3502 199.999 41.3502 200.078 41.2716C200.157 41.193 200.315 41.193 200.473 41.1144C200.789 41.0358 201.105 41.1144 201.342 41.3502C201.579 41.5074 201.737 41.7433 201.816 41.9791C202.053 42.4508 202.132 42.8439 202.29 43.3155C202.369 43.7872 202.448 44.1803 202.448 44.6519C202.527 45.5167 202.527 46.3814 202.448 47.3248V47.482L202.29 47.5606C202.132 47.6392 201.974 47.7178 201.895 47.8751C201.816 47.9537 201.658 48.1109 201.579 48.1895C201.5 48.2681 201.5 48.3467 201.5 48.4254C201.5 48.504 201.421 48.5826 201.421 48.6612C201.421 48.8184 201.421 48.9756 201.421 49.1329C201.5 49.4473 201.658 49.7618 201.895 50.0762C202.369 50.3907 202.606 50.6265 202.843 50.8623Z" fill="#DD9078"/>
<path d="M215.248 42.1363C215.248 42.1363 215.327 42.2935 215.406 42.608C215.485 42.7652 215.485 42.9224 215.564 43.0796C215.643 43.2369 215.722 43.4727 215.88 43.7085C215.96 43.9444 216.197 44.1016 216.276 44.3374C216.355 44.416 216.434 44.4947 216.592 44.6519C216.671 44.7305 216.75 44.8091 216.908 44.8877C217.145 45.0449 217.382 45.1236 217.619 45.2022C217.777 45.2022 217.856 45.2808 218.014 45.2808C218.172 45.2808 218.251 45.2808 218.409 45.2022L218.804 45.0449L219.199 44.8091C219.436 44.6519 219.594 44.416 219.752 44.1802C219.91 43.9444 219.989 43.7085 220.147 43.4727C220.226 43.2369 220.305 43.001 220.305 42.6866C220.305 42.4507 220.305 42.2149 220.384 42.0577C220.384 41.8218 220.384 41.6646 220.384 41.5074C220.384 41.1929 220.384 41.0357 220.384 41.0357C220.384 41.0357 220.463 41.1929 220.542 41.5074C220.621 41.6646 220.621 41.8218 220.7 42.0577C220.7 42.2935 220.779 42.5293 220.779 42.7652C220.779 43.001 220.779 43.3155 220.7 43.6299C220.621 43.9444 220.542 44.2588 220.384 44.5733C220.226 44.8877 219.989 45.2022 219.673 45.438L219.199 45.7525C219.041 45.8311 218.804 45.9097 218.646 45.9883C218.488 45.9883 218.251 46.0669 218.014 46.0669C217.856 46.0669 217.619 45.9883 217.461 45.9883C217.066 45.9097 216.75 45.6738 216.434 45.438C216.118 45.2022 215.96 44.8877 215.801 44.6519C215.643 44.3374 215.485 44.1016 215.406 43.8658C215.327 43.6299 215.248 43.3941 215.248 43.1582C215.248 42.9224 215.248 42.7652 215.248 42.608C215.248 42.2935 215.248 42.1363 215.248 42.1363Z" fill="#1F2733"/>
<path d="M229.549 39.7779C229.549 39.7779 229.628 39.9351 229.707 40.2496C229.786 40.4068 229.786 40.564 229.865 40.7212C229.944 40.8785 230.024 41.1143 230.182 41.3501C230.261 41.586 230.498 41.7432 230.577 41.979C230.656 42.0576 230.735 42.1363 230.893 42.2935C230.972 42.3721 231.051 42.4507 231.209 42.5293C231.446 42.6865 231.683 42.7652 231.92 42.8438C232.078 42.8438 232.157 42.9224 232.315 42.9224C232.473 42.9224 232.552 42.9224 232.71 42.8438L233.105 42.6865L233.5 42.4507C233.737 42.2935 233.895 42.0576 234.053 41.8218C234.211 41.586 234.29 41.3501 234.448 41.1143C234.527 40.8785 234.606 40.6426 234.606 40.3282C234.606 40.0923 234.606 39.8565 234.685 39.6993C234.685 39.4634 234.685 39.3062 234.685 39.149C234.685 38.8345 234.685 38.6773 234.685 38.6773C234.685 38.6773 234.764 38.8345 234.843 39.149C234.922 39.3062 234.922 39.4634 235.001 39.6993C235.001 39.9351 235.08 40.1709 235.08 40.4068C235.08 40.6426 235.08 40.9571 235.001 41.2715C234.922 41.586 234.843 41.9004 234.685 42.2149C234.527 42.5293 234.29 42.8438 233.974 43.0796L233.5 43.3941C233.342 43.4727 233.105 43.5513 232.947 43.6299C232.789 43.6299 232.552 43.7085 232.315 43.7085C232.157 43.7085 231.92 43.6299 231.762 43.6299C231.367 43.5513 231.051 43.3154 230.735 43.0796C230.419 42.8438 230.261 42.5293 230.103 42.2935C229.944 41.979 229.786 41.7432 229.707 41.5074C229.628 41.2715 229.549 41.0357 229.549 40.7998C229.549 40.564 229.549 40.4068 229.549 40.2496C229.549 39.9351 229.549 39.7779 229.549 39.7779Z" fill="#1F2733"/>
<path d="M216.493 53.2522C216.493 53.2522 216.414 53.2522 216.493 53.3308C216.572 53.4094 216.73 53.488 216.888 53.5666C217.204 53.8024 217.757 54.0383 218.389 54.3527C219.021 54.6672 219.811 54.9816 220.601 55.2175C220.996 55.3747 221.47 55.4533 221.866 55.5319C222.261 55.6105 222.735 55.6891 223.209 55.7678C224.078 55.8464 224.947 55.925 225.816 55.8464C226.685 55.7678 227.396 55.6105 228.107 55.3747C228.739 55.1389 229.293 54.9816 229.688 54.8244C230.083 54.6672 230.32 54.5886 230.32 54.5886C230.32 54.5886 230.162 54.8244 229.846 55.0602C229.53 55.3747 229.056 55.7678 228.423 56.1608C227.791 56.5539 226.922 56.9469 225.974 57.1042C225.026 57.34 223.999 57.34 222.972 57.2614C222.498 57.1828 221.945 57.1042 221.47 56.9469C220.996 56.7897 220.522 56.6325 220.127 56.3967C219.258 56.0036 218.547 55.5319 217.994 55.0602C217.441 54.5886 216.967 54.1169 216.73 53.7238C216.572 53.5666 216.493 53.4094 216.493 53.2522C216.414 53.2522 216.414 53.3308 216.493 53.2522Z" fill="#DD9078"/>
<path d="M228.838 72.0092C228.838 72.0092 249.065 69.8866 251.672 85.2947C254.28 100.781 254.043 104.948 254.043 104.948L234.29 102.039L228.838 72.0092Z" fill="#6633CC"/>
<path d="M245.903 84.4292C244.717 74.6026 234.683 72.48 228.836 72.0084C226.229 75.6245 222.594 78.2187 217.617 78.376C211.928 78.5332 206.713 76.5679 203.948 72.2442C195.098 73.2662 186.328 75.7818 184.353 81.7563C180.165 94.3343 183.8 163.513 183.8 163.513C183.8 163.513 219.197 169.567 248.273 164.064C248.194 164.142 247.483 97.5575 245.903 84.4292Z" fill="#6633CC"/>
<path opacity="0.2" d="M182.301 115.403C182.459 138.201 183.802 163.593 183.802 163.593C183.802 163.593 219.199 169.646 248.275 164.143C248.275 164.143 247.722 113.595 246.537 91.898C225.125 99.8379 203.713 107.699 182.301 115.403Z" fill="#352C38"/>
<path d="M204.107 133.641C204.107 133.641 203.317 131.361 206.951 129.868C210.586 128.374 248.037 118.626 250.407 118.941C252.778 119.255 281.775 122.714 282.249 124.286C282.723 125.859 247.563 137.179 247.563 137.179L204.107 133.641Z" fill="#E1EDFF"/>
<path d="M249.539 140.166C249.539 140.166 208.532 140.009 205.372 136.314C202.211 132.619 202.132 129.947 220.068 133.091C238.004 136.236 248.354 135.764 248.354 135.764C248.354 135.764 281.223 120.513 282.329 124.208C283.356 127.981 286.832 127.038 249.539 140.166Z" fill="#C0D5FF"/>
<path d="M282.25 124.287C281.223 120.592 248.275 135.843 248.275 135.843C248.275 135.843 248.196 135.843 247.959 135.843C248.67 137.258 249.223 138.594 249.855 140.088C286.832 127.038 283.356 127.981 282.25 124.287Z" fill="#B1C5E8"/>
<path d="M202.922 125.23C202.922 125.23 202.132 122.95 205.766 121.456C209.401 119.963 246.852 110.215 249.222 110.529C251.593 110.844 280.59 114.303 281.064 115.875C281.538 117.447 246.378 128.767 246.378 128.767L202.922 125.23Z" fill="#E1EDFF"/>
<path d="M248.354 131.833C248.354 131.833 207.347 131.676 204.187 127.981C201.026 124.286 200.947 121.614 218.883 124.758C236.818 127.903 247.169 127.431 247.169 127.431C247.169 127.431 280.038 112.18 281.144 115.875C282.092 119.57 285.647 118.626 248.354 131.833Z" fill="#C0D5FF"/>
<path d="M281.065 115.954C280.038 112.259 247.09 127.51 247.09 127.51C247.09 127.51 247.011 127.51 246.774 127.51C247.485 128.925 248.038 130.261 248.67 131.755C285.568 118.626 282.092 119.57 281.065 115.954Z" fill="#B1C5E8"/>
<path d="M202.764 118.39C202.764 118.39 202.053 116.425 205.529 115.089C209.006 113.752 245.272 105.184 247.563 105.498C249.854 105.812 277.903 108.878 278.378 110.215C278.852 111.551 244.798 121.614 244.798 121.614L202.764 118.39Z" fill="#E1EDFF"/>
<path d="M246.695 124.208C246.695 124.208 207.031 124.05 203.95 120.827C200.868 117.604 200.868 115.246 218.172 117.997C235.475 120.749 245.51 120.356 245.51 120.356C245.51 120.356 277.351 106.913 278.378 110.215C279.405 113.438 282.803 112.573 246.695 124.208Z" fill="#C0D5FF"/>
<path d="M278.378 110.214C277.351 106.991 245.51 120.355 245.51 120.355C245.51 120.355 245.431 120.355 245.193 120.355C245.826 121.535 246.458 122.792 247.011 124.05C282.803 112.573 279.405 113.437 278.378 110.214Z" fill="#B1C5E8"/>
<path d="M203.87 109.193C203.87 109.193 203.238 107.228 206.794 105.97C210.349 104.791 246.852 97.5582 249.144 97.9512C251.435 98.2657 279.326 102.432 279.721 103.769C280.116 105.105 245.746 113.831 245.746 113.831L203.87 109.193Z" fill="white"/>
<path d="M247.564 116.66C247.564 116.66 207.9 115.009 204.977 111.708C202.053 108.327 202.053 106.047 219.278 109.428C236.502 112.808 246.537 112.808 246.537 112.808C246.537 112.808 278.852 100.623 279.721 103.846C280.67 107.069 284.067 106.362 247.564 116.66Z" fill="#C0D5FF"/>
<path d="M279.721 103.847C278.852 100.545 246.537 112.809 246.537 112.809C246.537 112.809 246.458 112.809 246.221 112.809C246.853 114.067 247.406 115.325 247.88 116.582C283.988 106.363 280.59 107.07 279.721 103.847Z" fill="#B1C5E8"/>
<path d="M183.249 110.686L202.765 105.97C202.765 105.97 206.952 134.27 208.059 135.843C209.165 137.415 241.796 138.987 241.796 138.987L251.278 139.537C251.278 139.537 211.219 156.282 199.683 149.521C187.99 142.603 183.249 110.686 183.249 110.686Z" fill="#FFB39F"/>
<path d="M185.145 114.067C191.15 112.259 196.997 110.058 203.16 108.721C202.923 106.992 202.765 105.97 202.765 105.97L183.249 110.686C183.249 110.686 183.486 112.102 183.881 114.46C184.355 114.303 184.75 114.145 185.145 114.067Z" fill="#E09B8D"/>
<path d="M247.643 142.132C247.643 142.132 262.497 138.201 262.497 135.214C262.497 132.226 257.125 121.456 260.917 135.843C260.917 135.843 253.016 116.347 259.337 136.786C259.337 136.786 253.174 120.906 257.362 137.179C257.362 137.179 251.041 126.173 255.623 137.965L249.935 140.088L236.266 139.93L228.997 147.006L247.643 142.132Z" fill="#FFB39F"/>
<path d="M282.408 127.745C282.408 127.745 274.507 108.249 280.828 128.689C280.828 128.689 274.665 112.809 278.853 129.082C278.853 129.082 272.532 118.076 276.561 129.947L272.216 131.99C273.796 132.148 275.85 132.069 277.51 131.519C282.566 130.497 283.988 128.767 283.988 127.195C283.988 124.208 278.616 113.438 282.408 127.745Z" fill="#FFB39F"/>
<path d="M302.556 334.654C302.556 337.484 300.264 339.842 297.42 339.921C294.575 339.921 292.205 337.641 292.126 334.811L291.889 318.145C291.889 315.315 294.18 312.956 297.025 312.878C299.869 312.878 302.24 315.158 302.319 317.988L302.556 334.654Z" fill="#091E1D"/>
<path d="M229.786 335.519C229.786 338.349 227.495 340.707 224.651 340.786C221.806 340.786 219.436 338.506 219.357 335.676L219.12 319.01C219.12 316.18 221.411 313.822 224.256 313.743C227.1 313.743 229.47 316.023 229.549 318.853L229.786 335.519Z" fill="#091E1D"/>
<path d="M296.709 322.783C296.788 329.229 291.573 334.496 285.094 334.575L236.423 335.125C229.944 335.204 224.651 330.015 224.572 323.569L219.357 213.354C219.278 206.908 224.493 201.641 230.971 201.563L287.464 200.855C293.943 200.776 299.237 205.965 299.316 212.411L296.709 322.783Z" fill="#322153"/>
<path d="M299 223.495L299.237 212.568C299.158 206.122 293.864 200.934 287.385 201.012L230.892 201.72C224.413 201.798 219.199 207.065 219.278 213.512L219.831 224.439L299 223.495Z" fill="#1C0C3B"/>
<path d="M308.639 209.817C308.639 211.625 307.217 213.04 305.4 213.119L213.115 214.219C211.298 214.219 209.875 212.804 209.796 210.996L209.638 199.361C209.638 197.553 211.061 196.138 212.878 196.06L305.163 194.959C306.98 194.959 308.402 196.374 308.481 198.182L308.639 209.817Z" fill="#322153"/>
<path d="M259.653 242.127L270.398 235.68L267.791 242.363L259.653 242.127Z" fill="white"/>
<path d="M255.623 231.986C255.623 231.986 256.492 231.986 257.835 234.029C259.179 236.073 262.181 241.576 262.181 241.576L267.633 239.139L268.897 237.017C268.897 237.017 266.527 232.3 264.63 231.986H255.623Z" fill="white"/>
<path d="M252.62 233.4C252.62 233.4 254.28 231.592 255.623 232.536C256.966 233.479 259.336 237.41 259.336 237.41L255.465 244.17L248.512 240.318L252.62 233.4Z" fill="white"/>
<path d="M264.551 250.538L265.104 262.959L260.443 257.535L264.551 250.538Z" fill="white"/>
<path d="M275.455 251.796C275.455 251.796 275.06 252.582 272.611 252.818C270.161 253.054 263.84 253.054 263.84 253.054L263.366 259.029L264.63 261.151C264.63 261.151 269.924 261.387 271.109 259.815L275.455 251.796Z" fill="white"/>
<path d="M275.534 248.494C275.534 248.494 276.403 250.774 274.902 251.56C273.48 252.268 268.818 252.425 268.818 252.425L264.63 245.821L271.346 241.498L275.534 248.494Z" fill="white"/>
<path d="M255.148 250.381L244.086 244.564L251.118 243.306L255.148 250.381Z" fill="white"/>
<path d="M248.512 259.107C248.512 259.107 248.038 258.399 249.065 256.198C250.092 253.997 253.252 248.573 253.252 248.573L248.354 245.193L245.904 245.271C245.904 245.271 243.06 249.752 243.771 251.482L248.512 259.107Z" fill="white"/>
<path d="M251.357 260.837C251.357 260.837 248.907 260.365 249.065 258.793C249.144 257.142 251.357 253.133 251.357 253.133L259.179 252.897L259.495 260.837H251.357Z" fill="white"/>
<defs>
<linearGradient id="paint0_linear" x1="252.235" y1="104.659" x2="592.12" y2="445.583" gradientUnits="userSpaceOnUse">
<stop stop-color="white"/>
<stop offset="1" stop-color="white" stop-opacity="0"/>
</linearGradient>
</defs>
</svg>
