<svg width="720" height="459" viewBox="0 0 720 459" fill="none" xmlns="http://www.w3.org/2000/svg">
<g clip-path="url(#clip0)">
<path opacity="0.1" d="M484.104 331.063C499.661 330.177 518.962 319.625 533.97 314.958C551.732 309.448 569.565 304.148 587.468 299.056C649.794 281.322 712.788 266.211 776.451 253.723C782.393 252.555 788.343 251.414 794.303 250.302C785.019 230.241 770.636 212.967 752.588 200.204C753.051 195.812 753.286 191.4 753.292 186.984C753.292 117.197 697.52 60.6222 628.697 60.6222C607.509 60.5996 586.676 66.0686 568.23 76.4957C519.518 44.453 455.94 25.0598 386.378 25.0598C287.533 25.0598 200.76 64.2192 151.59 123.187L382.675 162.227L524.404 186.16C362.832 190.982 200.76 195.776 39.6521 184.457C18.3851 205.035 4.92461 232.359 1.57098 261.761C-1.78265 291.163 5.17879 320.818 21.2656 345.656C21.2656 348.183 21.3712 350.689 21.5612 353.174C25.6651 354.349 29.6282 355.49 33.1831 356.236C90.2527 368.292 147.688 378.381 205.49 386.505C162.895 412.768 111.023 416.485 61.8891 427.607C85.6818 447.246 117.992 459.284 153.597 459.284H683.737C741.143 459.284 787.672 419.322 787.672 370.019C796.286 355.814 802.027 340.055 804.566 323.637C698.344 333.893 590.798 324.989 484.104 331.063Z" fill="#6C63FF"/>
<path opacity="0.1" d="M805.292 302.639C805.349 282.319 800.518 262.284 791.207 244.223C781.896 226.163 768.378 210.606 751.794 198.866C752.252 194.477 752.487 190.067 752.498 185.653C752.498 115.866 696.697 59.3128 627.903 59.3128C606.713 59.2901 585.878 64.7564 567.428 75.1793C518.717 43.1225 455.131 23.7223 385.569 23.7223C272.42 23.7223 175.025 75.0737 131.832 148.711C129.432 148.571 127.017 148.493 124.581 148.493C55.7797 148.493 -0.0134286 205.068 -0.0134286 274.855C-0.0616529 299.505 7.06035 323.637 20.4849 344.311C20.4849 407.101 79.7484 458.002 152.823 458.002H682.978C740.376 458.002 786.905 418.033 786.905 368.73C798.978 348.802 805.338 325.938 805.292 302.639Z" fill="#6C63FF"/>
<path d="M657.664 225.221C656.657 224.448 655.479 223.931 654.229 223.715C652.912 223.412 651.568 223.222 650.23 223.011L632.9 220.512C631.15 220.187 629.366 220.092 627.592 220.23C626.702 220.303 625.836 220.552 625.043 220.963C624.25 221.374 623.547 221.938 622.974 222.624C622.458 223.261 622.175 224.056 622.172 224.876C622.268 225.702 622.537 226.498 622.96 227.213C623.128 227.547 623.271 227.893 623.39 228.248C623.555 229.044 623.762 229.831 624.009 230.606C624.086 230.774 624.185 230.93 624.305 231.071C624.308 231.11 624.308 231.15 624.305 231.19C624.115 232.162 624.727 233.175 624.453 234.112C624.213 234.914 623.432 235.4 622.939 236.069C622.61 236.543 622.428 237.103 622.416 237.68C622.403 238.257 622.561 238.825 622.869 239.314C623.397 240.13 624.354 240.686 624.628 241.622C624.988 242.854 624.016 244.044 623.15 244.994C621.557 246.744 620.085 248.599 618.744 250.548C618.367 251.028 618.124 251.598 618.04 252.202C617.962 253.427 619.138 254.504 618.934 255.722C618.772 256.679 617.836 257.264 617.026 257.834C614.034 259.805 611.634 262.973 611.395 266.556C610.627 260.855 608.265 255.487 604.581 251.069C603.574 249.858 602.469 248.641 602.054 247.106C601.899 246.494 601.871 245.839 601.659 245.248C600.955 243.382 598.717 242.58 597.739 240.862C597.035 239.652 597.035 238.096 596.162 237.033C595.289 235.97 593.916 235.731 593.163 234.703C592.787 234.007 592.467 233.282 592.206 232.535C591.89 231.926 591.446 231.393 590.903 230.972C590.8 230.889 590.692 230.812 590.58 230.74C590.697 230.635 590.79 230.507 590.854 230.364C590.919 230.221 590.952 230.066 590.953 229.909C590.953 229.086 590.136 228.544 589.425 228.135C588.51 227.614 587.616 227.051 586.743 226.467C587.695 226.024 588.521 225.348 589.144 224.503C589.925 223.242 590.248 221.751 590.059 220.279C590.011 219.092 589.567 217.955 588.799 217.048C588.355 216.577 587.799 216.239 587.335 215.795C586.131 214.62 585.723 212.881 585.223 211.276C584.561 209.164 583.526 206.947 581.597 205.828C580.668 205.286 579.584 205.032 578.676 204.462C577.768 203.892 577.008 202.815 577.325 201.78C577.536 201.076 578.191 200.591 578.634 199.992C579.163 199.219 579.367 198.267 579.199 197.345C579.032 196.423 578.507 195.603 577.74 195.065C577.219 194.734 576.579 194.445 576.473 193.84C576.065 193.734 575.696 193.516 575.407 193.209C575.118 192.903 574.922 192.521 574.84 192.108C574.682 191.281 574.682 190.43 574.84 189.602C575.023 188.293 575.204 186.988 575.382 185.689C575.692 185.817 576.024 185.884 576.36 185.884C576.696 185.884 577.029 185.817 577.339 185.689C577.948 186.677 578.655 187.602 579.451 188.448C581.594 190.979 583.263 193.877 584.378 197.001C584.779 198.127 585.188 199.387 586.229 199.985C586.588 200.189 586.997 200.295 587.349 200.513C587.783 200.816 588.155 201.198 588.447 201.64C589.291 202.759 590.136 203.871 590.974 204.99L591.016 205.159C591.039 205.258 591.077 205.353 591.129 205.441C591.285 205.616 591.501 205.727 591.734 205.75C594.325 206.349 597.232 206.898 599.477 205.483C601.505 204.216 602.392 201.71 604.109 200.035C605.327 198.845 607.051 197.923 607.396 196.247C606.985 196.121 606.581 195.973 606.186 195.804C606.538 195.452 606.89 195.044 607.368 194.579C608.064 193.898 608.691 193.151 609.241 192.348C609.835 191.357 610.308 190.298 610.649 189.194C612.005 185.327 613.366 181.458 614.731 177.586C615.379 175.756 616.027 173.912 616.843 172.131C617.688 170.202 618.687 168.351 619.609 166.457C621.989 161.533 623.826 156.364 625.086 151.041C625.31 150.315 625.384 149.551 625.304 148.796C625.107 147.578 624.185 146.621 623.305 145.755C622.42 144.797 621.412 143.961 620.306 143.27C619.751 142.925 619.133 142.693 618.488 142.59C617.842 142.486 617.183 142.511 616.547 142.665C614.745 143.193 613.612 145.037 613.197 146.888C612.781 148.739 612.936 150.647 612.76 152.52C612.507 155.23 611.578 157.848 611.352 160.565C611.233 162.135 611.352 163.726 611.162 165.296C610.816 167.35 610.101 169.325 609.051 171.124C606.768 175.416 603.677 179.226 599.949 182.345C599.519 182.704 599.076 183.049 598.654 183.436C598.654 183.133 598.703 182.824 598.745 182.521C598.439 182.601 598.14 182.707 597.851 182.838C597.887 182.482 597.851 182.123 597.746 181.782C597.182 180.099 594.676 179.67 594.226 177.959C594.151 177.536 594.111 177.108 594.106 176.678C593.958 175.179 592.938 173.912 592.586 172.455C592.262 171.11 592.508 169.639 591.882 168.393C591.348 167.614 590.719 166.905 590.009 166.281C589.164 165.315 588.554 164.166 588.229 162.924C588.137 162.579 588.053 162.22 587.954 161.875C588.061 161.094 587.974 160.298 587.701 159.559C587.06 157.968 585.406 156.947 584.807 155.335C584.343 154.082 584.547 152.52 583.667 151.548C583.199 151.084 582.627 150.739 581.999 150.542C578.777 149.287 575.396 148.488 571.954 148.169C570.025 147.993 567.899 147.895 566.519 146.536C564.907 144.959 564.83 142.123 562.943 140.905C561.282 139.828 558.931 140.623 557.643 142.137C557.449 142.359 557.271 142.594 557.108 142.841C556.873 141.897 556.823 140.917 556.96 139.954C556.96 139.715 557.009 139.469 557.031 139.251C560.209 138.212 562.914 136.076 564.661 133.225C564.661 133.225 564.661 133.225 564.661 133.267L564.746 133.485C564.95 133.999 565.273 134.492 565.752 134.548C566.071 134.544 566.378 134.433 566.625 134.232C567.05 133.936 567.441 133.597 567.794 133.218C567.972 133.021 568.141 132.817 568.3 132.605C568.625 132.166 568.903 131.694 569.131 131.198C569.481 130.451 569.718 129.656 569.835 128.839C569.962 128.023 569.976 127.185 570.116 126.369C570.248 125.737 570.42 125.114 570.63 124.503C570.701 124.299 570.771 124.095 570.834 123.891C570.898 123.687 570.989 123.412 571.06 123.187C571.5 121.739 571.737 120.237 571.764 118.724C571.764 118.471 571.764 118.217 571.764 117.964C571.738 116.976 571.516 116.004 571.11 115.103C570.703 114.203 570.122 113.392 569.398 112.72C568.188 111.727 566.583 111.312 565.696 109.967C565.119 109.066 564.992 107.905 564.654 106.849C564.289 105.585 563.577 104.449 562.599 103.57C561.621 102.69 560.416 102.102 559.121 101.872C557.562 101.701 555.996 102.132 554.743 103.076L554.644 103.153C553.946 103.686 553.354 104.345 552.898 105.096C551.968 104.84 551.117 104.356 550.421 103.688C549.717 103.034 549.175 102.21 548.464 101.576C547.799 100.968 546.984 100.549 546.102 100.363C545.221 100.178 544.305 100.232 543.452 100.521C542.573 100.873 541.79 101.428 541.167 102.142C540.544 102.855 540.099 103.706 539.869 104.624C539.482 106.075 539.552 107.743 538.743 108.954C538.116 109.897 537.088 110.361 536.37 111.22C535.924 111.764 535.62 112.41 535.483 113.1C535.398 113.486 535.358 113.88 535.364 114.275C535.364 114.451 535.364 114.627 535.406 114.796C535.406 114.796 535.406 114.852 535.406 114.881C535.431 115.074 535.471 115.264 535.526 115.451C535.726 116.164 536.084 116.824 536.574 117.38C537.039 117.912 537.619 118.331 538.271 118.604C538.537 118.708 538.81 118.795 539.087 118.865L539.925 119.055L540.221 119.125C539.21 121.023 538.649 123.128 538.58 125.277C538.512 127.427 538.938 129.563 539.827 131.521C539.827 131.719 539.777 131.916 539.756 132.113C539.642 134.885 539.764 137.661 540.122 140.412C540.221 141.503 540.277 142.707 539.608 143.573C539.304 143.913 538.961 144.218 538.588 144.481C538.968 143.988 539.355 143.502 539.749 143.017C538.757 142.017 537.187 141.89 535.779 141.989C533.054 142.192 530.409 143 528.036 144.354C526.459 145.262 524.84 146.466 523.038 146.255C521.975 146.135 520.926 145.551 519.891 145.832C519.31 146.07 518.767 146.393 518.279 146.79C517.894 147.066 517.43 147.209 516.956 147.198C515.851 145.839 514.14 144.917 512.817 143.812C511.311 142.471 509.932 140.994 508.699 139.398C506.418 136.646 504.145 133.887 501.906 131.106C500.02 128.769 498.084 126.242 497.753 123.25C497.719 122.954 497.703 122.655 497.704 122.356C497.749 120.935 497.929 119.521 498.239 118.133C498.322 117.798 498.322 117.447 498.239 117.112C498.027 116.408 497.218 116.148 496.521 115.993C496.613 115.451 496.676 114.895 496.711 114.367C497.105 108.313 496.676 102.161 497.957 96.2336C498.443 93.9529 499.238 91.644 500.878 89.9898C503.448 87.3923 507.749 86.7658 509.72 83.6897C511.367 81.1274 510.712 77.5022 508.643 75.2426C506.573 72.983 503.384 72.0608 500.35 72.1735C499.499 72.1442 498.658 72.3697 497.936 72.8211C497.261 73.4208 496.756 74.1881 496.472 75.0455L493.452 82.3874C492.576 84.2989 491.838 86.2702 491.242 88.2863C490.397 91.3695 490.207 94.6216 489.538 97.733C489.538 100.126 487.996 103.111 487.152 105.314C486.209 107.792 485.188 110.242 484.336 112.769C484.125 113.402 483.386 115.282 482.928 116.992C482.755 117.093 482.595 117.214 482.45 117.351C482.082 117.822 481.748 118.319 481.45 118.837C480.809 119.681 479.768 120.132 479.064 120.948C478.36 121.765 478.212 123.264 479.19 123.673C479.389 123.739 479.594 123.784 479.803 123.806C479.931 123.817 480.058 123.838 480.183 123.87C481.239 124.165 481.654 125.496 481.499 126.594C481.344 127.692 480.795 128.706 480.704 129.804C480.514 131.747 481.654 133.556 482.752 135.189C483.889 136.959 485.145 138.65 486.511 140.25C487.504 141.362 488.623 142.362 489.623 143.432C493.431 147.346 496.458 151.921 499.879 156.173C501.109 157.778 502.509 159.246 504.053 160.551C505.061 161.34 506.117 162.066 507.214 162.726L513.098 166.457C513.766 166.946 514.521 167.302 515.323 167.506C515.585 167.541 515.85 167.541 516.111 167.506C516.146 167.682 516.175 167.851 516.217 168.027C516.674 169.871 517.681 171.547 517.794 173.426C517.906 175.306 517.737 177.227 517.871 179.128C517.998 180.881 518.385 182.648 518.484 184.372C518.681 187.695 517.864 190.975 517.076 194.227C515.886 198.986 515.168 203.843 512.852 208.158C512.204 209.348 511.444 210.558 511.444 211.917C511.444 212.079 511.444 212.248 511.486 212.41L510.431 213.008C510.121 213.184 509.811 213.36 509.53 213.543C508.192 214.416 506.763 215.38 506.214 216.887C505.771 218.104 505.975 219.498 505.44 220.681C505.414 220.734 505.386 220.785 505.355 220.836C504.792 221.934 503.673 222.75 503.419 223.954C503.229 224.876 503.595 225.855 503.419 226.77C503.419 226.77 503.419 226.77 503.419 226.805C503.259 227.264 503.132 227.735 503.039 228.213C503.032 228.369 503.046 228.525 503.082 228.677C503.216 229.211 503.511 229.69 503.926 230.05C504.18 230.293 504.456 230.513 504.75 230.705C505.05 230.902 505.36 231.085 505.679 231.254L505.862 231.352C506.13 231.493 506.397 231.627 506.672 231.753L506.855 231.831C507.171 231.972 507.495 232.098 507.819 232.211L508.044 232.281C508.298 232.366 508.558 232.443 508.819 232.507L508.995 232.563L509.156 232.598L509.86 232.746L510.121 232.795C510.431 232.847 510.747 232.889 511.071 232.922H511.353C511.592 232.922 511.824 232.957 512.057 232.964H512.388C512.634 232.964 512.873 232.964 513.091 232.964H513.345C513.676 232.964 514.007 232.915 514.337 232.873H514.443C514.739 232.83 515.034 232.781 515.33 232.718L515.555 232.669C515.83 232.605 516.104 232.542 516.379 232.457L516.527 232.415C516.857 232.317 517.188 232.211 517.512 232.084C518.633 231.624 519.719 231.085 520.764 230.472C521.468 230.085 522.172 229.691 522.876 229.332C523.398 229.069 523.934 228.834 524.481 228.628C525.812 228.059 527.261 227.818 528.705 227.924C529.417 228.021 530.122 228.165 530.816 228.354C530.816 228.431 530.816 228.508 530.816 228.586C531.389 231.965 531.954 235.343 532.513 238.722C533.434 238.059 534.409 237.473 535.427 236.97C535.237 237.48 535.111 238.012 535.054 238.553C535.012 238.972 535.012 239.394 535.054 239.813C535.117 240.482 535.258 241.221 534.857 241.749C534.61 242.073 534.153 242.256 534.019 242.622C533.921 242.996 533.898 243.386 533.949 243.769C533.92 244.207 533.735 244.62 533.427 244.932C533.12 245.245 532.71 245.437 532.273 245.473C532.475 246.04 532.48 246.658 532.287 247.227C532.094 247.797 531.715 248.285 531.211 248.613C530.916 248.754 530.641 248.934 530.394 249.147C530.153 249.458 529.991 249.823 529.922 250.21C528.992 253.696 527.079 256.841 524.411 259.27C523.41 260.056 522.496 260.949 521.686 261.931C521.186 262.691 520.773 263.506 520.455 264.359C518.577 268.949 516.672 273.541 514.739 278.135C513.669 280.704 512.627 283.316 512.289 286.082C511.444 293.671 504.687 300.105 505.954 307.637C506.21 309.518 506.968 311.296 508.15 312.782C509.558 314.479 511.67 315.45 513.781 316.239C519.209 318.35 524.931 319.505 530.633 320.666L539.587 322.504C541.344 322.908 543.127 323.19 544.923 323.348C547.084 323.496 549.301 323.292 551.406 323.841C552.708 324.179 553.954 324.805 555.299 324.876C556.453 324.939 557.875 324.693 558.558 325.636C559.241 326.579 558.713 327.825 559.361 328.663C560.402 329.993 562.943 328.663 564.077 329.916C564.386 330.397 564.624 330.921 564.781 331.472C564.953 331.812 565.192 332.114 565.485 332.359C565.554 332.756 565.582 333.159 565.569 333.562C565.422 335.197 565.082 336.808 564.555 338.363C563.711 341.221 562.868 344.081 562.028 346.944C561.708 347.955 561.472 348.991 561.324 350.041C561.272 350.551 561.272 351.066 561.324 351.576C561.472 353.131 562.366 354.736 563.852 355.243C565.004 355.548 566.229 355.397 567.273 354.821C568.28 354.295 569.224 353.658 570.088 352.92C571.647 351.741 573.017 350.331 574.15 348.739C577.67 343.474 576.529 336.35 579 330.528C580.64 326.643 583.836 323.489 584.899 319.392C585.148 318.613 585.177 317.78 584.983 316.985C584.54 315.577 583.041 314.774 581.64 314.268H581.576C580.426 313.858 579.25 313.522 578.057 313.261C577.761 313.198 577.458 313.148 577.156 313.099C576.486 312.554 575.953 311.86 575.6 311.072C575.545 310.653 575.434 310.243 575.269 309.854C575.157 309.686 575.007 309.548 574.831 309.45C574.654 309.352 574.457 309.297 574.256 309.291C573.552 309.221 572.608 309.474 571.841 309.418C570.271 309.305 569.23 307.763 567.822 307.052C566.414 306.341 564.886 306.517 563.387 306.623C562.851 306.696 562.305 306.663 561.782 306.524C561.157 306.237 560.585 305.844 560.093 305.363C559.226 304.689 558.215 304.225 557.139 304.009C556.062 303.793 554.951 303.83 553.891 304.117C553.217 304.389 552.504 304.551 551.779 304.596C550.407 304.518 549.435 303.293 548.422 302.364C545.648 299.823 541.699 299.154 538.334 297.486C537.819 297.294 537.39 296.925 537.123 296.444C536.736 295.487 537.609 294.53 538.398 293.875L544.184 289.067C550.519 283.802 558.438 279.839 561.381 272.117C561.688 271.081 562.163 270.104 562.789 269.223C563.016 268.955 563.279 268.718 563.57 268.52C564.85 267.69 566.401 267.387 567.899 267.675C569.725 268.083 571.455 268.839 572.996 269.899C575.516 271.424 577.968 273.067 580.352 274.827C582.713 276.514 584.959 278.358 587.074 280.345C590.77 283.865 593.846 288.039 597.288 291.834C600.73 295.628 604.665 299.168 609.445 300.985C614.225 302.801 620.004 302.723 624.108 299.675C628.845 296.156 630.366 289.863 631.562 284.09C634.202 281.542 634.997 277.664 636.286 274.235C637.095 272.06 638.13 270.012 639.003 267.844C640.045 265.296 640.861 262.663 641.678 260.037C642.603 257.401 643.231 254.669 643.55 251.893C643.888 247.507 642.712 242.84 643.944 238.722C645.57 238.363 647.049 237.448 648.646 236.913C651.026 236.132 653.574 236.259 656.094 236.273H656.256C657.124 236.365 657.998 236.159 658.734 235.688C659.578 234.984 659.712 233.781 659.754 232.69C659.853 229.994 659.684 226.967 657.664 225.221ZM555.672 105.145C555.09 105.289 554.488 105.332 553.891 105.272L555.672 105.145Z" fill="url(#paint0_linear)"/>
<path d="M558.446 149.676C557.593 150.4 556.594 150.93 555.517 151.231L550.526 153.019C547.816 153.991 544.986 154.969 542.129 154.617C540.531 154.42 533.681 153.414 532.647 152.168C531.07 150.239 536.596 147.402 538.482 145.776C538.91 145.469 539.306 145.12 539.665 144.734C540.369 143.875 540.277 142.672 540.179 141.588C539.821 138.841 539.698 136.07 539.813 133.302C539.867 132.643 539.962 131.987 540.094 131.339C540.798 128.1 543.811 129.283 546.19 130.142C549.054 131.072 551.824 132.272 554.461 133.725C555.265 134.139 555.963 134.731 556.503 135.456C557.545 137.033 557.129 139.103 556.96 141.088C556.812 142.629 556.819 144.108 557.784 145.227C558.269 145.655 558.714 146.126 559.114 146.635C559.34 147.147 559.396 147.718 559.276 148.264C559.156 148.811 558.865 149.305 558.446 149.676Z" fill="#BE6F72"/>
<path d="M489.503 98.9438C490.207 95.8254 490.362 92.6084 491.207 89.5182C491.803 87.5089 492.542 85.5447 493.417 83.6404L496.522 76.397C496.806 75.5417 497.311 74.7768 497.986 74.1797C498.71 73.7314 499.549 73.5062 500.4 73.532C503.434 73.4194 506.623 74.3627 508.692 76.5941C510.762 78.8256 511.417 82.4367 509.769 84.992C507.798 88.0681 503.498 88.6876 500.928 91.278C499.288 92.9323 498.493 95.2341 498.007 97.5078C496.726 103.421 497.155 109.552 496.761 115.592C496.634 117.471 496.268 119.618 494.649 120.589C493.671 121.069 492.582 121.28 491.496 121.202L486.878 121.279C486.103 121.279 483.295 121.765 482.781 121.181C481.88 120.16 483.935 115.078 484.308 113.944C485.139 111.431 486.16 108.982 487.124 106.511C487.962 104.308 489.503 101.33 489.503 98.9438Z" fill="#BE6F72"/>
<path d="M584.85 320.089C583.788 324.158 580.592 327.326 578.952 331.204C576.481 337.012 577.593 344.114 574.101 349.365C572.969 350.96 571.599 352.373 570.04 353.554C569.175 354.289 568.231 354.924 567.224 355.447C566.181 356.023 564.955 356.174 563.803 355.87C562.318 355.363 561.424 353.758 561.276 352.209C561.223 351.702 561.223 351.19 561.276 350.682C561.424 349.634 561.659 348.6 561.98 347.592C562.825 344.743 563.667 341.89 564.507 339.032C565.033 337.482 565.373 335.875 565.521 334.245C565.612 332.471 564.486 330.162 564.965 328.508C565.183 327.762 565.999 327.1 566.372 326.474C566.902 325.572 567.309 324.604 567.583 323.595C568.16 321.631 568.555 319.533 569.765 317.879C570.555 316.898 571.479 316.033 572.511 315.309C573.272 314.642 574.164 314.141 575.129 313.838C576.066 313.674 577.028 313.719 577.945 313.972C579.139 314.227 580.315 314.561 581.465 314.972H581.528C582.936 315.478 584.428 316.26 584.872 317.682C585.087 318.471 585.08 319.304 584.85 320.089Z" fill="#3F3D56"/>
<path d="M659.747 233.549C659.705 234.64 659.571 235.857 658.726 236.54C657.991 237.011 657.117 237.217 656.249 237.124H656.058C653.545 237.124 650.99 236.984 648.611 237.765C646.802 238.363 645.141 239.462 643.254 239.68C640.657 239.975 638.214 238.553 635.912 237.315C633.745 236.147 631.52 235.09 629.246 234.147C627.754 233.534 624.706 233.14 623.988 231.507C623.742 230.734 623.535 229.95 623.368 229.156C623.25 228.801 623.106 228.455 622.939 228.121C622.517 227.408 622.248 226.614 622.15 225.791C622.153 224.971 622.436 224.176 622.953 223.539C623.527 222.859 624.23 222.299 625.021 221.892C625.813 221.485 626.677 221.238 627.564 221.166C629.337 221.029 631.122 221.123 632.871 221.448L650.202 223.94C651.539 224.13 652.884 224.32 654.2 224.644C655.45 224.861 656.629 225.378 657.635 226.15C659.684 227.868 659.853 230.888 659.747 233.549Z" fill="#3F3D56"/>
<path d="M644.514 238.054C642.403 242.51 643.923 247.782 643.543 252.709C643.224 255.479 642.596 258.203 641.67 260.833C640.854 263.451 640.037 266.077 638.996 268.618C638.123 270.73 637.088 272.842 636.278 274.996C634.99 278.431 634.167 282.295 631.555 284.851C630.358 290.609 628.838 296.902 624.1 300.393C619.983 303.434 614.246 303.54 609.438 301.703C604.63 299.865 600.723 296.346 597.281 292.552C593.839 288.757 590.763 284.625 587.067 281.092C584.949 279.104 582.698 277.262 580.33 275.58C577.946 273.848 575.494 272.22 572.974 270.695C571.432 269.639 569.702 268.886 567.878 268.477C566.38 268.19 564.829 268.493 563.549 269.322C563.258 269.521 562.995 269.757 562.767 270.026C562.141 270.903 561.665 271.878 561.36 272.912C558.403 280.613 550.47 284.569 544.134 289.82L538.348 294.614C537.56 295.269 536.687 296.226 537.074 297.176C537.34 297.657 537.77 298.027 538.285 298.218C541.65 299.88 545.599 300.548 548.372 303.082C549.386 304.012 550.357 305.236 551.73 305.307C552.455 305.264 553.168 305.105 553.842 304.835C554.901 304.549 556.012 304.511 557.088 304.726C558.164 304.941 559.175 305.403 560.043 306.074C560.536 306.555 561.107 306.948 561.733 307.236C562.256 307.374 562.801 307.407 563.338 307.334C564.837 307.229 566.428 307.095 567.772 307.763C569.117 308.432 570.222 310.009 571.792 310.122C572.559 310.178 573.474 309.925 574.206 309.995C574.408 310.001 574.605 310.056 574.781 310.154C574.958 310.252 575.108 310.39 575.22 310.558C575.384 310.945 575.495 311.352 575.551 311.769C575.839 312.761 576.811 313.367 577.444 314.183C578.416 315.436 578.556 317.14 578.458 318.724C578.139 323.676 575.932 328.317 572.292 331.69C571.258 332.746 569.94 333.48 568.497 333.802C567.775 333.953 567.023 333.873 566.349 333.574C565.674 333.274 565.111 332.77 564.738 332.133C564.581 331.585 564.344 331.063 564.035 330.585C562.901 329.339 560.36 330.662 559.318 329.332C558.671 328.501 559.135 327.171 558.516 326.312C557.896 325.453 556.404 325.608 555.257 325.559C553.912 325.488 552.666 324.855 551.364 324.524C549.252 323.975 547.042 324.179 544.881 324.031C543.085 323.873 541.302 323.591 539.545 323.186L530.591 321.356C524.889 320.195 519.166 319.019 513.739 316.943C511.662 316.154 509.572 315.183 508.108 313.493C506.927 312.009 506.169 310.234 505.911 308.355C504.637 300.844 511.395 294.424 512.247 286.857C512.549 284.097 513.655 281.493 514.696 278.931C516.606 274.35 518.512 269.768 520.412 265.183C520.72 264.329 521.121 263.512 521.609 262.747C522.419 261.767 523.332 260.878 524.333 260.094C527.001 257.673 528.914 254.535 529.845 251.055C529.914 250.668 530.076 250.303 530.316 249.992C530.566 249.783 530.84 249.606 531.133 249.464C531.636 249.137 532.014 248.65 532.207 248.082C532.4 247.514 532.396 246.898 532.196 246.332C532.633 246.296 533.042 246.104 533.35 245.791C533.657 245.479 533.842 245.066 533.871 244.628C533.82 244.247 533.844 243.86 533.942 243.488C534.111 243.122 534.533 242.939 534.779 242.615C535.181 242.087 535.04 241.348 534.976 240.686C534.934 240.267 534.934 239.845 534.976 239.426C535.131 237.936 535.797 236.545 536.863 235.491C538.545 233.837 540.939 234.267 543.262 233.872C545.579 233.372 547.842 232.648 550.019 231.711C556.127 229.305 562.558 227.817 569.103 227.298C575.68 226.78 582.285 227.832 588.376 230.367C589.262 230.726 590.098 231.199 590.861 231.775C591.403 232.192 591.847 232.723 592.163 233.33C592.423 234.076 592.743 234.798 593.121 235.491C593.874 236.519 595.296 236.85 596.119 237.821C596.943 238.793 597.013 240.433 597.696 241.637C598.675 243.354 600.941 244.15 601.617 246.015C601.828 246.606 601.856 247.254 602.011 247.866C602.391 249.401 603.532 250.612 604.538 251.822C608.229 256.236 610.591 261.606 611.352 267.309C611.578 263.74 613.978 260.579 616.984 258.608C617.793 258.08 618.73 257.496 618.891 256.539C619.096 255.328 617.92 254.251 617.997 253.019C618.083 252.418 618.326 251.849 618.701 251.372C620.043 249.428 621.515 247.577 623.108 245.832C623.974 244.882 624.945 243.72 624.586 242.467C624.312 241.531 623.354 240.982 622.826 240.165C622.518 239.679 622.361 239.112 622.373 238.536C622.386 237.96 622.568 237.4 622.897 236.927C623.39 236.259 624.171 235.773 624.41 234.978C624.685 234.041 624.072 233.028 624.262 232.063C624.52 231.291 625.031 230.629 625.712 230.184C626.646 229.333 627.708 228.635 628.859 228.114C630.717 227.41 632.787 227.671 634.758 227.945C638.052 228.403 641.748 229.107 643.606 231.866C644.796 233.591 645.401 236.209 644.514 238.054Z" fill="#65617D"/>
<path opacity="0.1" d="M659.749 233.549C659.706 234.64 659.573 235.857 658.728 236.54C657.992 237.011 657.119 237.217 656.25 237.124H656.06C656.349 235.66 658.13 234.823 658.439 233.337C658.492 232.881 658.451 232.419 658.318 231.979C658.185 231.54 657.962 231.132 657.665 230.782C656.159 228.748 653.737 227.621 651.33 226.798C644.529 224.466 637.242 223.921 630.17 225.214C628.247 225.527 626.375 226.103 624.609 226.925C624.023 227.291 623.459 227.69 622.919 228.121C622.497 227.408 622.228 226.614 622.131 225.791C622.134 224.971 622.417 224.176 622.933 223.539C623.508 222.859 624.211 222.299 625.002 221.892C625.793 221.485 626.657 221.238 627.544 221.166C629.318 221.029 631.102 221.123 632.852 221.448L650.182 223.94C651.52 224.13 652.864 224.32 654.181 224.644C655.431 224.861 656.609 225.378 657.616 226.15C659.685 227.868 659.854 230.888 659.749 233.549Z" fill="black"/>
<path opacity="0.1" d="M584.85 320.089C583.788 324.158 580.592 327.326 578.952 331.204C576.481 337.012 577.593 344.114 574.101 349.366C572.969 350.961 571.599 352.373 570.04 353.554C569.175 354.289 568.231 354.924 567.224 355.448C566.181 356.023 564.955 356.174 563.803 355.87C562.318 355.363 561.424 353.758 561.276 352.21C561.223 351.702 561.223 351.19 561.276 350.682L561.318 350.795C561.931 352.273 562.93 353.821 564.507 354.082C565.099 354.125 565.693 354.045 566.253 353.847C566.812 353.65 567.325 353.339 567.759 352.935C570.082 351.069 571.434 348.289 572.722 345.607C573.73 343.673 574.528 341.636 575.101 339.532C575.383 338.335 575.516 337.11 575.805 335.914C577.142 330.099 581.697 325.355 582.703 319.463C582.785 319.058 582.804 318.642 582.76 318.231C582.627 317.695 582.423 317.179 582.154 316.696C581.91 316.152 581.73 315.58 581.619 314.993C583.027 315.5 584.52 316.281 584.963 317.703C585.145 318.494 585.106 319.319 584.85 320.089Z" fill="black"/>
<path opacity="0.1" d="M574.221 309.995C573.57 311.698 572.474 313.196 571.047 314.331C569.043 315.858 566.697 316.873 564.212 317.288C563.055 317.583 561.841 317.568 560.692 317.245C559.129 316.703 558.003 315.239 556.405 314.817C555.265 314.507 554.04 314.782 552.885 314.613C550.809 314.324 549.197 312.74 547.522 311.473C542.39 307.616 535.653 306.37 530.522 302.512C530.293 302.372 530.104 302.176 529.973 301.942C529.874 301.689 529.838 301.416 529.867 301.147C529.886 298.807 530.412 296.499 531.409 294.382C532.225 292.905 533.197 291.52 534.309 290.25C538.905 284.618 543.523 278.945 549.028 274.193C551.337 272.201 553.857 270.343 556.771 269.442C558.39 268.942 561.586 268.47 563.557 269.315C563.266 269.514 563.003 269.75 562.776 270.019C562.149 270.896 561.673 271.871 561.368 272.905C558.404 280.613 550.471 284.569 544.136 289.82L538.349 294.614C537.561 295.269 536.688 296.226 537.075 297.176C537.342 297.657 537.771 298.027 538.286 298.218C541.651 299.88 545.6 300.548 548.373 303.082C549.387 304.012 550.358 305.236 551.731 305.307C552.456 305.264 553.169 305.105 553.843 304.835C554.902 304.549 556.013 304.511 557.089 304.726C558.165 304.941 559.177 305.403 560.044 306.074C560.537 306.555 561.109 306.948 561.734 307.236C562.257 307.374 562.803 307.407 563.339 307.334C564.838 307.229 566.429 307.095 567.774 307.764C569.118 308.432 570.223 310.009 571.793 310.122C572.574 310.178 573.489 309.91 574.221 309.995Z" fill="black"/>
<path d="M509.481 214.458C508.143 215.317 506.721 216.288 506.172 217.78C505.722 218.998 505.933 220.392 505.391 221.575C504.849 222.757 503.631 223.581 503.364 224.848C503.174 225.77 503.547 226.741 503.364 227.663C503.204 228.143 503.075 228.632 502.977 229.128C502.906 230.176 503.807 231.028 504.687 231.613C506.56 232.831 508.693 233.593 510.915 233.838C513.136 234.082 515.384 233.802 517.477 233.02C519.357 232.316 521.053 231.169 522.855 230.268C524.613 229.256 526.623 228.768 528.649 228.86C529.81 228.987 530.922 229.409 532.084 229.564C532.657 229.677 533.25 229.65 533.811 229.483C534.371 229.316 534.882 229.015 535.301 228.607C535.659 228.112 535.9 227.541 536.005 226.938C536.983 223.074 536.54 218.977 535.611 215.091C534.681 211.206 533.273 207.468 532.281 203.603C531.577 200.738 531.035 197.803 529.859 195.093C528.684 192.383 526.706 189.863 523.939 188.828C523.721 188.721 523.474 188.689 523.235 188.736C523.058 188.811 522.901 188.926 522.778 189.074C520.59 191.393 518.941 194.167 517.949 197.198C516.844 200.569 516.541 204.145 515.527 207.531C515.091 208.939 514.528 210.826 513.416 211.903C512.304 212.98 510.741 213.648 509.481 214.458Z" fill="#3F3D56"/>
<path opacity="0.1" d="M536.027 226.918C535.909 227.522 535.657 228.092 535.288 228.586C534.871 228.996 534.359 229.297 533.798 229.462C533.237 229.628 532.644 229.653 532.071 229.536C530.917 229.395 529.805 228.966 528.643 228.832C526.617 228.738 524.607 229.227 522.85 230.24C521.048 231.141 519.33 232.26 517.465 232.985C514.736 234.02 511.755 234.19 508.926 233.471C507.424 233.093 505.996 232.465 504.703 231.613C503.816 231.035 502.922 230.205 502.992 229.128C503.091 228.635 503.22 228.148 503.379 227.671C503.562 226.749 503.196 225.777 503.379 224.855C503.647 223.588 504.872 222.743 505.407 221.575C505.942 220.406 505.738 219.005 506.181 217.788C506.73 216.288 508.159 215.324 509.496 214.458C510.834 213.592 512.425 212.93 513.495 211.882C513.633 211.718 513.758 211.544 513.868 211.361C514.639 210.171 515.206 208.86 515.543 207.482C516.578 204.089 516.86 200.52 517.958 197.141C518.954 194.114 520.605 191.342 522.794 189.025C522.911 188.874 523.066 188.757 523.244 188.687C523.482 188.639 523.729 188.669 523.948 188.772C526.707 189.814 528.685 192.334 529.868 195.044C531.051 197.754 531.55 200.675 532.29 203.547C533.275 207.412 534.69 211.164 535.619 215.042C536.548 218.921 537.006 223.046 536.027 226.918Z" fill="black"/>
<path opacity="0.1" d="M556.96 141.067C553.65 142.119 550.068 141.91 546.903 140.48C543.738 139.051 541.212 136.502 539.812 133.324C539.867 132.664 539.961 132.008 540.094 131.36C540.798 128.122 543.811 129.304 546.19 130.163C549.054 131.093 551.824 132.293 554.461 133.746C555.265 134.16 555.963 134.753 556.503 135.478C557.544 137.033 557.129 139.103 556.96 141.067Z" fill="black"/>
<path d="M552.707 141.024C560.483 141.024 566.786 134.721 566.786 126.946C566.786 119.17 560.483 112.867 552.707 112.867C544.932 112.867 538.629 119.17 538.629 126.946C538.629 134.721 544.932 141.024 552.707 141.024Z" fill="#BE6F72"/>
<path opacity="0.1" d="M590.909 232.155C590.909 233.323 589.326 233.696 588.15 233.633C583.926 233.387 579.794 232.225 575.613 232.577C570.327 233.056 565.469 235.977 560.169 236.245C558.128 236.35 556.051 236.047 554.038 236.421C551.433 236.906 549.11 238.49 546.456 238.715C544.155 238.912 541.881 238.047 539.579 238.138C537.97 238.234 536.401 238.681 534.982 239.447C535.137 237.957 535.803 236.566 536.869 235.512C538.551 233.858 540.945 234.288 543.268 233.893C545.585 233.393 547.848 232.67 550.025 231.732C556.133 229.326 562.564 227.838 569.109 227.319C575.682 226.796 582.285 227.841 588.375 230.367C589.261 230.726 590.097 231.199 590.86 231.775C590.899 231.898 590.915 232.026 590.909 232.155Z" fill="black"/>
<path d="M546.198 152.653L540.497 150.542L538.089 149.655C537.108 149.244 536.076 148.969 535.02 148.838C532.261 148.627 529.663 150.464 528.192 152.808C526.721 155.152 526.165 157.947 525.693 160.671C525.045 164.397 524.496 168.138 524.046 171.892C523.561 175.282 523.314 178.702 523.307 182.127C523.469 190.841 525.313 199.436 527.34 207.919C528.333 211.68 529.083 215.5 529.586 219.357C529.755 220.948 529.832 222.546 530.001 224.144C530.184 225.939 530.48 227.713 530.775 229.494L532.472 239.609C534.584 238.11 536.984 236.794 539.581 236.716C541.883 236.632 544.164 237.491 546.459 237.294C549.098 237.075 551.436 235.491 554.04 235.006C556.053 234.633 558.13 234.928 560.178 234.83C565.472 234.562 570.336 231.634 575.615 231.162C579.804 230.782 583.964 231.965 588.159 232.211C589.328 232.282 590.912 231.908 590.912 230.733C590.912 229.916 590.095 229.374 589.384 228.966C586.033 226.948 582.844 224.672 579.846 222.159C577.073 219.963 574.257 217.71 572.349 214.74C567.753 207.595 569.329 197.93 565.408 190.391C562.22 184.267 565.408 176.242 565.408 169.337C565.408 165.894 565.408 162.41 564.599 159.066C564.093 157.196 563.463 155.362 562.712 153.576L559.974 146.642C559.917 146.439 559.805 146.257 559.65 146.114C559.466 145.987 559.247 145.921 559.024 145.924C557.379 145.825 555.757 146.345 554.476 147.381C553.188 148.43 552.365 149.936 551.098 151.027C549.711 152.231 547.923 153.287 546.198 152.653Z" fill="#E3E8F4"/>
<path d="M555.398 148.655C555.849 146.726 556.335 144.72 557.623 143.214C558.911 141.707 561.262 140.912 562.923 141.989C564.81 143.214 564.887 146.043 566.499 147.62C567.907 148.972 570.019 149.077 571.934 149.253C575.376 149.567 578.758 150.363 581.979 151.619C582.607 151.813 583.179 152.156 583.647 152.618C584.527 153.618 584.351 155.152 584.787 156.398C585.386 158.003 587.04 159.024 587.68 160.622C588.384 162.396 587.68 164.381 587.089 166.204C586.026 169.477 585.358 172.877 584.323 176.164C583.288 179.452 581.817 182.69 579.395 185.168C578.325 186.266 576.734 187.279 575.327 186.625L574.785 190.532C574.626 191.357 574.626 192.205 574.785 193.03C574.866 193.444 575.063 193.825 575.352 194.131C575.641 194.438 576.01 194.656 576.418 194.762C576.523 195.368 577.164 195.656 577.685 195.987C578.069 196.25 578.398 196.587 578.651 196.977C578.905 197.368 579.078 197.806 579.161 198.264C579.244 198.722 579.236 199.193 579.136 199.648C579.036 200.103 578.846 200.533 578.579 200.914C578.135 201.513 577.481 201.984 577.269 202.695C576.953 203.723 577.706 204.807 578.621 205.37C579.536 205.933 580.613 206.194 581.542 206.736C583.471 207.848 584.506 210.037 585.167 212.163C585.66 213.768 586.068 215.507 587.279 216.675C587.744 217.119 588.3 217.457 588.743 217.921C589.511 218.828 589.954 219.965 590.003 221.152C590.196 222.624 589.873 224.116 589.088 225.376C587.68 227.389 585.055 227.987 582.753 228.896C579.015 230.43 575.939 233.175 572.645 235.512C571.303 236.593 569.722 237.336 568.034 237.681C565.753 237.983 563.508 236.977 561.213 236.885C559.84 236.898 558.474 237.077 557.144 237.42L552.921 238.335C553.146 235.062 551.344 231.782 550.337 228.663C548.437 222.792 548.085 216.513 548.535 210.361C548.986 204.209 550.239 198.141 551.478 192.101C552.343 187.878 552.259 183.464 553.589 179.36C554.835 175.411 556.616 171.617 557.271 167.506C558.341 160.854 553.892 155.216 555.398 148.655Z" fill="#3F3D56"/>
<path d="M587.419 161.671C587.808 162.386 588.081 163.158 588.229 163.958C588.555 165.198 589.164 166.346 590.01 167.309C590.718 167.934 591.347 168.643 591.882 169.421C592.53 170.646 592.284 172.138 592.586 173.475C592.938 174.933 593.959 176.2 594.107 177.699C594.111 178.129 594.151 178.557 594.226 178.98C594.684 180.684 597.19 181.092 597.746 182.795C598.119 183.901 597.479 185.104 597.598 186.266C597.686 186.625 597.707 186.997 597.662 187.364C597.502 187.779 597.223 188.137 596.859 188.392C594.529 190.617 592.917 193.487 592.227 196.635C591.549 199.765 591.193 202.956 591.164 206.159L588.412 202.519C588.121 202.078 587.748 201.696 587.314 201.393C586.962 201.182 586.554 201.076 586.195 200.865C585.153 200.274 584.745 199.021 584.343 197.895C583.229 194.777 581.559 191.887 579.416 189.363C578.297 188.047 576.994 186.723 576.748 185.013C576.674 184.227 576.717 183.435 576.875 182.662C577.579 178.051 578.332 173.328 580.577 169.238C581.626 167.323 582.985 165.591 583.991 163.649C584.667 162.36 585.617 159.01 587.419 161.671Z" fill="#3F3D56"/>
<path d="M517.978 166.099C517.991 166.691 517.84 167.276 517.541 167.788C517.272 168.1 516.922 168.331 516.529 168.455C516.136 168.579 515.717 168.592 515.317 168.492C514.516 168.291 513.76 167.937 513.093 167.45C511.131 166.211 509.169 164.97 507.208 163.726C506.113 163.066 505.057 162.342 504.047 161.558C502.503 160.255 501.104 158.789 499.873 157.187C496.452 152.963 493.425 148.381 489.617 144.516C488.582 143.46 487.505 142.447 486.505 141.341C485.139 139.744 483.883 138.055 482.746 136.287C481.648 134.661 480.508 132.859 480.698 130.916C480.811 129.818 481.339 128.805 481.493 127.713C481.648 126.622 481.233 125.292 480.177 124.996C480.052 124.965 479.925 124.944 479.797 124.933C479.589 124.911 479.383 124.866 479.185 124.799C478.206 124.391 478.354 122.877 479.058 122.082C479.762 121.287 480.804 120.843 481.444 119.97C481.742 119.452 482.076 118.956 482.444 118.485C482.915 118.081 483.478 117.798 484.084 117.661C488.144 116.465 492.439 116.303 496.579 117.19C497.282 117.345 498.085 117.626 498.296 118.309C498.38 118.642 498.38 118.99 498.296 119.323C497.986 120.711 497.807 122.125 497.761 123.546C497.76 123.843 497.776 124.139 497.81 124.433C498.141 127.418 500.077 129.945 501.964 132.275C504.202 135.048 506.476 137.801 508.756 140.546C509.99 142.137 511.368 143.61 512.874 144.946C514.282 146.114 516.105 147.057 517.204 148.557C518.098 149.767 517.809 151.422 517.907 152.879C518.235 157.278 518.258 161.696 517.978 166.099Z" fill="#3F3D56"/>
<path d="M607.375 195.466C608.07 194.79 608.697 194.048 609.247 193.249C609.839 192.259 610.311 191.203 610.655 190.102L614.738 178.523C615.385 176.693 616.033 174.855 616.849 173.074C617.694 171.153 618.694 169.301 619.616 167.443C621.988 162.553 623.822 157.419 625.085 152.133C625.308 151.406 625.382 150.643 625.304 149.887C625.106 148.669 624.184 147.719 623.304 146.853C622.42 145.898 621.411 145.064 620.306 144.375C619.751 144.03 619.132 143.799 618.487 143.695C617.842 143.591 617.182 143.617 616.547 143.77C614.745 144.298 613.611 146.142 613.196 147.994C612.781 149.845 612.936 151.738 612.76 153.625C612.506 156.328 611.577 158.94 611.352 161.65C611.232 163.22 611.352 164.803 611.162 166.366C610.815 168.418 610.1 170.391 609.05 172.188C606.763 176.468 603.673 180.268 599.948 183.38C598.928 184.133 598.01 185.016 597.217 186.006C596.555 186.996 596.107 188.113 595.901 189.286C595.433 191.072 595.636 192.968 596.471 194.615C597.618 196.572 599.821 197.43 601.926 197.867C604.77 198.458 605.425 197.487 607.375 195.466Z" fill="#BE6F72"/>
<path d="M552.792 106.546C553.398 105.408 554.326 104.473 555.46 103.858C556.595 103.243 557.885 102.976 559.17 103.09C560.464 103.319 561.668 103.906 562.646 104.785C563.624 105.663 564.336 106.798 564.703 108.06C565.033 109.109 565.167 110.27 565.744 111.171C566.617 112.53 568.236 112.924 569.447 113.909C570.17 114.581 570.752 115.39 571.158 116.29C571.564 117.189 571.786 118.16 571.812 119.147C571.88 121.162 571.562 123.171 570.876 125.067C570.585 125.876 570.35 126.703 570.172 127.545C570.031 128.361 570.017 129.192 569.891 130.008C569.734 131.067 569.368 132.084 568.813 132.999C568.258 133.914 567.526 134.709 566.659 135.337C566.413 135.538 566.105 135.65 565.787 135.654C565.238 135.59 564.9 134.95 564.696 134.373C563.576 131.142 563.844 127.193 561.781 124.616C560.843 123.577 559.709 122.733 558.445 122.131C557.929 121.799 557.348 121.58 556.741 121.491C555.848 121.539 554.99 121.853 554.277 122.392C552.792 123.388 551.143 124.117 549.406 124.546C548.54 124.751 547.638 124.76 546.767 124.573C545.896 124.385 545.079 124.006 544.373 123.462C543.402 122.659 542.691 121.456 541.614 120.829C540.537 120.203 539.411 120.238 538.348 119.808C537.67 119.52 537.068 119.081 536.585 118.525C536.103 117.969 535.755 117.31 535.566 116.598C535.377 115.887 535.353 115.141 535.496 114.419C535.639 113.697 535.945 113.017 536.391 112.431C537.095 111.587 538.136 111.108 538.763 110.172C539.572 108.961 539.502 107.3 539.889 105.85C540.118 104.932 540.563 104.083 541.186 103.371C541.809 102.66 542.593 102.108 543.472 101.76C544.325 101.47 545.24 101.415 546.121 101.599C547.003 101.784 547.819 102.201 548.484 102.809C549.188 103.442 549.751 104.259 550.441 104.92C551.122 105.572 551.956 106.043 552.866 106.289C553.776 106.535 554.733 106.548 555.65 106.328" fill="#3F3D56"/>
<path opacity="0.1" d="M564.366 210.157C563.956 210.522 563.666 211.002 563.533 211.534C563.4 212.067 563.43 212.627 563.62 213.142C563.775 213.472 571.039 212.072 571.807 211.966C573.721 211.692 577.079 211.825 578.367 210.073C580.662 206.968 573.552 207.658 572.25 207.771C569.772 207.982 566.253 208.32 564.366 210.157Z" fill="black"/>
<path d="M498.282 119.351C497.971 120.739 497.792 122.153 497.747 123.574C495.635 124.004 493.439 123.3 491.411 122.596L485.59 120.611C485.236 120.384 484.809 120.301 484.395 120.379C483.982 120.456 483.614 120.687 483.365 121.026C482.429 121.998 481.141 123.842 479.846 124.933C479.637 124.911 479.432 124.866 479.233 124.799C478.255 124.391 478.403 122.877 479.107 122.082C479.811 121.287 480.852 120.843 481.493 119.97C481.791 119.452 482.125 118.956 482.493 118.485C482.964 118.081 483.527 117.798 484.133 117.661C488.193 116.465 492.488 116.303 496.627 117.19C497.331 117.345 498.134 117.626 498.345 118.309C498.413 118.656 498.392 119.015 498.282 119.351Z" fill="#3F3D56"/>
<path opacity="0.1" d="M498.282 119.351C497.971 120.739 497.792 122.153 497.747 123.574C495.635 124.004 493.439 123.3 491.411 122.596L485.59 120.611C485.236 120.384 484.809 120.301 484.395 120.379C483.982 120.456 483.614 120.687 483.365 121.026C482.429 121.998 481.141 123.842 479.846 124.933C479.637 124.911 479.432 124.866 479.233 124.799C478.255 124.391 478.403 122.877 479.107 122.082C479.811 121.287 480.852 120.843 481.493 119.97C481.791 119.452 482.125 118.956 482.493 118.485C482.964 118.081 483.527 117.798 484.133 117.661C488.193 116.465 492.488 116.303 496.627 117.19C497.331 117.345 498.134 117.626 498.345 118.309C498.413 118.656 498.392 119.015 498.282 119.351Z" fill="black"/>
<path opacity="0.1" d="M551.534 252.991C552.548 253.329 553.646 253.822 553.991 254.835L545.84 252.766L541.616 251.689C540.87 251.499 538.195 251.28 537.702 250.696C536.998 249.837 539.497 250.429 539.948 250.492C541.313 250.696 542.679 250.907 544.038 251.154C546.6 251.611 549.064 252.365 551.534 252.991Z" fill="black"/>
<path opacity="0.1" d="M554.694 260.206C553.99 259.735 551.97 259.791 551.104 259.587C549.837 259.284 548.591 258.883 547.345 258.496C544.818 257.672 542.312 256.736 539.715 256.131C539.236 256.025 537.603 255.997 537.68 255.392C537.758 254.786 539.314 254.575 539.701 254.547C542.002 254.378 544.875 255.455 547.014 256.222C549.742 257.199 552.325 258.539 554.694 260.206Z" fill="black"/>
<path opacity="0.1" d="M549.526 246.557C546.942 245.853 544.598 244.248 541.937 243.939C541.244 243.965 540.562 243.757 540.002 243.347C539.689 243.04 539.471 242.649 539.375 242.221C541.156 242.129 543.225 242.883 544.845 243.594C545.736 243.976 546.593 244.433 547.407 244.959C547.998 245.318 548.885 246.353 549.526 246.557Z" fill="black"/>
<path d="M598.774 183.528C598.337 186.454 598.969 189.44 600.554 191.939C602.139 194.438 604.571 196.282 607.404 197.135C607.059 198.803 605.335 199.725 604.117 200.915C602.399 202.583 601.512 205.082 599.485 206.349C597.225 207.757 594.318 207.208 591.742 206.617C591.508 206.59 591.292 206.477 591.137 206.3C591.083 206.215 591.045 206.123 591.024 206.025C590.172 202.907 589.616 199.577 590.489 196.452C591.193 193.791 592.882 191.524 594.234 189.173C595.585 186.822 595.712 184.302 598.774 183.528Z" fill="#3F3D56"/>
<path d="M535.835 143.164C533.111 143.363 530.465 144.168 528.092 145.522C526.515 146.423 524.896 147.634 523.094 147.416C522.031 147.296 520.983 146.712 519.948 146.994C519.365 147.229 518.821 147.552 518.336 147.951C518.09 148.147 517.797 148.276 517.486 148.325C517.175 148.375 516.857 148.343 516.562 148.232L515.858 157.975C515.59 161.677 515.33 165.458 516.217 169.069C516.675 170.913 517.681 172.588 517.794 174.461C517.906 176.333 517.737 178.255 517.871 180.148C517.998 181.901 518.385 183.626 518.484 185.379C518.681 188.687 517.864 191.967 517.076 195.184C515.886 199.929 515.168 204.779 512.852 209.073C512.205 210.262 511.444 211.473 511.444 212.825C511.444 212.994 511.444 213.156 511.487 213.317C510.783 213.705 510.128 214.071 509.53 214.451C508.192 215.317 506.763 216.281 506.214 217.78C505.771 218.998 505.975 220.392 505.44 221.567C504.905 222.743 503.68 223.581 503.413 224.848C503.223 225.77 503.589 226.741 503.413 227.664C503.253 228.141 503.124 228.627 503.025 229.121C502.955 230.177 503.849 231.028 504.736 231.605C506.029 232.458 507.457 233.086 508.96 233.464L513.162 216.781C516.993 209.697 520.181 202.283 522.686 194.628C523.403 192.126 524.323 189.687 525.438 187.336C526.235 186.005 526.941 184.622 527.55 183.196C528.191 181.423 528.254 179.501 528.564 177.628C528.932 175.443 529.485 173.293 530.218 171.202C530.978 168.942 531.858 166.689 532.013 164.317C532.245 160.924 531.013 157.341 532.323 154.202C532.879 153.027 533.602 151.938 534.47 150.971C536.286 148.746 537.94 146.416 539.756 144.192C538.813 143.185 537.243 143.08 535.835 143.164Z" fill="#3F3D56"/>
<g opacity="0.1">
<path opacity="0.1" d="M555.672 104.23L554.792 104.294L554.693 104.364C555.023 104.351 555.351 104.306 555.672 104.23Z" fill="black"/>
<path opacity="0.1" d="M571.778 118.844C571.631 120.243 571.329 121.622 570.877 122.955C570.586 123.764 570.351 124.591 570.173 125.432C570.032 126.249 570.018 127.08 569.891 127.896C569.735 128.955 569.369 129.972 568.814 130.887C568.259 131.802 567.527 132.597 566.66 133.225C566.414 133.426 566.106 133.538 565.787 133.542C565.238 133.478 564.9 132.838 564.696 132.261C563.577 129.03 563.845 125.08 561.782 122.504C560.844 121.465 559.71 120.62 558.445 120.019C557.93 119.687 557.349 119.468 556.742 119.379C555.849 119.427 554.991 119.74 554.278 120.28C552.793 121.276 551.144 122.005 549.407 122.434C548.54 122.639 547.639 122.648 546.768 122.461C545.897 122.273 545.079 121.894 544.374 121.35C543.403 120.547 542.692 119.344 541.615 118.717C540.538 118.091 539.411 118.126 538.348 117.696C537.684 117.413 537.093 116.983 536.618 116.44C536.142 115.896 535.796 115.253 535.603 114.557C535.578 114.469 535.559 114.38 535.547 114.289C535.371 115.075 535.39 115.892 535.603 116.669C535.796 117.364 536.142 118.008 536.618 118.552C537.093 119.095 537.684 119.524 538.348 119.808C539.411 120.237 540.608 120.245 541.615 120.829C542.621 121.413 543.403 122.659 544.374 123.461C545.079 124.005 545.897 124.385 546.768 124.573C547.639 124.76 548.54 124.751 549.407 124.546C551.144 124.117 552.793 123.388 554.278 122.391C554.991 121.852 555.849 121.538 556.742 121.49C557.349 121.58 557.93 121.798 558.445 122.131C559.694 122.744 560.811 123.595 561.733 124.637C563.795 127.213 563.528 131.162 564.647 134.393C564.851 134.978 565.189 135.611 565.738 135.675C566.076 135.676 566.403 135.556 566.66 135.337C567.531 134.707 568.266 133.909 568.822 132.99C569.378 132.071 569.744 131.05 569.898 129.987C570.025 129.17 570.039 128.34 570.18 127.523C570.358 126.682 570.593 125.854 570.884 125.045C571.57 123.149 571.887 121.14 571.82 119.125C571.806 119.041 571.792 118.942 571.778 118.844Z" fill="black"/>
</g>
<path d="M527.241 175.327L526.763 181.754C526.692 182.627 525.024 203.407 512.719 227.692C502.16 248.521 481.613 275.651 442.82 290.898C439.793 292.094 436.651 293.211 433.394 294.248L429.762 282.845C438.881 279.975 447.664 276.133 455.962 271.385C475.735 259.967 491.109 243.671 501.83 222.701C507.518 211.536 511.572 199.612 513.867 187.294H469.731V175.327H527.241Z" fill="#6C63FF"/>
<path opacity="0.1" d="M438.068 290.904C476.854 275.657 497.409 248.535 507.961 227.706C520.265 203.42 521.941 182.654 522.004 181.768L522.483 175.341H527.41L526.931 181.768C526.868 182.64 525.193 203.42 512.888 227.706C502.329 248.535 481.782 275.657 442.995 290.904C439.968 292.101 436.824 293.22 433.563 294.262L433.084 292.763C434.783 292.157 436.444 291.538 438.068 290.904Z" fill="white"/>
<path d="M360.411 282.845L356.779 294.248C353.518 293.206 350.373 292.087 347.346 290.891C308.56 275.644 288.005 248.521 277.454 227.692C265.149 203.407 263.474 182.641 263.41 181.754L262.932 175.327H320.414V187.294H276.271C278.579 199.614 282.644 211.538 288.343 222.701C299.064 243.671 314.431 259.967 334.204 271.378C342.502 276.131 351.289 279.975 360.411 282.845Z" fill="#6C63FF"/>
<path opacity="0.1" d="M352.088 290.904C313.302 275.657 292.747 248.535 282.196 227.706C269.891 203.42 268.216 182.654 268.152 181.768L267.674 175.341H262.746L263.225 181.768C263.288 182.64 264.963 203.42 277.268 227.706C287.827 248.535 308.375 275.657 347.161 290.904C350.188 292.101 353.332 293.22 356.593 294.262L357.072 292.763C355.378 292.157 353.717 291.538 352.088 290.904Z" fill="white"/>
<path d="M461.487 393.079V457.608H328.678V393.079L332.901 387.448C375.939 372.173 384.661 332.338 386.4 316.577C386.658 314.399 386.806 312.209 386.843 310.016H403.266C403.302 312.209 403.45 314.399 403.709 316.577C405.476 332.338 414.198 372.187 457.208 387.448L461.487 393.079Z" fill="#6C63FF"/>
<path opacity="0.1" d="M461.487 393.079H328.678V401.174H461.487V393.079Z" fill="black"/>
<path opacity="0.1" d="M339.941 387.448C382.979 372.173 391.7 332.338 393.439 316.577C393.698 314.399 393.846 312.209 393.882 310.016H386.843C386.806 312.209 386.658 314.399 386.4 316.577C384.633 332.338 375.911 372.187 332.901 387.448L328.678 393.079V457.608H335.717V393.079L339.941 387.448Z" fill="white"/>
<path opacity="0.1" d="M308.502 175.327H320.412V187.294H309.558C309.131 183.352 308.779 179.363 308.502 175.327Z" fill="black"/>
<path opacity="0.1" d="M360.41 282.844L356.778 294.248C353.517 293.206 350.372 292.087 347.345 290.89C342.366 284.81 337.966 278.277 334.203 271.377C342.501 276.131 351.288 279.975 360.41 282.844Z" fill="black"/>
<path opacity="0.1" d="M429.754 282.845C438.873 279.975 447.657 276.133 455.954 271.385C452.189 278.285 447.789 284.82 442.812 290.905C439.785 292.101 436.643 293.218 433.386 294.255L429.754 282.845Z" fill="black"/>
<path opacity="0.1" d="M481.653 175.327C481.376 179.363 481.025 183.352 480.597 187.294H469.75V175.327H481.653Z" fill="black"/>
<path opacity="0.1" d="M403.737 316.577C398.021 317.684 392.144 317.684 386.428 316.577C386.686 314.399 386.835 312.209 386.871 310.016H403.294C403.33 312.209 403.478 314.399 403.737 316.577Z" fill="black"/>
<path d="M309.91 155.505C310.213 244.241 348.225 316 395.085 316C441.946 316 479.951 244.241 480.26 155.505H309.91Z" fill="#6C63FF"/>
<path opacity="0.1" d="M325.045 155.505H309.91C310.213 244.241 348.225 316 395.085 316C397.621 315.995 400.152 315.781 402.652 315.359C359.333 308.123 325.333 239.412 325.045 155.505Z" fill="white"/>
<path d="M440.249 417.78H349.914V441.01H440.249V417.78Z" fill="#3F3D56"/>
<path opacity="0.1" d="M354.138 420.948H440.249V417.78H349.914V441.01H354.138V420.948Z" fill="white"/>
<path d="M261.735 241.179C260.109 240.637 250.535 233.063 249.81 229.635C249.085 226.207 254.872 194.269 254.872 194.269C254.872 194.269 254.337 194.269 253.464 194.164V193.65L254.653 151.696C254.653 151.696 259.532 123.539 250.317 125.179C241.103 126.819 246.882 151.696 246.882 151.696C246.882 151.696 245.833 164.324 245.094 168.112C244.39 171.765 241.166 186.646 243.362 191.271C243.443 191.435 243.532 191.595 243.63 191.749C243.63 191.749 243.996 207.623 240.019 209.791C236.225 211.853 234.648 222.236 234.514 223.166L234.31 223.081C233.177 222.372 232.182 221.464 231.374 220.399C231.29 220.294 231.227 220.181 231.149 220.068C233.739 217.155 235.135 213.371 235.058 209.474C234.981 205.576 233.437 201.851 230.734 199.042C229.477 197.737 228.003 196.66 226.377 195.86C226.329 194.515 226.011 193.194 225.44 191.975C223.61 188.061 213.474 182.943 206.272 182.824C202.95 182.725 200.226 183.668 199.233 186.266C198.726 187.582 198.881 189.081 198.67 190.447C198.248 193.263 196.439 195.466 194.116 197.219C193.178 196.172 192.164 195.195 191.082 194.298C188.731 192.496 184.042 186.554 184.042 186.554C184.042 186.554 169.408 171.399 168.324 167.246C167.24 163.093 152.619 138.152 149.367 142.496C146.115 146.839 160.567 165.767 160.567 165.767C160.567 165.767 163.312 172.645 165.424 174.968C167.535 177.291 183.726 200.802 183.726 200.802L184.5 202.407C181.079 204.209 177.954 206.504 176.848 210.08C175.229 215.345 178.77 220.638 181.22 225.566C185.992 235.182 186.675 247.444 180.516 256.229C174.997 263.986 165.424 267.675 156.463 270.899C160.79 274.297 166.167 276.082 171.667 275.946C169.598 281.943 162.263 283.928 156.012 285.041C159.292 288.194 163.988 289.342 168.493 290.039C170.699 290.414 172.935 290.591 175.173 290.566H175.722L176.271 290.524C177.034 290.474 177.793 290.377 178.545 290.236C181.797 289.574 184.958 287.8 186.619 284.928C188.027 282.471 188.519 279.121 191.075 277.889C191.74 277.588 192.457 277.419 193.186 277.389H193.109C193.588 277.389 194.08 277.389 194.559 277.389L205.21 277.495C205.653 277.495 206.111 277.495 206.568 277.495C209.574 277.424 212.784 276.903 214.311 274.418C214.94 273.212 215.27 271.872 215.276 270.512C215.501 267.14 215.276 263.669 215.367 260.27C216.275 266.457 217.226 276.101 214.966 279.663C213.13 282.362 210.905 284.774 208.363 286.822C207.724 287.359 207.139 287.958 206.617 288.61C206.272 288.856 206.068 288.99 206.068 288.99L205.85 289.644C205.048 290.861 204.466 292.21 204.133 293.629C204.01 293.993 203.964 294.379 203.999 294.762C204.245 295.262 202.239 297.324 202.823 298.19C197.811 304.068 196.861 312.972 196.861 312.972L187.71 326.868C183.008 339.222 175.968 340.489 175.968 340.489C175.968 340.489 159.433 329.395 158.983 328.853C158.532 328.311 152.211 325.601 152.211 325.601C151.466 324.294 150.328 323.255 148.959 322.63C146.791 321.729 146.608 318.407 146.608 318.407C146.34 310.558 141.729 309.96 141.729 309.96C138.013 309.643 135.176 310.305 132.994 311.515L132.332 311.565C129.136 311.825 125.293 312.114 121.069 312.395C109.321 313.17 106.526 320.779 106.526 320.779C106.526 320.779 105.083 322.405 106.977 324.165C108.87 325.925 120.992 324.165 121.506 324.123C120.582 324.223 119.648 324.158 118.746 323.933C120.654 323.862 123.28 323.792 125.518 323.792H126.06C125.919 324.978 125.851 326.173 125.856 327.368C125.856 329.62 132.086 331.063 132.086 331.063L151.057 347.958C151.057 347.958 162.981 353.286 170.569 360.952C178.158 368.618 184.866 362.001 184.866 362.001C192.898 360.016 216.008 332.077 216.029 332.049C216.029 332.865 216.515 360.037 217.437 365.492C217.473 365.769 217.542 366.041 217.641 366.302C218.725 368.646 217.275 375.052 216.648 377.755C216.249 380.017 216.095 382.316 216.191 384.611C216.191 384.611 207.525 417.696 208.243 420.603C208.961 423.51 203.548 437.018 203.548 437.018V448.281L204.492 448.232C204.369 448.413 204.256 448.601 204.154 448.795L204.09 448.915C204.09 448.915 209.87 450.175 213.755 449.816C217.641 449.457 224.314 452.807 224.314 452.807C224.314 452.807 226.574 453.877 233.528 454.328C240.483 454.778 240.483 451.259 240.483 451.259C239.688 446.465 228.7 444.86 228.362 444.811C227.475 444.255 226.644 443.649 225.961 443.128L225.82 443.016C225.867 442.91 225.906 442.802 225.94 442.692C227.116 437.905 220.611 435.829 220.611 435.829V434.66C224.835 432.492 225.673 417.611 225.673 417.611C225.673 417.611 232.008 399.21 232.895 396.141C233.782 393.072 232.895 388.476 232.895 388.476L233.528 384.505C233.528 384.505 234.887 381.802 234.887 381.26C235.063 379.887 235.592 378.582 236.422 377.473C237.414 376.298 235.338 373.503 235.338 373.503L237.147 368.815V363.669L241.37 345.001C241.37 345.001 245.798 323.257 244.263 316.14C242.729 309.023 246.072 305.405 246.072 305.405C245.771 305.564 245.461 305.705 245.143 305.828C245.566 304.851 245.93 303.849 246.234 302.829L255.737 304.004V304.145H259.165C259.165 304.145 258.081 290.771 258.081 285.379C258.081 279.986 261.735 260.636 261.735 260.636C261.735 260.636 263.361 241.721 261.735 241.179ZM219.549 225.566C219.549 226.094 219.499 226.643 219.464 227.206L219.274 227.495L218.922 227.199L218.493 227.868L218.366 227.931C217.437 227.452 216.958 224.714 216.289 225.305L216.198 225.383C216.05 225.214 215.902 225.165 215.747 225.305L215.607 225.425C215.607 225.221 215.607 225.01 215.607 224.799C216.894 225.13 218.219 225.298 219.549 225.298C219.556 225.39 219.549 225.481 219.549 225.566ZM251.155 287.849H251.359L251.021 288.736C251.063 288.441 251.106 288.152 251.155 287.849ZM216.458 447.479L215.163 447.155L215.867 447.035L216.522 447.465L216.599 447.521L216.458 447.479ZM229.692 445.585C229.263 445.36 228.826 445.099 228.404 444.832C228.545 444.909 229.101 445.198 229.692 445.585Z" fill="url(#paint1_linear)"/>
<path d="M255.826 274.552L247.302 296.768H249.371L241.354 303.16L255.826 304.962V274.552Z" fill="#F86D70"/>
<path opacity="0.1" d="M255.826 274.552L247.302 296.768L245.155 296.191L241.354 303.16L255.826 304.962V274.552Z" fill="black"/>
<path d="M242.461 288.764H255.828L260.735 248.394H242.461V288.764Z" fill="#F86D70"/>
<path opacity="0.1" d="M242.461 288.764H255.828L260.735 248.394H242.461V288.764Z" fill="black"/>
<path d="M216.353 257.954L219.239 257.468L225.87 256.342C225.87 256.342 245.784 251.851 249.895 251.485C252.386 251.156 254.814 250.463 257.103 249.429C258.18 248.965 258.863 248.613 258.863 248.613L251.69 235.513L240.561 227.263C240.561 227.263 233.522 225.763 230.544 221.666C229.88 220.785 229.447 219.751 229.286 218.659C229.125 217.566 229.24 216.451 229.622 215.416C231.438 209.784 218.775 220.801 218.775 220.801C218.775 220.801 218.894 223.44 218.775 226.805C218.775 227.467 218.711 228.157 218.662 228.861C218.662 229.325 218.599 229.79 218.549 230.268C218.24 233.612 217.606 237.054 216.353 239.11C213.291 244.136 216.353 257.954 216.353 257.954Z" fill="#FBBEBE"/>
<path opacity="0.1" d="M218.773 227.086H219.055C219.562 227.086 219.97 226.009 220.463 225.96C224.426 225.58 228.044 224.749 230.557 221.941C229.894 221.06 229.463 220.027 229.302 218.936C229.141 217.845 229.255 216.732 229.635 215.697C231.451 210.065 218.788 221.075 218.788 221.075C218.788 221.075 218.921 223.722 218.773 227.086Z" fill="black"/>
<path d="M203.357 211.121C203.356 213.148 203.755 215.155 204.53 217.027C205.305 218.9 206.442 220.601 207.875 222.034C209.308 223.467 211.009 224.604 212.882 225.379C214.754 226.154 216.761 226.552 218.787 226.551C219.294 226.551 219.794 226.552 220.294 226.481C223.267 226.189 226.092 225.041 228.425 223.175C230.758 221.309 232.499 218.806 233.437 215.97C234.375 213.134 234.47 210.086 233.709 207.197C232.949 204.308 231.366 201.702 229.153 199.695C226.94 197.688 224.192 196.367 221.243 195.891C218.294 195.416 215.27 195.807 212.538 197.017C209.807 198.227 207.485 200.204 205.856 202.707C204.226 205.211 203.358 208.134 203.357 211.121Z" fill="#FBBEBE"/>
<path d="M198.619 187.702C198.112 189.011 198.267 190.475 198.063 191.862C197.309 196.867 192.22 199.866 187.616 201.964C183.013 204.061 177.818 206.546 176.354 211.382C174.749 216.612 178.254 221.857 180.69 226.763C185.434 236.322 186.11 248.514 179.986 257.257C174.545 265 165.063 268.675 156.137 271.899C160.433 275.278 165.772 277.055 171.236 276.925C169.188 282.887 161.902 284.865 155.693 285.963C158.953 289.103 163.62 290.243 168.09 290.933C171.349 291.44 174.692 291.77 177.944 291.116C181.197 290.461 184.28 288.694 185.955 285.836C187.363 283.394 187.842 280.064 190.383 278.832C191.53 278.381 192.766 278.2 193.994 278.304L204.553 278.417C207.84 278.417 211.733 278.164 213.429 275.355C214.055 274.155 214.383 272.822 214.387 271.469C214.844 264.543 213.514 257.222 216.365 250.9C217.224 248.993 211.712 245.973 212.289 243.953C214.274 237.005 214.774 231.535 214.753 224.306C214.753 218.71 218.392 213.888 221.398 209.165C224.404 204.441 226.917 198.479 224.544 193.411C221.869 187.758 201.779 179.544 198.619 187.702Z" fill="#3F3D56"/>
<path d="M212.678 445.451L215.367 447.232L215.782 447.507L215.859 447.556L219.048 449.668L226.496 450.921L233.042 450.47C233.042 450.47 234.929 446.528 231.965 446.62C231.016 446.571 230.091 446.304 229.262 445.838L228.854 445.634C228.425 445.409 227.995 445.156 227.573 444.888C226.693 444.332 225.862 443.727 225.194 443.213C224.208 442.452 223.553 441.875 223.553 441.875L212.678 445.451Z" fill="#FBBEBE"/>
<path opacity="0.1" d="M215.4 447.233L215.816 447.507L215.893 447.556L219.082 449.668L226.529 450.921L233.076 450.471C233.076 450.471 234.962 446.529 231.999 446.62C231.05 446.571 230.125 446.304 229.296 445.839C229.817 446.247 230.253 446.691 230.295 447.064C230.415 448.07 225.452 449.879 225.452 449.879L218.455 448.028C218.455 448.028 217.266 447.69 215.64 447.268L215.485 447.226L215.4 447.233Z" fill="black"/>
<path d="M203.436 448.95C203.436 448.95 209.173 450.203 213.03 449.844C216.888 449.485 223.533 452.807 223.533 452.807C223.533 452.807 225.778 453.863 232.684 454.314C239.589 454.764 239.589 451.259 239.589 451.259C238.801 446.493 227.89 444.923 227.552 444.853C227.686 444.923 228.256 445.212 228.833 445.599C229.608 446.106 230.445 446.768 230.509 447.303C230.628 448.302 225.666 450.118 225.666 450.118L218.669 448.274C218.669 448.274 217.479 447.929 215.853 447.507H215.698C213.287 446.85 210.837 446.345 208.363 445.993C205.35 445.669 203.809 448.232 203.492 448.809C203.469 448.854 203.45 448.901 203.436 448.95Z" fill="#3F3D56"/>
<path d="M113.008 322.363L116.056 324.7C116.056 324.7 116.943 324.658 118.266 324.615H118.689C120.582 324.545 123.194 324.475 125.411 324.475C126.844 324.41 128.281 324.49 129.698 324.714C131.218 325.249 133.921 316.013 133.921 316.013L130.866 315.31L129.853 315.07L129.149 314.901L126.664 314.317L119.132 315.176L113.838 318.583L113.008 322.363Z" fill="#FBBEBE"/>
<path opacity="0.1" d="M113.008 322.363L116.056 324.7C116.056 324.7 116.943 324.658 118.266 324.615C117.659 324.381 117.158 323.933 116.858 323.355C114.887 317.886 124.665 315.549 124.665 315.549L129.219 315.352L130.106 315.31H130.81L129.796 315.07L129.093 314.901L126.608 314.317L119.076 315.176L113.782 318.583L113.008 322.363Z" fill="black"/>
<path d="M106.997 324.834C108.841 326.537 120.921 324.834 121.427 324.792C120.511 324.895 119.583 324.83 118.689 324.601C118.247 324.522 117.828 324.345 117.462 324.083C117.097 323.822 116.795 323.482 116.577 323.088C114.606 317.611 124.384 315.281 124.384 315.281L128.938 315.084L129.818 315.042L140.891 314.563L141.426 311.516C141.426 311.516 137.829 311.853 132.183 312.304C129.009 312.564 125.144 312.853 120.97 313.127C109.306 313.902 106.532 321.469 106.532 321.469C106.532 321.469 105.117 323.088 106.997 324.834Z" fill="#3F3D56"/>
<path d="M242.469 192.707C242.544 192.874 242.633 193.034 242.737 193.186L245.426 197.128L252.423 197.831L252.5 195.058L253.676 153.329C253.676 153.329 258.519 125.341 249.368 126.953C240.216 128.565 245.961 153.329 245.961 153.329C245.961 153.329 244.919 165.887 244.187 169.66C243.476 173.307 240.287 188.131 242.469 192.707Z" fill="#FBBEBE"/>
<path d="M226.764 296.353L228.756 299.76L233.212 307.384C233.212 307.384 241.293 310.347 243.362 308.087C244.496 306.856 245.72 302.555 246.579 298.936C247.283 296.008 247.755 293.537 247.755 293.537L226.764 296.353Z" fill="#FBBEBE"/>
<path opacity="0.1" d="M226.764 296.353L228.756 299.76C228.881 299.652 228.994 299.532 229.094 299.401C231.346 296.529 241.265 298.789 246.579 298.972C247.283 296.043 247.755 293.572 247.755 293.572L226.764 296.353Z" fill="black"/>
<path opacity="0.1" d="M125.412 324.461C126.845 324.396 128.282 324.476 129.699 324.7C131.219 325.235 133.923 316 133.923 316L129.854 315.042L140.927 314.563L141.462 311.516C141.462 311.516 137.865 311.853 132.219 312.304C131.053 312.976 130.012 313.845 129.143 314.873L128.974 315.084C126.616 317.978 125.743 321.708 125.412 324.461Z" fill="black"/>
<path opacity="0.1" d="M212.678 445.452L215.782 447.507C220.414 446.669 224.644 445.353 225.144 443.283C225.147 443.251 225.147 443.218 225.144 443.185C224.159 442.425 223.504 441.847 223.504 441.847L212.678 445.452Z" fill="black"/>
<path opacity="0.1" d="M203.498 448.83C207.588 448.627 211.664 448.19 215.704 447.521C213.291 446.859 210.839 446.349 208.362 445.993C205.356 445.67 203.815 448.232 203.498 448.83Z" fill="black"/>
<path d="M125.75 328.015C125.75 330.261 131.938 331.697 131.938 331.697L150.782 348.471C150.782 348.471 162.622 353.765 170.154 361.389C177.686 369.012 184.331 362.465 184.331 362.465C192.313 360.495 215.303 332.682 215.303 332.682C215.303 332.682 215.838 364.444 216.915 366.774C217.992 369.104 216.556 375.474 215.93 378.17C215.535 380.419 215.384 382.703 215.479 384.984C215.479 384.984 206.87 417.907 207.588 420.779C208.306 423.651 202.921 437.11 202.921 437.11V448.323C202.921 448.323 224.004 447.514 225.165 442.762C226.327 438.011 219.879 435.941 219.879 435.941V434.773C224.103 432.619 224.898 417.822 224.898 417.822C224.898 417.822 231.184 399.52 232.078 396.472C232.972 393.424 232.078 388.842 232.078 388.842L232.705 384.9C232.705 384.9 234.049 382.204 234.049 381.669C234.225 380.303 234.751 379.005 235.577 377.903C236.562 376.734 234.5 373.954 234.5 373.954L236.295 369.287V364.176L240.518 345.607C240.518 345.607 244.918 323.982 243.39 316.893C241.863 309.805 245.185 306.222 245.185 306.222C237.984 309.995 234.352 301.597 233.162 297.986C232.859 297.057 232.712 296.437 232.712 296.437C232.712 296.437 222.821 292.791 213.614 293.664C211.744 293.815 209.901 294.206 208.13 294.825C197.902 298.507 196.29 313.754 196.29 313.754L187.231 327.572C182.564 339.862 175.567 341.115 175.567 341.115C175.567 341.115 159.151 330.085 158.673 329.543C158.194 329.001 151.943 326.312 151.943 326.312C151.204 325.011 150.073 323.976 148.712 323.355C146.558 322.454 146.382 319.132 146.382 319.132C146.115 311.325 141.539 310.685 141.539 310.685C125.659 309.361 125.75 325.777 125.75 328.015Z" fill="#3F3D56"/>
<path d="M217.078 284.154H226.764V254.103H217.078V284.154Z" fill="#F86D70"/>
<path opacity="0.1" d="M217.078 284.154H226.764V254.103H217.078V284.154Z" fill="black"/>
<path opacity="0.1" d="M242.46 192.643C242.459 192.665 242.459 192.686 242.46 192.707C242.535 192.874 242.625 193.034 242.728 193.185L245.417 197.127L252.414 197.831L252.491 195.058C250.309 194.889 245.339 194.291 242.46 192.643Z" fill="black"/>
<path d="M242.736 193.185C242.736 193.185 243.095 208.967 239.146 211.121C235.197 213.275 233.662 224.496 233.662 224.496C233.662 224.496 245.629 232.366 248.297 235.829C250.965 239.292 257.089 247.542 255.829 249.513C254.569 251.484 258.884 260.46 258.884 260.46C258.884 260.46 250.986 276.608 252.781 282.711C254.576 288.814 254.752 304.955 254.752 304.955H258.166C258.166 304.955 257.089 291.679 257.089 286.294C257.089 280.909 260.672 261.712 260.672 261.712C260.672 261.712 262.291 242.875 260.672 242.34C259.053 241.805 249.55 234.266 248.832 230.852C248.114 227.438 253.858 195.656 253.858 195.656C253.858 195.656 246.502 195.339 242.736 193.185Z" fill="#F86D70"/>
<path opacity="0.1" d="M216.895 251.316C217.222 253.512 218.022 255.611 219.239 257.468L225.87 256.342C225.87 256.342 245.784 251.851 249.895 251.485C252.385 251.156 254.814 250.463 257.103 249.429C255.525 243.838 252.445 238.786 248.198 234.823L245.671 232.479C241.947 229.021 237.631 226.263 232.93 224.334C233.226 224.581 254.118 242.418 249.543 245.917C244.967 249.415 232.648 240.898 232.648 240.898L218.64 228.86L218.133 228.424L217.324 229.684C217.736 229.854 218.138 230.046 218.528 230.261C223.302 232.882 226.845 237.285 228.383 242.51C231.262 252.189 216.895 251.316 216.895 251.316Z" fill="black"/>
<path d="M212.586 296.17C212.586 296.17 225.862 303.526 229.086 299.401C229.79 298.493 231.275 298.099 233.126 297.993C232.824 297.064 232.676 296.444 232.676 296.444C232.676 296.444 222.786 292.798 213.578 293.671C212.973 295.191 212.586 296.17 212.586 296.17Z" fill="#444053"/>
<path d="M218.696 228.438L233.211 240.926C233.211 240.926 245.48 249.471 250.105 245.945C254.73 242.418 233.486 224.355 233.486 224.355C238.177 226.289 242.488 229.039 246.22 232.478L248.747 234.822C255.392 240.982 256.891 240.982 257.116 250.034C257.173 252.266 256.412 255.469 255.828 256.046C253.674 258.158 252.168 273.496 252.499 275.291C252.829 277.086 248.486 292.58 249.894 296.888C251.302 301.196 232.296 294.734 229.079 298.866C225.862 302.998 212.586 295.635 212.586 295.635C212.586 295.635 219.942 276.791 221.737 275.538C223.532 274.285 225.686 264.592 221.737 260.108C217.788 255.623 217.436 251.315 217.436 251.315C217.436 251.315 231.796 252.202 228.917 242.523C228.107 239.718 226.702 237.12 224.797 234.907C222.892 232.694 220.533 230.917 217.879 229.698L218.696 228.438Z" fill="#E8E8F0"/>
<path opacity="0.1" d="M238.069 260.199C238.069 260.199 232.501 270.695 225.299 273.419C225.067 273.504 224.842 273.581 224.596 273.651C217.078 275.939 238.632 263.451 238.069 260.199Z" fill="black"/>
<path d="M160.2 167.344C160.2 167.344 162.889 174.165 165.043 176.495C167.197 178.825 183.162 202.153 183.162 202.153L184.513 204.969L185.675 207.369L195.903 206.292L196.607 202.167L196.212 201.689C195.185 200.457 192.383 197.148 190.504 195.705C188.174 193.917 183.507 187.997 183.507 187.997C183.507 187.997 168.978 172.919 167.901 168.794C166.823 164.669 152.287 139.933 149.063 144.213C145.839 148.493 160.2 167.344 160.2 167.344Z" fill="#FBBEBE"/>
<g opacity="0.1">
<path opacity="0.1" d="M189.877 278.304C188.649 278.198 187.414 278.376 186.266 278.825C183.732 280.057 183.253 283.386 181.845 285.829C180.198 288.687 177.059 290.454 173.828 291.108C173.185 291.233 172.537 291.322 171.885 291.376C173.943 291.576 176.018 291.486 178.051 291.108C181.282 290.454 184.422 288.687 186.069 285.829C187.477 283.386 187.955 280.057 190.49 278.825C191.155 278.525 191.872 278.358 192.601 278.332L189.877 278.304Z" fill="black"/>
<path opacity="0.1" d="M214.881 224.306C214.881 218.71 218.52 213.888 221.519 209.164C224.518 204.441 227.038 198.479 224.666 193.411C222.638 189.081 210.418 183.274 203.365 184.421C210.27 185.315 218.781 189.863 220.442 193.411C222.814 198.479 220.294 204.441 217.296 209.164C214.297 213.888 210.644 218.71 210.658 224.306C210.658 231.528 210.172 236.976 208.187 243.952C207.617 245.959 213.114 248.993 212.27 250.893C209.412 257.228 210.749 264.535 210.292 271.462C210.282 272.815 209.952 274.147 209.327 275.348C207.919 277.663 205.033 278.262 202.225 278.388H204.681C207.962 278.388 211.854 278.135 213.551 275.326C214.175 274.126 214.506 272.794 214.515 271.441C214.973 264.514 213.635 257.2 216.493 250.872C217.352 248.971 211.84 245.945 212.41 243.931C214.395 237.005 214.895 231.528 214.881 224.306Z" fill="black"/>
</g>
<path opacity="0.1" d="M184.514 204.955L185.675 207.355L195.903 206.278L196.607 202.153L196.213 201.675C195.122 202.21 186.949 206.145 184.514 204.955Z" fill="black"/>
<path opacity="0.1" d="M222.279 231.937C222.279 231.937 219.766 227.995 218.33 229.065C216.894 230.134 216.338 225.833 215.514 226.551C214.691 227.27 212.29 229.269 211.291 226.474C210.509 224.25 202.006 210.178 198.557 204.519C197.67 203.054 197.114 202.153 197.114 202.153C197.114 202.153 187.428 206.996 185.098 205.384V208.791L187.069 208.974L197.628 228.684C197.628 228.684 200.95 233.971 200.725 235.815C200.5 237.659 204.984 245.733 205.702 246.268C206.42 246.803 214.149 255.779 214.149 255.779C214.149 255.779 218.098 275.158 214.684 280.543C211.27 285.928 205.357 289.87 205.357 289.87C205.357 289.87 203.576 295.072 203.836 295.614C204.097 296.156 201.767 298.486 202.844 299.204C203.921 299.922 205.357 304.941 205.357 304.941C205.357 304.941 210.383 296.867 213.1 295.614C215.817 294.361 219.294 277.847 219.294 277.847C219.294 277.847 220.287 268.118 220.364 261.839C220.442 255.56 220.125 231.937 222.279 231.937Z" fill="black"/>
<path d="M221.736 231.937C221.736 231.937 219.23 227.995 217.794 229.065C216.358 230.134 215.795 225.833 214.978 226.551C214.162 227.27 211.761 229.269 210.755 226.474C209.966 224.25 201.463 210.178 198.021 204.519L196.578 202.153C196.578 202.153 186.892 206.996 184.555 205.384V208.791L186.533 208.974L197.092 228.684C197.092 228.684 200.421 233.971 200.189 235.815C199.957 237.659 204.412 245.733 205.166 246.268C205.919 246.803 213.613 255.779 213.613 255.779C213.613 255.779 217.562 275.158 214.155 280.543C212.355 283.247 210.166 285.672 207.658 287.737C205.551 289.475 204.068 291.852 203.434 294.509C203.312 294.871 203.269 295.255 203.307 295.635C203.568 296.17 201.238 298.507 202.315 299.225C203.392 299.943 204.842 304.983 204.842 304.983C204.842 304.983 209.868 296.909 212.585 295.656C215.302 294.403 218.787 277.889 218.787 277.889C218.787 277.889 219.772 268.161 219.857 261.882C219.941 255.603 219.624 231.937 221.736 231.937Z" fill="#F86D70"/>
<path opacity="0.1" d="M197.157 313.578C197.157 313.578 204.696 314.986 207.715 317.161C210.735 319.336 196.234 313.754 196.234 313.754L197.157 313.578Z" fill="black"/>
<path opacity="0.1" d="M215.281 332.683C215.281 332.683 223.144 339.236 221.736 345.156C220.328 351.076 216.696 365.971 216.696 365.971L215.281 332.683Z" fill="black"/>
<path opacity="0.1" d="M146.514 320.082C146.514 320.082 135.435 321.293 136.153 322.729C136.871 324.165 146.514 321.406 146.514 321.406V320.082Z" fill="black"/>
<path opacity="0.1" d="M231.591 374.58C231.591 374.58 232.295 375.474 228.184 374.58C224.074 373.686 227.107 370.927 227.107 370.927L231.591 374.58Z" fill="black"/>
<path opacity="0.1" d="M230.184 386.962C230.184 386.962 224.552 387.856 221.532 386.962C218.512 386.068 230.184 386.962 230.184 386.962Z" fill="black"/>
<path opacity="0.1" d="M218.597 435.406C218.597 435.406 217.611 434.329 212.677 436.3C207.742 438.271 205.771 438.363 204.335 437.708C202.899 437.054 218.597 435.406 218.597 435.406Z" fill="black"/>
<path opacity="0.1" d="M224.073 318.555L217.076 328.29C217.076 328.29 220.842 319.766 224.073 318.555Z" fill="black"/>
<path opacity="0.1" d="M210.473 229.064C210.473 229.064 210.17 232.295 205.658 233.556C201.146 234.816 200.287 235.836 200.287 235.836" fill="black"/>
<path opacity="0.1" d="M198.747 205.645C198.747 205.645 192.792 209.869 186.576 208.975L198.747 205.645Z" fill="black"/>
<path opacity="0.1" d="M203.281 296.078C203.281 296.078 205.02 297.169 209.194 292.397L203.281 296.078Z" fill="black"/>
<path opacity="0.1" d="M246.633 245.473C246.802 244.6 246.197 243.791 245.626 243.108L244.458 241.7C244.229 241.412 243.972 241.148 243.691 240.912C242.987 240.37 242.086 240.208 241.354 239.722" fill="black"/>
<path opacity="0.1" d="M624.587 0.0774174C624.587 0.0774174 565.324 -3.49852 572.292 38.0331C572.292 38.0331 570.885 45.375 577.558 48.7046C577.558 48.7046 577.663 45.6285 583.64 46.6773C585.767 47.03 587.929 47.134 590.081 46.987C592.987 46.7863 595.75 45.6448 597.95 43.7349C597.95 43.7349 614.612 36.8505 621.089 9.62266C621.089 9.62266 625.882 3.68152 625.692 2.154L615.689 6.42683C615.689 6.42683 619.111 13.6421 616.393 19.6395C616.393 19.6395 616.07 6.68728 614.148 6.96885C613.761 7.03221 608.953 9.46779 608.953 9.46779C608.953 9.46779 614.831 22.0329 610.396 31.1698C610.396 31.1698 612.078 15.6835 607.116 10.3759L600.076 14.4868C600.076 14.4868 606.947 27.4672 602.287 38.0613C602.287 38.0613 603.483 21.8147 598.591 15.4864L592.213 20.4631C592.213 20.4631 598.668 33.2605 594.734 42.0455C594.734 42.0455 594.22 23.131 590.834 21.702C590.834 21.702 585.252 26.6295 584.4 28.6427C584.4 28.6427 588.821 37.9346 586.075 42.8339C586.075 42.8339 584.393 30.2336 583.013 30.1632C583.013 30.1632 577.452 38.5118 576.875 44.2417C576.875 44.2417 577.114 35.7313 581.669 29.3748C581.669 29.3748 576.291 30.297 573.151 33.7814C573.151 33.7814 574.017 27.8825 583.041 27.3686C583.041 27.3686 587.638 21.0333 588.863 20.6461C588.863 20.6461 579.895 19.9 574.453 22.3074C574.453 22.3074 579.24 16.7393 590.51 19.2735L596.81 14.1278C596.81 14.1278 584.998 12.5158 579.986 14.2967C579.986 14.2967 585.751 9.36924 598.507 12.9593L605.363 8.86242C605.363 8.86242 595.29 6.69432 589.292 7.45456C589.292 7.45456 595.628 4.04053 607.376 7.74318L612.304 5.53988C612.304 5.53988 604.926 4.0898 602.765 3.8575C600.604 3.62521 600.492 3.03391 600.492 3.03391C605.165 2.25456 609.964 2.78825 614.352 4.57551C614.352 4.57551 624.77 0.732069 624.587 0.0774174Z" fill="#6C63FF"/>
<path opacity="0.1" d="M551.489 10.6433C551.489 10.6433 524.74 9.02431 527.872 27.791C527.872 27.791 527.246 31.1135 530.245 32.6199C530.245 32.6199 530.294 31.2121 532.997 31.6978C533.957 31.8593 534.933 31.9066 535.904 31.8385C537.218 31.7493 538.466 31.2326 539.459 30.3673C539.459 30.3673 546.991 27.263 549.919 14.9584C549.919 14.9584 552.08 12.2694 551.996 11.5796L547.477 13.5083C547.477 13.5083 549.025 16.7745 547.807 19.4846C547.807 19.4846 547.66 13.628 546.794 13.7688C546.618 13.7688 544.443 14.895 544.443 14.895C544.443 14.895 547.104 20.5757 545.097 24.7078C545.097 24.7078 545.858 17.7108 543.612 15.3104L540.43 17.1687C540.43 17.1687 543.542 23.0324 541.43 27.8191C541.43 27.8191 541.972 20.4772 539.762 17.6192L536.883 19.8929C536.883 19.8929 539.797 25.6792 538.023 29.6423C538.023 29.6423 537.791 21.0966 536.256 20.4561C536.256 20.4561 533.736 22.6805 533.349 23.5956C533.349 23.5956 535.348 27.8191 534.109 30.0013C534.109 30.0013 533.349 24.3065 532.701 24.2854C532.701 24.2854 530.195 28.0585 529.928 30.6208C530.053 28.2295 530.801 25.9123 532.096 23.8983C530.646 24.173 529.307 24.8654 528.245 25.8904C528.245 25.8904 528.64 23.2295 532.715 22.9902C532.715 22.9902 534.827 20.1323 535.348 19.9563C535.348 19.9563 531.293 19.6184 528.837 20.7095C528.837 20.7095 530.998 18.1894 536.094 19.3016L538.91 16.9787C538.91 16.9787 533.574 16.2747 531.307 17.0561C531.307 17.0561 533.912 14.8317 539.677 16.4507L542.774 14.5994C542.774 14.5994 538.227 13.6139 535.51 13.9729C535.51 13.9729 538.375 12.4243 543.682 14.0996L545.9 13.1071C545.9 13.1071 542.563 12.4454 541.585 12.3468C540.606 12.2483 540.557 11.9738 540.557 11.9738C542.67 11.6222 544.84 11.866 546.822 12.6777C546.822 12.6777 551.573 10.939 551.489 10.6433Z" fill="#6C63FF"/>
<path d="M644.93 458.087C660.562 458.087 673.235 455.944 673.235 453.3C673.235 450.657 660.562 448.513 644.93 448.513C629.298 448.513 616.625 450.657 616.625 453.3C616.625 455.944 629.298 458.087 644.93 458.087Z" fill="#6C63FF"/>
<path d="M656.637 445.472C657.929 444.419 658.869 442.998 659.333 441.396C659.685 439.784 658.995 437.877 657.446 437.25C655.714 436.589 653.863 437.792 652.462 439.003C651.061 440.214 649.449 441.601 647.619 441.34C648.562 440.483 649.268 439.397 649.668 438.187C650.067 436.977 650.147 435.685 649.9 434.435C649.82 433.917 649.601 433.43 649.266 433.027C648.302 431.999 646.563 432.435 645.409 433.245C641.749 435.821 640.728 440.798 640.707 445.268C640.341 443.656 640.65 441.974 640.643 440.341C640.636 438.707 640.179 436.821 638.778 435.955C637.914 435.49 636.943 435.262 635.962 435.293C634.322 435.23 632.485 435.399 631.366 436.603C629.958 438.095 630.331 440.601 631.542 442.234C632.752 443.867 634.604 444.916 636.307 446.049C637.67 446.862 638.832 447.971 639.707 449.295C639.813 449.479 639.898 449.675 639.961 449.879H650.28C652.588 448.703 654.726 447.221 656.637 445.472Z" fill="#6C63FF"/>
</g>
<defs>
<linearGradient id="paint0_linear" x1="569.131" y1="355.433" x2="569.131" y2="72.2438" gradientUnits="userSpaceOnUse">
<stop stop-color="#808080" stop-opacity="0.25"/>
<stop offset="0.54" stop-color="#808080" stop-opacity="0.12"/>
<stop offset="1" stop-color="#808080" stop-opacity="0.1"/>
</linearGradient>
<linearGradient id="paint1_linear" x1="28052.4" y1="176393" x2="62820.4" y2="176393" gradientUnits="userSpaceOnUse">
<stop stop-color="#808080" stop-opacity="0.25"/>
<stop offset="0.54" stop-color="#808080" stop-opacity="0.12"/>
<stop offset="1" stop-color="#808080" stop-opacity="0.1"/>
</linearGradient>
<clipPath id="clip0">
<rect width="805.291" height="459.326" fill="white"/>
</clipPath>
</defs>
</svg>
