<svg width="720" height="459" viewBox="0 0 720 459" fill="none" xmlns="http://www.w3.org/2000/svg">
<g clip-path="url(#clip0_117:453)">
<path opacity="0.1" d="M484.104 331.063C499.661 330.177 518.962 319.625 533.97 314.958C551.732 309.448 569.565 304.148 587.468 299.056C649.794 281.322 712.788 266.211 776.451 253.723C782.392 252.555 788.343 251.414 794.303 250.302C785.019 230.241 770.636 212.967 752.588 200.204C753.05 195.812 753.285 191.4 753.292 186.984C753.292 117.197 697.52 60.6222 628.697 60.6222C607.509 60.5996 586.676 66.0686 568.23 76.4957C519.518 44.453 455.94 25.0598 386.378 25.0598C287.533 25.0598 200.76 64.2192 151.59 123.187L382.675 162.227L524.404 186.16C362.831 190.982 200.76 195.776 39.652 184.457C18.385 205.035 4.92449 232.359 1.57086 261.761C-1.78277 291.163 5.17867 320.818 21.2655 345.656C21.2655 348.183 21.3711 350.689 21.5611 353.174C25.665 354.349 29.6281 355.49 33.1829 356.236C90.2526 368.292 147.688 378.381 205.49 386.505C162.895 412.768 111.023 416.485 61.889 427.607C85.6817 447.246 117.992 459.284 153.597 459.284H683.737C741.142 459.284 787.672 419.322 787.672 370.019C796.286 355.814 802.026 340.055 804.566 323.637C698.344 333.893 590.798 324.989 484.104 331.063Z" fill="#6C63FF"/>
<path opacity="0.1" d="M805.292 302.639C805.349 282.319 800.518 262.284 791.207 244.223C781.896 226.163 768.378 210.606 751.793 198.866C752.252 194.477 752.487 190.067 752.497 185.653C752.497 115.866 696.697 59.3128 627.902 59.3128C606.712 59.2901 585.878 64.7564 567.428 75.1793C518.716 43.1225 455.131 23.7223 385.569 23.7223C272.42 23.7223 175.025 75.0737 131.832 148.711C129.431 148.571 127.017 148.493 124.581 148.493C55.7795 148.493 -0.0136727 205.068 -0.0136727 274.855C-0.061897 299.505 7.0601 323.637 20.4846 344.311C20.4846 407.101 79.7482 458.002 152.823 458.002H682.978C740.376 458.002 786.905 418.033 786.905 368.73C798.977 348.802 805.338 325.938 805.292 302.639Z" fill="#6C63FF"/>
<path d="M657.665 225.221C656.658 224.448 655.48 223.931 654.23 223.715C652.913 223.412 651.569 223.222 650.231 223.011L632.901 220.512C631.151 220.187 629.367 220.092 627.593 220.23C626.703 220.303 625.837 220.552 625.044 220.963C624.251 221.374 623.548 221.938 622.975 222.624C622.459 223.261 622.176 224.056 622.173 224.876C622.269 225.702 622.538 226.498 622.961 227.213C623.129 227.547 623.272 227.893 623.391 228.248C623.556 229.044 623.763 229.831 624.01 230.606C624.087 230.774 624.186 230.93 624.306 231.071C624.309 231.11 624.309 231.15 624.306 231.19C624.116 232.162 624.728 233.175 624.453 234.112C624.214 234.914 623.433 235.4 622.94 236.069C622.611 236.543 622.429 237.103 622.417 237.68C622.404 238.257 622.562 238.825 622.87 239.314C623.398 240.13 624.355 240.686 624.629 241.622C624.988 242.854 624.017 244.044 623.151 244.994C621.558 246.744 620.086 248.599 618.745 250.548C618.368 251.028 618.125 251.598 618.041 252.202C617.963 253.427 619.139 254.504 618.935 255.722C618.773 256.679 617.837 257.264 617.027 257.834C614.035 259.805 611.635 262.973 611.396 266.556C610.628 260.855 608.266 255.487 604.582 251.069C603.575 249.858 602.47 248.641 602.055 247.106C601.9 246.494 601.872 245.839 601.66 245.248C600.956 243.382 598.718 242.58 597.74 240.862C597.036 239.652 597.036 238.096 596.163 237.033C595.29 235.97 593.917 235.731 593.164 234.703C592.788 234.007 592.468 233.282 592.207 232.535C591.891 231.926 591.447 231.393 590.904 230.972C590.801 230.889 590.692 230.812 590.581 230.74C590.698 230.635 590.791 230.507 590.855 230.364C590.92 230.221 590.953 230.066 590.954 229.909C590.954 229.086 590.137 228.544 589.426 228.135C588.511 227.614 587.617 227.051 586.744 226.467C587.696 226.024 588.521 225.348 589.145 224.503C589.926 223.242 590.249 221.751 590.06 220.279C590.012 219.092 589.568 217.955 588.8 217.048C588.356 216.577 587.8 216.239 587.335 215.795C586.132 214.62 585.724 212.881 585.224 211.276C584.562 209.164 583.527 206.947 581.598 205.828C580.669 205.286 579.585 205.032 578.677 204.462C577.769 203.892 577.009 202.815 577.326 201.78C577.537 201.076 578.192 200.591 578.635 199.992C579.164 199.219 579.367 198.267 579.2 197.345C579.033 196.423 578.508 195.603 577.741 195.065C577.22 194.734 576.58 194.445 576.474 193.84C576.066 193.734 575.697 193.516 575.408 193.209C575.119 192.903 574.923 192.521 574.841 192.108C574.683 191.281 574.683 190.43 574.841 189.602C575.024 188.293 575.205 186.988 575.383 185.689C575.693 185.817 576.025 185.884 576.361 185.884C576.697 185.884 577.03 185.817 577.34 185.689C577.949 186.677 578.656 187.602 579.452 188.448C581.595 190.979 583.264 193.877 584.379 197.001C584.78 198.127 585.189 199.387 586.23 199.985C586.589 200.189 586.998 200.295 587.35 200.513C587.784 200.816 588.156 201.198 588.448 201.64C589.292 202.759 590.137 203.871 590.975 204.99L591.017 205.159C591.04 205.258 591.078 205.353 591.13 205.441C591.285 205.616 591.502 205.727 591.735 205.75C594.325 206.349 597.233 206.898 599.478 205.483C601.506 204.216 602.392 201.71 604.11 200.035C605.328 198.845 607.052 197.923 607.397 196.247C606.986 196.121 606.582 195.973 606.187 195.804C606.539 195.452 606.891 195.044 607.369 194.579C608.065 193.898 608.692 193.151 609.242 192.348C609.836 191.357 610.309 190.298 610.65 189.194C612.006 185.327 613.367 181.458 614.732 177.586C615.38 175.756 616.027 173.912 616.844 172.131C617.689 170.202 618.688 168.351 619.61 166.457C621.99 161.533 623.827 156.364 625.087 151.041C625.311 150.315 625.385 149.551 625.305 148.796C625.108 147.578 624.186 146.621 623.306 145.755C622.421 144.797 621.413 143.961 620.307 143.27C619.752 142.925 619.134 142.693 618.489 142.59C617.843 142.486 617.184 142.511 616.548 142.665C614.746 143.193 613.613 145.037 613.198 146.888C612.782 148.739 612.937 150.647 612.761 152.52C612.508 155.23 611.579 157.848 611.353 160.565C611.234 162.135 611.353 163.726 611.163 165.296C610.817 167.35 610.102 169.325 609.052 171.124C606.769 175.416 603.678 179.226 599.95 182.345C599.52 182.704 599.077 183.049 598.655 183.436C598.655 183.133 598.704 182.824 598.746 182.521C598.44 182.601 598.14 182.707 597.852 182.838C597.888 182.482 597.852 182.123 597.747 181.782C597.183 180.099 594.677 179.67 594.227 177.959C594.152 177.536 594.112 177.108 594.107 176.678C593.959 175.179 592.939 173.912 592.587 172.455C592.263 171.11 592.509 169.639 591.883 168.393C591.349 167.614 590.72 166.905 590.01 166.281C589.165 165.315 588.555 164.166 588.229 162.924C588.138 162.579 588.053 162.22 587.955 161.875C588.062 161.094 587.975 160.298 587.702 159.559C587.061 157.968 585.407 156.947 584.808 155.335C584.344 154.082 584.548 152.52 583.668 151.548C583.2 151.084 582.628 150.739 582 150.542C578.778 149.287 575.397 148.488 571.955 148.169C570.026 147.993 567.9 147.895 566.52 146.536C564.908 144.959 564.831 142.123 562.944 140.905C561.283 139.828 558.932 140.623 557.644 142.137C557.45 142.359 557.272 142.594 557.109 142.841C556.874 141.897 556.824 140.917 556.961 139.954C556.961 139.715 557.01 139.469 557.031 139.251C560.21 138.212 562.915 136.076 564.662 133.225C564.662 133.225 564.662 133.225 564.662 133.267L564.747 133.485C564.951 133.999 565.274 134.492 565.753 134.548C566.072 134.544 566.379 134.433 566.626 134.232C567.051 133.936 567.442 133.597 567.794 133.218C567.973 133.021 568.142 132.817 568.301 132.605C568.626 132.166 568.904 131.694 569.132 131.198C569.482 130.451 569.719 129.656 569.836 128.839C569.963 128.023 569.977 127.185 570.117 126.369C570.249 125.737 570.421 125.114 570.631 124.503C570.702 124.299 570.772 124.095 570.835 123.891C570.899 123.687 570.99 123.412 571.061 123.187C571.501 121.739 571.738 120.237 571.765 118.724C571.765 118.471 571.765 118.217 571.765 117.964C571.739 116.976 571.517 116.004 571.11 115.103C570.704 114.203 570.123 113.392 569.399 112.72C568.189 111.727 566.584 111.312 565.697 109.967C565.12 109.066 564.993 107.905 564.655 106.849C564.29 105.585 563.578 104.449 562.6 103.57C561.622 102.69 560.417 102.102 559.122 101.872C557.563 101.701 555.997 102.132 554.744 103.076L554.645 103.153C553.947 103.686 553.355 104.345 552.899 105.096C551.969 104.84 551.118 104.356 550.422 103.688C549.718 103.034 549.176 102.21 548.465 101.576C547.8 100.968 546.985 100.549 546.103 100.363C545.222 100.178 544.306 100.232 543.453 100.521C542.574 100.873 541.791 101.428 541.168 102.142C540.545 102.855 540.1 103.706 539.87 104.624C539.483 106.075 539.553 107.743 538.744 108.954C538.117 109.897 537.089 110.361 536.371 111.22C535.925 111.764 535.621 112.41 535.484 113.1C535.399 113.486 535.359 113.88 535.365 114.275C535.365 114.451 535.365 114.627 535.407 114.796C535.407 114.796 535.407 114.852 535.407 114.881C535.432 115.074 535.472 115.264 535.527 115.451C535.727 116.164 536.085 116.824 536.575 117.38C537.04 117.912 537.62 118.331 538.272 118.604C538.538 118.708 538.811 118.795 539.088 118.865L539.926 119.055L540.222 119.125C539.211 121.023 538.65 123.128 538.581 125.277C538.513 127.427 538.939 129.563 539.828 131.521C539.828 131.719 539.778 131.916 539.757 132.113C539.643 134.885 539.765 137.661 540.123 140.412C540.222 141.503 540.278 142.707 539.609 143.573C539.305 143.913 538.962 144.218 538.589 144.481C538.969 143.988 539.356 143.502 539.75 143.017C538.758 142.017 537.188 141.89 535.78 141.989C533.055 142.192 530.41 143 528.037 144.354C526.46 145.262 524.841 146.466 523.039 146.255C521.976 146.135 520.927 145.551 519.892 145.832C519.311 146.07 518.768 146.393 518.28 146.79C517.895 147.066 517.431 147.209 516.957 147.198C515.852 145.839 514.141 144.917 512.818 143.812C511.312 142.471 509.933 140.994 508.7 139.398C506.419 136.646 504.146 133.887 501.907 131.106C500.021 128.769 498.085 126.242 497.754 123.25C497.72 122.954 497.704 122.655 497.705 122.356C497.75 120.935 497.93 119.521 498.24 118.133C498.323 117.798 498.323 117.447 498.24 117.112C498.028 116.408 497.219 116.148 496.522 115.993C496.614 115.451 496.677 114.895 496.712 114.367C497.106 108.313 496.677 102.161 497.958 96.2336C498.444 93.9529 499.239 91.644 500.879 89.9898C503.449 87.3923 507.75 86.7658 509.721 83.6897C511.368 81.1274 510.713 77.5022 508.644 75.2426C506.574 72.983 503.385 72.0608 500.351 72.1735C499.5 72.1442 498.659 72.3697 497.937 72.8211C497.262 73.4208 496.757 74.1881 496.473 75.0455L493.453 82.3874C492.577 84.2989 491.839 86.2702 491.243 88.2863C490.398 91.3695 490.208 94.6216 489.539 97.733C489.539 100.126 487.997 103.111 487.153 105.314C486.209 107.792 485.189 110.242 484.337 112.769C484.126 113.402 483.387 115.282 482.929 116.992C482.756 117.093 482.596 117.214 482.451 117.351C482.083 117.822 481.749 118.319 481.451 118.837C480.81 119.681 479.769 120.132 479.065 120.948C478.361 121.765 478.213 123.264 479.191 123.673C479.39 123.739 479.595 123.784 479.804 123.806C479.932 123.817 480.059 123.838 480.184 123.87C481.24 124.165 481.655 125.496 481.5 126.594C481.345 127.692 480.796 128.706 480.705 129.804C480.515 131.747 481.655 133.556 482.753 135.189C483.89 136.959 485.146 138.65 486.512 140.25C487.505 141.362 488.624 142.362 489.624 143.432C493.432 147.346 496.459 151.921 499.88 156.173C501.11 157.778 502.51 159.246 504.054 160.551C505.062 161.34 506.118 162.066 507.215 162.726L513.099 166.457C513.767 166.946 514.522 167.302 515.324 167.506C515.585 167.541 515.851 167.541 516.112 167.506C516.147 167.682 516.176 167.851 516.218 168.027C516.675 169.871 517.682 171.547 517.795 173.426C517.907 175.306 517.738 177.227 517.872 179.128C517.999 180.881 518.386 182.648 518.484 184.372C518.682 187.695 517.865 190.975 517.077 194.227C515.887 198.986 515.169 203.843 512.853 208.158C512.205 209.348 511.445 210.558 511.445 211.917C511.445 212.079 511.445 212.248 511.487 212.41L510.432 213.008C510.122 213.184 509.812 213.36 509.531 213.543C508.193 214.416 506.764 215.38 506.215 216.887C505.772 218.104 505.976 219.498 505.441 220.681C505.415 220.734 505.387 220.785 505.356 220.836C504.793 221.934 503.674 222.75 503.42 223.954C503.23 224.876 503.596 225.855 503.42 226.77C503.42 226.77 503.42 226.77 503.42 226.805C503.26 227.264 503.133 227.735 503.04 228.213C503.033 228.369 503.047 228.525 503.083 228.677C503.217 229.211 503.512 229.69 503.927 230.05C504.181 230.293 504.457 230.513 504.751 230.705C505.051 230.902 505.361 231.085 505.68 231.254L505.863 231.352C506.131 231.493 506.398 231.627 506.673 231.753L506.856 231.831C507.172 231.972 507.496 232.098 507.82 232.211L508.045 232.281C508.299 232.366 508.559 232.443 508.82 232.507L508.996 232.563L509.157 232.598L509.861 232.746L510.122 232.795C510.432 232.847 510.748 232.889 511.072 232.922H511.354C511.593 232.922 511.825 232.957 512.058 232.964H512.389C512.635 232.964 512.874 232.964 513.092 232.964H513.346C513.677 232.964 514.008 232.915 514.338 232.873H514.444C514.74 232.83 515.035 232.781 515.331 232.718L515.556 232.669C515.831 232.605 516.105 232.542 516.38 232.457L516.528 232.415C516.858 232.317 517.189 232.211 517.513 232.084C518.634 231.624 519.72 231.085 520.765 230.472C521.469 230.085 522.173 229.691 522.877 229.332C523.399 229.069 523.935 228.834 524.482 228.628C525.813 228.059 527.262 227.818 528.706 227.924C529.418 228.021 530.123 228.165 530.817 228.354C530.817 228.431 530.817 228.508 530.817 228.586C531.39 231.965 531.955 235.343 532.514 238.722C533.435 238.059 534.41 237.473 535.428 236.97C535.238 237.48 535.112 238.012 535.055 238.553C535.013 238.972 535.013 239.394 535.055 239.813C535.118 240.482 535.259 241.221 534.858 241.749C534.611 242.073 534.154 242.256 534.02 242.622C533.922 242.996 533.898 243.386 533.95 243.769C533.921 244.207 533.736 244.62 533.428 244.932C533.121 245.245 532.711 245.437 532.274 245.473C532.476 246.04 532.481 246.658 532.288 247.227C532.095 247.797 531.716 248.285 531.211 248.613C530.917 248.754 530.642 248.934 530.395 249.147C530.154 249.458 529.992 249.823 529.923 250.21C528.993 253.696 527.08 256.841 524.412 259.27C523.411 260.056 522.497 260.949 521.687 261.931C521.187 262.691 520.774 263.506 520.455 264.359C518.578 268.949 516.673 273.541 514.74 278.135C513.67 280.704 512.628 283.316 512.29 286.082C511.445 293.671 504.688 300.105 505.955 307.637C506.211 309.518 506.969 311.296 508.151 312.782C509.559 314.479 511.67 315.45 513.782 316.239C519.21 318.35 524.932 319.505 530.634 320.666L539.588 322.504C541.345 322.908 543.128 323.19 544.924 323.348C547.085 323.496 549.302 323.292 551.407 323.841C552.709 324.179 553.955 324.805 555.3 324.876C556.454 324.939 557.876 324.693 558.559 325.636C559.242 326.579 558.714 327.825 559.361 328.663C560.403 329.993 562.944 328.663 564.078 329.916C564.387 330.397 564.625 330.921 564.782 331.472C564.954 331.812 565.193 332.114 565.486 332.359C565.555 332.756 565.583 333.159 565.57 333.562C565.423 335.197 565.083 336.808 564.556 338.363C563.712 341.221 562.869 344.081 562.029 346.944C561.709 347.955 561.473 348.991 561.325 350.041C561.273 350.551 561.273 351.066 561.325 351.576C561.473 353.131 562.367 354.736 563.853 355.243C565.005 355.548 566.23 355.397 567.274 354.821C568.281 354.295 569.225 353.658 570.089 352.92C571.648 351.741 573.018 350.331 574.151 348.739C577.671 343.474 576.53 336.35 579.001 330.528C580.641 326.643 583.837 323.489 584.9 319.392C585.149 318.613 585.178 317.78 584.984 316.985C584.541 315.577 583.042 314.774 581.641 314.268H581.577C580.427 313.858 579.251 313.522 578.058 313.261C577.762 313.198 577.459 313.148 577.157 313.099C576.487 312.554 575.954 311.86 575.601 311.072C575.546 310.653 575.435 310.243 575.27 309.854C575.158 309.686 575.008 309.548 574.832 309.45C574.655 309.352 574.458 309.297 574.257 309.291C573.553 309.221 572.609 309.474 571.842 309.418C570.272 309.305 569.231 307.763 567.823 307.052C566.415 306.341 564.887 306.517 563.388 306.623C562.852 306.696 562.306 306.663 561.783 306.524C561.158 306.237 560.586 305.844 560.094 305.363C559.227 304.689 558.216 304.225 557.14 304.009C556.063 303.793 554.952 303.83 553.892 304.117C553.218 304.389 552.505 304.551 551.78 304.596C550.408 304.518 549.436 303.293 548.422 302.364C545.649 299.823 541.7 299.154 538.335 297.486C537.82 297.294 537.391 296.925 537.124 296.444C536.737 295.487 537.61 294.53 538.399 293.875L544.185 289.067C550.52 283.802 558.439 279.839 561.382 272.117C561.689 271.081 562.164 270.104 562.79 269.223C563.017 268.955 563.28 268.718 563.571 268.52C564.851 267.69 566.402 267.387 567.9 267.675C569.726 268.083 571.456 268.839 572.997 269.899C575.517 271.424 577.969 273.067 580.353 274.827C582.714 276.514 584.96 278.358 587.075 280.345C590.771 283.865 593.847 288.039 597.289 291.834C600.731 295.628 604.666 299.168 609.446 300.985C614.225 302.801 620.005 302.723 624.109 299.675C628.846 296.156 630.367 289.863 631.563 284.09C634.203 281.542 634.998 277.664 636.286 274.235C637.096 272.06 638.131 270.012 639.004 267.844C640.045 265.296 640.862 262.663 641.679 260.037C642.604 257.401 643.232 254.669 643.551 251.893C643.889 247.507 642.713 242.84 643.945 238.722C645.571 238.363 647.05 237.448 648.647 236.913C651.027 236.132 653.575 236.259 656.095 236.273H656.257C657.125 236.365 657.999 236.159 658.735 235.688C659.579 234.984 659.713 233.781 659.755 232.69C659.854 229.994 659.685 226.967 657.665 225.221ZM555.673 105.145C555.091 105.289 554.488 105.332 553.892 105.272L555.673 105.145Z" fill="url(#paint0_linear_117:453)"/>
<path d="M558.446 149.676C557.594 150.4 556.595 150.93 555.518 151.231L550.527 153.019C547.817 153.991 544.987 154.969 542.129 154.617C540.531 154.42 533.682 153.414 532.647 152.168C531.07 150.239 536.596 147.402 538.483 145.776C538.91 145.469 539.306 145.12 539.665 144.734C540.369 143.875 540.278 142.672 540.179 141.588C539.821 138.841 539.699 136.07 539.813 133.302C539.868 132.643 539.962 131.987 540.095 131.339C540.798 128.1 543.811 129.283 546.191 130.142C549.055 131.072 551.824 132.272 554.462 133.725C555.265 134.139 555.963 134.731 556.503 135.456C557.545 137.033 557.13 139.103 556.961 141.088C556.813 142.629 556.82 144.108 557.784 145.227C558.27 145.655 558.715 146.126 559.115 146.635C559.34 147.147 559.397 147.718 559.276 148.264C559.156 148.811 558.865 149.305 558.446 149.676Z" fill="#BE6F72"/>
<path d="M489.503 98.9438C490.207 95.8254 490.362 92.6084 491.207 89.5182C491.803 87.5089 492.542 85.5447 493.417 83.6404L496.521 76.397C496.805 75.5417 497.31 74.7768 497.985 74.1797C498.709 73.7314 499.549 73.5062 500.4 73.532C503.434 73.4194 506.623 74.3627 508.692 76.5941C510.762 78.8256 511.416 82.4367 509.769 84.992C507.798 88.0681 503.497 88.6876 500.928 91.278C499.288 92.9323 498.492 95.2341 498.006 97.5078C496.725 103.421 497.155 109.552 496.761 115.592C496.634 117.471 496.268 119.618 494.649 120.589C493.67 121.069 492.582 121.28 491.495 121.202L486.877 121.279C486.103 121.279 483.294 121.765 482.781 121.181C481.88 120.16 483.935 115.078 484.308 113.944C485.139 111.431 486.159 108.982 487.124 106.511C487.962 104.308 489.503 101.33 489.503 98.9438Z" fill="#BE6F72"/>
<path d="M584.85 320.089C583.787 324.158 580.592 327.325 578.951 331.204C576.481 337.011 577.593 344.114 574.101 349.365C572.969 350.96 571.599 352.373 570.04 353.554C569.175 354.289 568.231 354.924 567.224 355.447C566.18 356.023 564.955 356.174 563.803 355.87C562.318 355.363 561.424 353.758 561.276 352.209C561.223 351.701 561.223 351.189 561.276 350.682C561.424 349.634 561.659 348.6 561.98 347.591C562.824 344.743 563.667 341.89 564.507 339.032C565.033 337.482 565.373 335.875 565.521 334.245C565.612 332.471 564.486 330.162 564.964 328.508C565.183 327.762 565.999 327.1 566.372 326.474C566.902 325.572 567.309 324.604 567.583 323.595C568.16 321.631 568.554 319.533 569.765 317.879C570.555 316.898 571.479 316.033 572.51 315.309C573.272 314.642 574.163 314.141 575.129 313.838C576.066 313.673 577.028 313.719 577.945 313.972C579.139 314.227 580.315 314.561 581.464 314.971H581.528C582.936 315.478 584.428 316.26 584.871 317.682C585.087 318.471 585.08 319.304 584.85 320.089Z" fill="#3F3D56"/>
<path d="M659.747 233.548C659.705 234.639 659.571 235.857 658.726 236.54C657.991 237.011 657.117 237.217 656.249 237.124H656.058C653.545 237.124 650.99 236.984 648.611 237.765C646.802 238.363 645.141 239.461 643.254 239.68C640.657 239.975 638.214 238.553 635.912 237.314C633.745 236.147 631.52 235.09 629.246 234.147C627.754 233.534 624.706 233.14 623.988 231.507C623.742 230.734 623.535 229.95 623.368 229.156C623.25 228.801 623.106 228.455 622.939 228.121C622.517 227.408 622.248 226.614 622.15 225.791C622.153 224.971 622.436 224.176 622.953 223.539C623.527 222.859 624.23 222.299 625.021 221.892C625.813 221.485 626.677 221.238 627.564 221.166C629.337 221.028 631.122 221.123 632.871 221.448L650.202 223.94C651.539 224.13 652.884 224.32 654.2 224.644C655.45 224.861 656.629 225.378 657.635 226.15C659.684 227.868 659.853 230.888 659.747 233.548Z" fill="#3F3D56"/>
<path d="M644.515 238.054C642.403 242.51 643.924 247.782 643.544 252.709C643.225 255.479 642.597 258.203 641.671 260.833C640.855 263.451 640.038 266.077 638.996 268.618C638.124 270.73 637.089 272.842 636.279 274.996C634.991 278.431 634.167 282.295 631.556 284.851C630.359 290.609 628.839 296.902 624.101 300.393C619.983 303.434 614.246 303.54 609.439 301.703C604.631 299.865 600.724 296.346 597.282 292.552C593.84 288.757 590.763 284.625 587.068 281.092C584.95 279.104 582.699 277.262 580.331 275.58C577.947 273.848 575.495 272.22 572.975 270.695C571.432 269.639 569.703 268.886 567.879 268.477C566.381 268.19 564.83 268.493 563.55 269.322C563.259 269.521 562.996 269.757 562.768 270.026C562.142 270.903 561.666 271.878 561.36 272.912C558.404 280.613 550.471 284.569 544.135 289.82L538.349 294.614C537.561 295.269 536.688 296.226 537.075 297.176C537.341 297.657 537.771 298.027 538.286 298.218C541.65 299.88 545.6 300.548 548.373 303.082C549.387 304.012 550.358 305.236 551.731 305.307C552.455 305.264 553.169 305.105 553.842 304.835C554.902 304.549 556.013 304.511 557.089 304.726C558.165 304.941 559.176 305.403 560.044 306.074C560.537 306.555 561.108 306.948 561.734 307.236C562.257 307.374 562.802 307.407 563.338 307.334C564.838 307.229 566.429 307.095 567.773 307.763C569.118 308.432 570.223 310.009 571.793 310.122C572.56 310.178 573.475 309.925 574.207 309.995C574.409 310.001 574.606 310.056 574.782 310.154C574.958 310.252 575.109 310.39 575.221 310.558C575.385 310.945 575.496 311.352 575.552 311.769C575.84 312.761 576.812 313.367 577.445 314.183C578.417 315.436 578.557 317.14 578.459 318.724C578.14 323.676 575.933 328.317 572.292 331.69C571.259 332.746 569.941 333.48 568.498 333.802C567.776 333.953 567.024 333.873 566.35 333.574C565.675 333.274 565.112 332.77 564.739 332.133C564.582 331.585 564.345 331.063 564.035 330.585C562.902 329.339 560.361 330.662 559.319 329.332C558.671 328.501 559.136 327.171 558.517 326.312C557.897 325.453 556.405 325.608 555.257 325.559C553.913 325.488 552.667 324.855 551.365 324.524C549.253 323.975 547.043 324.179 544.882 324.031C543.086 323.873 541.303 323.591 539.546 323.186L530.592 321.356C524.89 320.195 519.167 319.019 513.74 316.943C511.663 316.154 509.573 315.183 508.108 313.493C506.928 312.009 506.169 310.234 505.912 308.355C504.638 300.844 511.396 294.424 512.248 286.857C512.55 284.097 513.655 281.493 514.697 278.931C516.607 274.35 518.512 269.768 520.413 265.183C520.72 264.329 521.122 263.512 521.61 262.747C522.42 261.767 523.333 260.878 524.334 260.094C527.001 257.673 528.915 254.535 529.846 251.055C529.915 250.668 530.077 250.303 530.317 249.992C530.567 249.783 530.841 249.606 531.134 249.464C531.637 249.137 532.015 248.65 532.208 248.082C532.4 247.514 532.397 246.898 532.197 246.332C532.634 246.296 533.043 246.104 533.351 245.791C533.658 245.479 533.843 245.066 533.872 244.628C533.821 244.247 533.845 243.86 533.943 243.488C534.111 243.122 534.534 242.939 534.78 242.615C535.181 242.087 535.041 241.348 534.977 240.686C534.935 240.267 534.935 239.845 534.977 239.426C535.131 237.936 535.798 236.545 536.864 235.491C538.546 233.837 540.94 234.267 543.262 233.872C545.58 233.372 547.843 232.648 550.02 231.711C556.128 229.305 562.559 227.817 569.104 227.298C575.68 226.78 582.286 227.832 588.377 230.367C589.263 230.726 590.099 231.199 590.862 231.775C591.404 232.192 591.848 232.723 592.164 233.33C592.424 234.076 592.744 234.798 593.122 235.491C593.875 236.519 595.297 236.85 596.12 237.821C596.944 238.793 597.014 240.433 597.697 241.637C598.676 243.354 600.942 244.15 601.618 246.015C601.829 246.606 601.857 247.254 602.012 247.866C602.392 249.401 603.533 250.612 604.539 251.822C608.229 256.236 610.592 261.606 611.353 267.309C611.578 263.74 613.979 260.579 616.985 258.608C617.794 258.08 618.73 257.496 618.892 256.539C619.096 255.328 617.921 254.251 617.998 253.019C618.084 252.418 618.327 251.849 618.702 251.372C620.044 249.428 621.516 247.577 623.109 245.832C623.975 244.882 624.946 243.72 624.587 242.467C624.313 241.531 623.355 240.982 622.827 240.165C622.519 239.679 622.362 239.112 622.374 238.536C622.387 237.96 622.569 237.4 622.898 236.927C623.39 236.259 624.172 235.773 624.411 234.978C624.686 234.041 624.073 233.028 624.263 232.063C624.521 231.291 625.032 230.629 625.713 230.184C626.647 229.333 627.709 228.635 628.86 228.114C630.718 227.41 632.788 227.671 634.759 227.945C638.053 228.403 641.749 229.107 643.607 231.866C644.797 233.591 645.402 236.209 644.515 238.054Z" fill="#65617D"/>
<path opacity="0.1" d="M659.748 233.548C659.706 234.639 659.572 235.857 658.727 236.54C657.992 237.011 657.118 237.217 656.25 237.124H656.06C656.348 235.66 658.129 234.823 658.439 233.337C658.492 232.881 658.45 232.419 658.317 231.979C658.184 231.54 657.962 231.132 657.665 230.782C656.158 228.748 653.737 227.621 651.329 226.798C644.528 224.466 637.242 223.921 630.169 225.214C628.246 225.527 626.375 226.103 624.608 226.924C624.023 227.291 623.459 227.69 622.919 228.121C622.496 227.408 622.228 226.614 622.13 225.791C622.133 224.971 622.416 224.176 622.933 223.539C623.507 222.859 624.21 222.299 625.001 221.892C625.793 221.485 626.657 221.238 627.544 221.166C629.317 221.028 631.102 221.123 632.851 221.448L650.182 223.94C651.519 224.13 652.864 224.32 654.18 224.644C655.43 224.861 656.609 225.378 657.615 226.15C659.685 227.868 659.854 230.888 659.748 233.548Z" fill="black"/>
<path opacity="0.1" d="M584.85 320.089C583.787 324.158 580.592 327.326 578.951 331.204C576.481 337.012 577.593 344.114 574.101 349.366C572.969 350.961 571.599 352.373 570.04 353.554C569.175 354.289 568.231 354.924 567.224 355.448C566.18 356.023 564.955 356.174 563.803 355.87C562.318 355.363 561.424 353.758 561.276 352.21C561.223 351.702 561.223 351.19 561.276 350.682L561.318 350.795C561.93 352.273 562.93 353.821 564.507 354.082C565.099 354.125 565.693 354.045 566.253 353.847C566.812 353.65 567.325 353.339 567.759 352.935C570.082 351.069 571.433 348.289 572.722 345.607C573.73 343.673 574.527 341.636 575.101 339.532C575.382 338.335 575.516 337.11 575.805 335.914C577.142 330.099 581.697 325.355 582.703 319.463C582.785 319.058 582.804 318.642 582.76 318.231C582.627 317.695 582.423 317.179 582.154 316.696C581.91 316.152 581.73 315.58 581.619 314.993C583.027 315.5 584.519 316.281 584.963 317.703C585.145 318.494 585.106 319.319 584.85 320.089Z" fill="black"/>
<path opacity="0.1" d="M574.221 309.995C573.569 311.698 572.473 313.196 571.046 314.331C569.042 315.858 566.696 316.873 564.211 317.288C563.054 317.583 561.84 317.568 560.691 317.245C559.129 316.703 558.002 315.239 556.404 314.817C555.264 314.507 554.039 314.782 552.885 314.613C550.808 314.324 549.196 312.74 547.521 311.473C542.389 307.616 535.653 306.37 530.521 302.512C530.292 302.372 530.104 302.176 529.972 301.942C529.874 301.689 529.837 301.416 529.866 301.147C529.885 298.807 530.411 296.499 531.408 294.382C532.224 292.905 533.196 291.52 534.308 290.25C538.905 284.618 543.523 278.945 549.027 274.193C551.336 272.201 553.856 270.343 556.77 269.442C558.389 268.942 561.585 268.47 563.556 269.315C563.265 269.514 563.003 269.75 562.775 270.019C562.148 270.896 561.672 271.871 561.367 272.905C558.404 280.613 550.47 284.569 544.135 289.82L538.349 294.614C537.56 295.269 536.687 296.226 537.075 297.176C537.341 297.657 537.77 298.027 538.285 298.218C541.65 299.88 545.599 300.548 548.373 303.082C549.386 304.012 550.358 305.236 551.73 305.307C552.455 305.264 553.168 305.105 553.842 304.835C554.901 304.549 556.012 304.511 557.088 304.726C558.164 304.941 559.176 305.403 560.044 306.074C560.536 306.555 561.108 306.948 561.733 307.236C562.256 307.374 562.802 307.407 563.338 307.334C564.837 307.229 566.428 307.095 567.773 307.764C569.117 308.432 570.222 310.009 571.792 310.122C572.574 310.178 573.489 309.91 574.221 309.995Z" fill="black"/>
<path d="M509.48 214.458C508.142 215.317 506.72 216.288 506.171 217.78C505.721 218.998 505.932 220.392 505.39 221.575C504.848 222.757 503.63 223.581 503.363 224.848C503.173 225.77 503.546 226.741 503.363 227.663C503.203 228.143 503.074 228.632 502.976 229.128C502.905 230.176 503.806 231.028 504.686 231.613C506.559 232.831 508.692 233.593 510.914 233.838C513.135 234.082 515.383 233.802 517.476 233.02C519.356 232.316 521.052 231.169 522.854 230.268C524.612 229.256 526.622 228.768 528.648 228.86C529.809 228.987 530.921 229.409 532.083 229.564C532.657 229.677 533.249 229.65 533.81 229.483C534.37 229.316 534.881 229.015 535.3 228.607C535.659 228.112 535.899 227.541 536.004 226.938C536.982 223.074 536.539 218.977 535.61 215.091C534.68 211.206 533.272 207.468 532.28 203.603C531.576 200.738 531.034 197.803 529.858 195.093C528.683 192.383 526.705 189.863 523.938 188.828C523.72 188.721 523.473 188.689 523.235 188.736C523.057 188.811 522.9 188.926 522.777 189.074C520.589 191.393 518.94 194.167 517.948 197.198C516.843 200.569 516.54 204.145 515.527 207.531C515.09 208.939 514.527 210.826 513.415 211.903C512.303 212.98 510.74 213.648 509.48 214.458Z" fill="#3F3D56"/>
<path opacity="0.1" d="M536.026 226.917C535.908 227.522 535.656 228.092 535.287 228.586C534.87 228.996 534.358 229.297 533.797 229.462C533.237 229.628 532.643 229.653 532.07 229.536C530.916 229.395 529.804 228.966 528.642 228.832C526.616 228.738 524.606 229.227 522.849 230.24C521.047 231.141 519.329 232.26 517.464 232.985C514.735 234.02 511.754 234.19 508.925 233.471C507.423 233.093 505.995 232.465 504.702 231.613C503.815 231.035 502.921 230.205 502.991 229.128C503.09 228.634 503.219 228.148 503.378 227.671C503.561 226.748 503.195 225.777 503.378 224.855C503.646 223.588 504.871 222.743 505.406 221.575C505.941 220.406 505.737 219.005 506.18 217.787C506.729 216.288 508.158 215.324 509.495 214.458C510.833 213.592 512.424 212.93 513.494 211.882C513.632 211.718 513.757 211.544 513.867 211.361C514.638 210.171 515.205 208.86 515.542 207.482C516.577 204.089 516.859 200.52 517.957 197.141C518.953 194.113 520.604 191.342 522.793 189.025C522.91 188.874 523.065 188.757 523.243 188.687C523.481 188.639 523.728 188.668 523.947 188.772C526.706 189.813 528.684 192.334 529.867 195.044C531.05 197.754 531.549 200.675 532.289 203.547C533.274 207.412 534.689 211.164 535.618 215.042C536.547 218.921 537.005 223.046 536.026 226.917Z" fill="black"/>
<path opacity="0.1" d="M556.96 141.067C553.65 142.119 550.069 141.91 546.903 140.48C543.738 139.051 541.213 136.502 539.813 133.324C539.868 132.664 539.962 132.008 540.094 131.36C540.798 128.122 543.811 129.304 546.19 130.163C549.054 131.093 551.824 132.293 554.462 133.746C555.265 134.16 555.963 134.753 556.503 135.478C557.545 137.033 557.129 139.103 556.96 141.067Z" fill="black"/>
<path d="M552.708 141.024C560.483 141.024 566.786 134.721 566.786 126.946C566.786 119.17 560.483 112.867 552.708 112.867C544.933 112.867 538.629 119.17 538.629 126.946C538.629 134.721 544.933 141.024 552.708 141.024Z" fill="#BE6F72"/>
<path opacity="0.1" d="M590.91 232.155C590.91 233.323 589.326 233.696 588.151 233.633C583.927 233.387 579.795 232.225 575.614 232.577C570.327 233.056 565.47 235.977 560.17 236.244C558.128 236.35 556.052 236.047 554.038 236.42C551.434 236.906 549.111 238.49 546.457 238.715C544.155 238.912 541.882 238.047 539.58 238.138C537.97 238.234 536.402 238.681 534.983 239.447C535.137 237.957 535.804 236.566 536.87 235.512C538.552 233.858 540.945 234.288 543.268 233.893C545.586 233.393 547.849 232.669 550.026 231.732C556.134 229.326 562.565 227.838 569.109 227.319C575.682 226.796 582.285 227.841 588.376 230.367C589.262 230.726 590.097 231.199 590.861 231.775C590.899 231.897 590.916 232.026 590.91 232.155Z" fill="black"/>
<path d="M546.198 152.653L540.496 150.542L538.088 149.655C537.107 149.244 536.075 148.969 535.019 148.838C532.26 148.627 529.662 150.464 528.191 152.808C526.72 155.152 526.164 157.947 525.692 160.671C525.045 164.397 524.496 168.138 524.045 171.892C523.56 175.282 523.313 178.702 523.306 182.127C523.468 190.841 525.312 199.436 527.339 207.919C528.332 211.68 529.082 215.5 529.585 219.357C529.754 220.948 529.831 222.546 530 224.144C530.183 225.939 530.479 227.713 530.775 229.494L532.471 239.609C534.583 238.11 536.983 236.794 539.581 236.716C541.883 236.632 544.163 237.491 546.458 237.294C549.098 237.075 551.435 235.491 554.039 235.006C556.053 234.633 558.129 234.928 560.178 234.83C565.471 234.562 570.335 231.634 575.615 231.162C579.803 230.782 583.963 231.965 588.159 232.211C589.327 232.282 590.911 231.908 590.911 230.733C590.911 229.916 590.094 229.374 589.383 228.966C586.032 226.948 582.843 224.672 579.845 222.159C577.072 219.963 574.256 217.71 572.348 214.74C567.752 207.595 569.329 197.93 565.408 190.391C562.219 184.267 565.408 176.242 565.408 169.337C565.408 165.894 565.408 162.41 564.598 159.066C564.092 157.196 563.462 155.362 562.712 153.576L559.973 146.642C559.917 146.439 559.804 146.257 559.65 146.114C559.466 145.987 559.247 145.921 559.023 145.924C557.379 145.825 555.757 146.345 554.476 147.381C553.188 148.43 552.364 149.936 551.097 151.027C549.71 152.231 547.922 153.287 546.198 152.653Z" fill="#E3E8F4"/>
<path d="M555.398 148.655C555.848 146.726 556.334 144.72 557.622 143.214C558.91 141.707 561.261 140.912 562.923 141.989C564.809 143.214 564.887 146.043 566.498 147.62C567.906 148.972 570.018 149.077 571.933 149.253C575.375 149.567 578.757 150.363 581.978 151.619C582.606 151.813 583.178 152.156 583.646 152.618C584.526 153.618 584.35 155.152 584.786 156.398C585.385 158.003 587.039 159.024 587.68 160.622C588.384 162.396 587.68 164.381 587.088 166.204C586.025 169.477 585.357 172.877 584.322 176.164C583.287 179.452 581.816 182.69 579.394 185.168C578.324 186.266 576.734 187.279 575.326 186.625L574.784 190.532C574.625 191.357 574.625 192.205 574.784 193.03C574.865 193.444 575.062 193.825 575.351 194.131C575.64 194.438 576.009 194.656 576.417 194.762C576.522 195.368 577.163 195.656 577.684 195.987C578.068 196.25 578.397 196.587 578.65 196.977C578.904 197.368 579.077 197.806 579.16 198.264C579.243 198.722 579.235 199.193 579.135 199.648C579.035 200.103 578.845 200.533 578.578 200.914C578.134 201.513 577.48 201.984 577.269 202.695C576.952 203.723 577.705 204.807 578.62 205.37C579.535 205.933 580.612 206.194 581.541 206.736C583.47 207.848 584.505 210.037 585.167 212.163C585.659 213.768 586.068 215.507 587.278 216.675C587.743 217.119 588.299 217.457 588.743 217.921C589.51 218.828 589.953 219.965 590.003 221.152C590.195 222.624 589.872 224.116 589.087 225.376C587.68 227.389 585.054 227.987 582.752 228.896C579.014 230.43 575.938 233.175 572.644 235.512C571.302 236.593 569.721 237.336 568.033 237.681C565.752 237.983 563.507 236.977 561.212 236.885C559.839 236.898 558.473 237.077 557.143 237.42L552.92 238.335C553.145 235.062 551.343 231.782 550.336 228.663C548.436 222.792 548.084 216.513 548.534 210.361C548.985 204.209 550.238 198.141 551.477 192.101C552.343 187.878 552.258 183.464 553.588 179.36C554.834 175.411 556.615 171.617 557.27 167.506C558.34 160.854 553.891 155.216 555.398 148.655Z" fill="#3F3D56"/>
<path d="M587.419 161.671C587.808 162.386 588.081 163.158 588.229 163.958C588.554 165.198 589.164 166.346 590.01 167.309C590.718 167.934 591.347 168.643 591.882 169.421C592.53 170.646 592.283 172.138 592.586 173.475C592.938 174.933 593.959 176.2 594.107 177.699C594.111 178.129 594.151 178.557 594.226 178.98C594.684 180.684 597.19 181.092 597.746 182.795C598.119 183.901 597.478 185.104 597.598 186.266C597.685 186.625 597.707 186.997 597.661 187.364C597.502 187.779 597.223 188.137 596.859 188.392C594.529 190.617 592.916 193.487 592.227 196.635C591.549 199.765 591.193 202.956 591.164 206.159L588.412 202.519C588.12 202.078 587.748 201.696 587.314 201.393C586.962 201.182 586.553 201.076 586.194 200.865C585.153 200.274 584.744 199.021 584.343 197.895C583.229 194.777 581.559 191.887 579.416 189.363C578.296 188.047 576.994 186.723 576.748 185.013C576.674 184.227 576.717 183.435 576.874 182.662C577.578 178.051 578.332 173.328 580.577 169.238C581.626 167.323 582.985 165.591 583.991 163.649C584.667 162.36 585.617 159.01 587.419 161.671Z" fill="#3F3D56"/>
<path d="M517.977 166.099C517.99 166.691 517.839 167.276 517.541 167.788C517.271 168.1 516.921 168.331 516.528 168.455C516.135 168.579 515.716 168.592 515.316 168.492C514.515 168.291 513.76 167.937 513.092 167.45C511.13 166.211 509.169 164.97 507.207 163.726C506.112 163.066 505.057 162.342 504.046 161.558C502.502 160.255 501.103 158.789 499.872 157.187C496.451 152.963 493.424 148.381 489.616 144.516C488.581 143.46 487.504 142.447 486.505 141.341C485.138 139.744 483.883 138.055 482.746 136.287C481.648 134.661 480.507 132.859 480.697 130.916C480.81 129.818 481.338 128.805 481.493 127.713C481.648 126.622 481.232 125.292 480.176 124.996C480.052 124.965 479.924 124.944 479.796 124.933C479.588 124.911 479.382 124.866 479.184 124.799C478.205 124.391 478.353 122.877 479.057 122.082C479.761 121.287 480.803 120.843 481.443 119.97C481.741 119.452 482.075 118.956 482.443 118.485C482.914 118.081 483.477 117.798 484.083 117.661C488.144 116.465 492.439 116.303 496.578 117.19C497.282 117.345 498.084 117.626 498.295 118.309C498.38 118.642 498.38 118.99 498.295 119.323C497.985 120.711 497.806 122.125 497.76 123.546C497.759 123.843 497.776 124.139 497.81 124.433C498.141 127.418 500.076 129.945 501.963 132.275C504.201 135.048 506.475 137.801 508.756 140.546C509.989 142.137 511.368 143.61 512.874 144.946C514.282 146.114 516.105 147.057 517.203 148.557C518.097 149.767 517.808 151.422 517.907 152.879C518.234 157.278 518.258 161.696 517.977 166.099Z" fill="#3F3D56"/>
<path d="M607.375 195.466C608.07 194.79 608.698 194.048 609.248 193.249C609.839 192.259 610.312 191.203 610.655 190.102L614.738 178.523C615.386 176.693 616.033 174.855 616.85 173.074C617.695 171.153 618.694 169.301 619.616 167.443C621.988 162.553 623.822 157.419 625.086 152.133C625.308 151.406 625.382 150.643 625.304 149.887C625.107 148.669 624.185 147.719 623.305 146.853C622.42 145.898 621.412 145.064 620.306 144.375C619.751 144.03 619.133 143.799 618.488 143.695C617.842 143.591 617.183 143.617 616.547 143.77C614.745 144.298 613.612 146.142 613.197 147.994C612.781 149.845 612.936 151.738 612.76 153.625C612.507 156.328 611.578 158.94 611.352 161.65C611.233 163.22 611.352 164.803 611.162 166.366C610.816 168.418 610.1 170.391 609.05 172.188C606.763 176.468 603.673 180.268 599.949 183.38C598.928 184.133 598.01 185.016 597.217 186.006C596.555 186.996 596.107 188.113 595.901 189.286C595.433 191.072 595.636 192.968 596.471 194.615C597.619 196.572 599.822 197.43 601.927 197.867C604.771 198.458 605.425 197.487 607.375 195.466Z" fill="#BE6F72"/>
<path d="M552.793 106.546C553.399 105.408 554.327 104.473 555.461 103.858C556.595 103.243 557.885 102.976 559.17 103.09C560.465 103.319 561.669 103.906 562.647 104.785C563.625 105.663 564.337 106.798 564.703 108.06C565.034 109.109 565.168 110.27 565.745 111.171C566.618 112.53 568.237 112.924 569.448 113.909C570.171 114.581 570.752 115.39 571.159 116.29C571.565 117.189 571.787 118.16 571.813 119.147C571.88 121.162 571.563 123.171 570.877 125.067C570.586 125.876 570.351 126.703 570.173 127.545C570.032 128.361 570.018 129.192 569.891 130.008C569.735 131.067 569.369 132.084 568.814 132.999C568.259 133.914 567.527 134.709 566.66 135.337C566.413 135.538 566.106 135.65 565.787 135.654C565.238 135.59 564.9 134.95 564.696 134.373C563.577 131.142 563.845 127.193 561.782 124.616C560.844 123.577 559.71 122.733 558.445 122.131C557.93 121.799 557.349 121.58 556.742 121.491C555.849 121.539 554.991 121.853 554.278 122.392C552.792 123.388 551.144 124.117 549.407 124.546C548.54 124.751 547.639 124.76 546.768 124.573C545.897 124.385 545.079 124.006 544.374 123.462C543.403 122.659 542.692 121.456 541.615 120.829C540.538 120.203 539.411 120.238 538.348 119.808C537.671 119.52 537.068 119.081 536.586 118.525C536.104 117.969 535.755 117.31 535.567 116.598C535.378 115.887 535.354 115.141 535.497 114.419C535.64 113.697 535.946 113.017 536.391 112.431C537.095 111.587 538.137 111.108 538.764 110.172C539.573 108.961 539.503 107.3 539.89 105.85C540.119 104.932 540.564 104.083 541.187 103.371C541.81 102.66 542.594 102.108 543.473 101.76C544.326 101.47 545.241 101.415 546.122 101.599C547.004 101.784 547.82 102.201 548.485 102.809C549.189 103.442 549.752 104.259 550.442 104.92C551.123 105.572 551.957 106.043 552.867 106.289C553.777 106.535 554.734 106.548 555.651 106.328" fill="#3F3D56"/>
<path opacity="0.1" d="M564.365 210.157C563.955 210.522 563.665 211.002 563.532 211.534C563.399 212.067 563.429 212.627 563.619 213.142C563.774 213.472 571.038 212.072 571.806 211.966C573.72 211.692 577.078 211.825 578.366 210.073C580.661 206.968 573.551 207.658 572.249 207.771C569.771 207.982 566.252 208.32 564.365 210.157Z" fill="black"/>
<path d="M498.281 119.351C497.971 120.739 497.792 122.153 497.746 123.574C495.635 124.004 493.438 123.3 491.411 122.596L485.59 120.611C485.235 120.384 484.808 120.301 484.395 120.379C483.982 120.456 483.614 120.687 483.365 121.026C482.429 121.998 481.141 123.842 479.845 124.933C479.637 124.911 479.432 124.866 479.233 124.799C478.255 124.391 478.402 122.877 479.106 122.082C479.81 121.287 480.852 120.843 481.493 119.97C481.791 119.452 482.125 118.956 482.492 118.485C482.964 118.081 483.527 117.798 484.132 117.661C488.193 116.465 492.488 116.303 496.627 117.19C497.331 117.345 498.134 117.626 498.345 118.309C498.413 118.656 498.391 119.015 498.281 119.351Z" fill="#3F3D56"/>
<path opacity="0.1" d="M498.281 119.351C497.971 120.739 497.792 122.153 497.746 123.574C495.635 124.004 493.438 123.3 491.411 122.596L485.59 120.611C485.235 120.384 484.808 120.301 484.395 120.379C483.982 120.456 483.614 120.687 483.365 121.026C482.429 121.998 481.141 123.842 479.845 124.933C479.637 124.911 479.432 124.866 479.233 124.799C478.255 124.391 478.402 122.877 479.106 122.082C479.81 121.287 480.852 120.843 481.493 119.97C481.791 119.452 482.125 118.956 482.492 118.485C482.964 118.081 483.527 117.798 484.132 117.661C488.193 116.465 492.488 116.303 496.627 117.19C497.331 117.345 498.134 117.626 498.345 118.309C498.413 118.656 498.391 119.015 498.281 119.351Z" fill="black"/>
<path opacity="0.1" d="M551.534 252.991C552.547 253.329 553.645 253.822 553.99 254.835L545.839 252.766L541.615 251.689C540.869 251.499 538.194 251.28 537.702 250.696C536.998 249.837 539.497 250.429 539.947 250.492C541.313 250.696 542.678 250.907 544.037 251.154C546.599 251.611 549.063 252.365 551.534 252.991Z" fill="black"/>
<path opacity="0.1" d="M554.694 260.206C553.99 259.735 551.97 259.791 551.104 259.587C549.837 259.284 548.591 258.883 547.345 258.496C544.818 257.672 542.312 256.736 539.715 256.131C539.236 256.025 537.603 255.997 537.68 255.391C537.758 254.786 539.313 254.575 539.701 254.547C542.002 254.378 544.874 255.455 547.014 256.222C549.742 257.199 552.325 258.539 554.694 260.206Z" fill="black"/>
<path opacity="0.1" d="M549.526 246.557C546.943 245.853 544.599 244.248 541.938 243.939C541.244 243.965 540.562 243.757 540.002 243.347C539.689 243.04 539.472 242.649 539.376 242.221C541.157 242.129 543.226 242.883 544.845 243.594C545.736 243.976 546.593 244.433 547.407 244.959C547.999 245.318 548.886 246.353 549.526 246.557Z" fill="black"/>
<path d="M598.773 183.528C598.336 186.454 598.968 189.44 600.553 191.939C602.138 194.438 604.57 196.282 607.403 197.135C607.058 198.803 605.334 199.725 604.116 200.915C602.398 202.583 601.511 205.082 599.484 206.349C597.224 207.757 594.317 207.208 591.741 206.617C591.507 206.59 591.291 206.477 591.136 206.3C591.082 206.215 591.044 206.123 591.023 206.025C590.171 202.907 589.615 199.577 590.488 196.452C591.192 193.791 592.881 191.524 594.233 189.173C595.584 186.822 595.711 184.302 598.773 183.528Z" fill="#3F3D56"/>
<path d="M535.835 143.164C533.11 143.363 530.465 144.168 528.092 145.522C526.515 146.423 524.896 147.634 523.094 147.416C522.031 147.296 520.982 146.712 519.948 146.994C519.365 147.229 518.821 147.552 518.336 147.951C518.089 148.147 517.797 148.276 517.486 148.325C517.175 148.375 516.856 148.343 516.562 148.232L515.858 157.975C515.59 161.677 515.33 165.458 516.217 169.069C516.674 170.913 517.681 172.588 517.794 174.461C517.906 176.333 517.737 178.255 517.871 180.148C517.998 181.901 518.385 183.626 518.483 185.379C518.68 188.687 517.864 191.967 517.076 195.184C515.886 199.929 515.168 204.779 512.852 209.073C512.204 210.262 511.444 211.473 511.444 212.825C511.444 212.994 511.444 213.156 511.486 213.317C510.782 213.705 510.128 214.071 509.529 214.451C508.192 215.317 506.763 216.281 506.214 217.78C505.77 218.998 505.975 220.392 505.44 221.567C504.905 222.743 503.68 223.581 503.412 224.848C503.222 225.77 503.588 226.741 503.412 227.664C503.253 228.141 503.124 228.627 503.025 229.121C502.955 230.177 503.849 231.028 504.736 231.605C506.029 232.458 507.457 233.086 508.959 233.464L513.162 216.781C516.993 209.697 520.181 202.283 522.686 194.628C523.402 192.126 524.323 189.687 525.438 187.336C526.235 186.005 526.94 184.622 527.55 183.196C528.191 181.423 528.254 179.501 528.564 177.628C528.931 175.443 529.485 173.293 530.218 171.202C530.978 168.942 531.858 166.689 532.013 164.317C532.245 160.924 531.013 157.341 532.323 154.202C532.878 153.027 533.602 151.938 534.47 150.971C536.286 148.746 537.94 146.416 539.756 144.192C538.813 143.185 537.243 143.08 535.835 143.164Z" fill="#3F3D56"/>
<g opacity="0.1">
<path opacity="0.1" d="M555.673 104.23L554.793 104.294L554.695 104.364C555.024 104.351 555.352 104.306 555.673 104.23Z" fill="black"/>
<path opacity="0.1" d="M571.778 118.844C571.632 120.243 571.329 121.622 570.877 122.955C570.586 123.764 570.351 124.591 570.173 125.432C570.033 126.249 570.019 127.08 569.892 127.896C569.736 128.955 569.37 129.972 568.815 130.887C568.26 131.802 567.528 132.597 566.661 133.225C566.414 133.426 566.106 133.538 565.788 133.542C565.239 133.478 564.901 132.838 564.697 132.261C563.578 129.03 563.845 125.08 561.783 122.504C560.844 121.465 559.711 120.62 558.446 120.019C557.93 119.687 557.35 119.468 556.743 119.379C555.85 119.427 554.992 119.74 554.279 120.28C552.793 121.276 551.145 122.005 549.408 122.434C548.541 122.639 547.639 122.648 546.769 122.461C545.898 122.273 545.08 121.894 544.375 121.35C543.403 120.547 542.692 119.344 541.615 118.717C540.538 118.091 539.412 118.126 538.349 117.696C537.685 117.413 537.093 116.983 536.618 116.44C536.143 115.896 535.796 115.253 535.604 114.557C535.579 114.469 535.56 114.38 535.547 114.289C535.371 115.075 535.391 115.892 535.604 116.669C535.796 117.364 536.143 118.008 536.618 118.552C537.093 119.095 537.685 119.524 538.349 119.808C539.412 120.237 540.609 120.245 541.615 120.829C542.622 121.413 543.403 122.659 544.375 123.461C545.08 124.005 545.898 124.385 546.769 124.573C547.639 124.76 548.541 124.751 549.408 124.546C551.145 124.117 552.793 123.388 554.279 122.391C554.992 121.852 555.85 121.538 556.743 121.49C557.35 121.58 557.93 121.798 558.446 122.131C559.695 122.744 560.812 123.595 561.733 124.637C563.796 127.213 563.528 131.162 564.648 134.393C564.852 134.978 565.19 135.611 565.739 135.675C566.077 135.676 566.404 135.556 566.661 135.337C567.531 134.707 568.266 133.909 568.822 132.99C569.379 132.071 569.745 131.05 569.899 129.987C570.026 129.17 570.04 128.34 570.181 127.523C570.358 126.682 570.594 125.854 570.884 125.045C571.57 123.149 571.888 121.14 571.821 119.125C571.807 119.041 571.793 118.942 571.778 118.844Z" fill="black"/>
</g>
<path d="M527.241 175.327L526.762 181.754C526.691 182.627 525.023 203.407 512.719 227.692C502.16 248.521 481.612 275.651 442.819 290.898C439.792 292.094 436.65 293.211 433.393 294.248L429.761 282.845C438.88 279.975 447.664 276.133 455.961 271.385C475.734 259.967 491.108 243.671 501.829 222.701C507.517 211.536 511.571 199.612 513.866 187.294H469.73V175.327H527.241Z" fill="#6C63FF"/>
<path opacity="0.1" d="M438.068 290.904C476.854 275.657 497.409 248.535 507.961 227.706C520.265 203.42 521.941 182.654 522.004 181.768L522.483 175.341H527.41L526.932 181.768C526.868 182.64 525.193 203.42 512.888 227.706C502.329 248.535 481.782 275.657 442.996 290.904C439.969 292.101 436.824 293.22 433.563 294.262L433.084 292.763C434.783 292.157 436.444 291.538 438.068 290.904Z" fill="white"/>
<path d="M360.41 282.845L356.778 294.248C353.517 293.206 350.372 292.087 347.346 290.891C308.559 275.644 288.005 248.521 277.453 227.692C265.148 203.407 263.473 182.641 263.409 181.754L262.931 175.327H320.413V187.294H276.27C278.578 199.614 282.643 211.538 288.343 222.701C299.063 243.671 314.43 259.967 334.203 271.378C342.502 276.131 351.288 279.975 360.41 282.845Z" fill="#6C63FF"/>
<path opacity="0.1" d="M352.089 290.904C313.303 275.657 292.748 248.535 282.196 227.706C269.892 203.42 268.216 182.654 268.153 181.768L267.674 175.341H262.747L263.225 181.768C263.289 182.64 264.964 203.42 277.269 227.706C287.828 248.535 308.375 275.657 347.161 290.904C350.188 292.101 353.333 293.22 356.594 294.262L357.073 292.763C355.379 292.157 353.717 291.538 352.089 290.904Z" fill="white"/>
<path d="M461.487 393.079V457.608H328.678V393.079L332.901 387.448C375.939 372.173 384.661 332.338 386.4 316.577C386.658 314.399 386.806 312.209 386.843 310.016H403.266C403.302 312.209 403.45 314.399 403.709 316.577C405.476 332.338 414.198 372.187 457.207 387.448L461.487 393.079Z" fill="#6C63FF"/>
<path opacity="0.1" d="M461.487 393.079H328.678V401.174H461.487V393.079Z" fill="black"/>
<path opacity="0.1" d="M339.94 387.448C382.978 372.173 391.7 332.338 393.439 316.577C393.698 314.399 393.846 312.209 393.882 310.016H386.843C386.806 312.209 386.658 314.399 386.4 316.577C384.633 332.338 375.911 372.187 332.901 387.448L328.678 393.079V457.608H335.717V393.079L339.94 387.448Z" fill="white"/>
<path opacity="0.1" d="M308.503 175.327H320.413V187.294H309.559C309.132 183.352 308.78 179.363 308.503 175.327Z" fill="black"/>
<path opacity="0.1" d="M360.41 282.844L356.778 294.248C353.516 293.206 350.372 292.087 347.345 290.89C342.366 284.81 337.966 278.277 334.203 271.377C342.501 276.131 351.287 279.975 360.41 282.844Z" fill="black"/>
<path opacity="0.1" d="M429.753 282.845C438.872 279.975 447.656 276.133 455.953 271.385C452.188 278.285 447.788 284.82 442.811 290.905C439.784 292.101 436.642 293.218 433.385 294.255L429.753 282.845Z" fill="black"/>
<path opacity="0.1" d="M481.654 175.327C481.377 179.363 481.025 183.352 480.598 187.294H469.751V175.327H481.654Z" fill="black"/>
<path opacity="0.1" d="M403.737 316.577C398.02 317.684 392.144 317.684 386.428 316.577C386.686 314.399 386.834 312.209 386.871 310.016H403.294C403.33 312.209 403.478 314.399 403.737 316.577Z" fill="black"/>
<path d="M309.91 155.505C310.213 244.241 348.225 316 395.085 316C441.946 316 479.951 244.241 480.26 155.505H309.91Z" fill="#6C63FF"/>
<path opacity="0.1" d="M325.045 155.505H309.91C310.213 244.241 348.225 316 395.085 316C397.621 315.995 400.152 315.781 402.652 315.359C359.333 308.123 325.333 239.412 325.045 155.505Z" fill="white"/>
<path d="M440.249 417.78H349.914V441.01H440.249V417.78Z" fill="#3F3D56"/>
<path opacity="0.1" d="M354.137 420.948H440.249V417.78H349.914V441.01H354.137V420.948Z" fill="white"/>
<path d="M261.734 241.179C260.108 240.637 250.535 233.063 249.81 229.635C249.085 226.207 254.871 194.269 254.871 194.269C254.871 194.269 254.336 194.269 253.463 194.164V193.65L254.653 151.696C254.653 151.696 259.531 123.539 250.316 125.179C241.102 126.819 246.881 151.696 246.881 151.696C246.881 151.696 245.832 164.324 245.093 168.112C244.389 171.765 241.165 186.646 243.362 191.271C243.442 191.435 243.531 191.595 243.629 191.749C243.629 191.749 243.995 207.623 240.018 209.791C236.224 211.853 234.647 222.236 234.513 223.166L234.309 223.081C233.176 222.372 232.182 221.464 231.374 220.399C231.289 220.294 231.226 220.181 231.149 220.068C233.739 217.155 235.134 213.371 235.057 209.474C234.98 205.576 233.436 201.851 230.733 199.042C229.476 197.737 228.002 196.66 226.376 195.86C226.329 194.515 226.01 193.194 225.44 191.975C223.61 188.061 213.473 182.943 206.272 182.824C202.949 182.725 200.225 183.668 199.233 186.266C198.726 187.582 198.881 189.081 198.669 190.447C198.247 193.263 196.438 195.466 194.115 197.219C193.177 196.172 192.163 195.195 191.081 194.298C188.73 192.496 184.042 186.554 184.042 186.554C184.042 186.554 169.407 171.399 168.323 167.246C167.239 163.093 152.619 138.152 149.366 142.496C146.114 146.839 160.566 165.767 160.566 165.767C160.566 165.767 163.311 172.645 165.423 174.968C167.535 177.291 183.725 200.802 183.725 200.802L184.499 202.407C181.078 204.209 177.953 206.504 176.848 210.08C175.229 215.345 178.769 220.638 181.219 225.566C185.992 235.182 186.675 247.444 180.515 256.229C174.996 263.986 165.423 267.675 156.462 270.899C160.79 274.297 166.166 276.082 171.667 275.946C169.597 281.943 162.262 283.928 156.012 285.041C159.292 288.194 163.987 289.342 168.492 290.039C170.699 290.414 172.934 290.591 175.172 290.566H175.721L176.271 290.524C177.034 290.474 177.793 290.377 178.544 290.236C181.796 289.574 184.957 287.8 186.618 284.928C188.026 282.471 188.519 279.121 191.074 277.889C191.739 277.588 192.456 277.419 193.186 277.389H193.108C193.587 277.389 194.08 277.389 194.559 277.389L205.209 277.495C205.652 277.495 206.11 277.495 206.568 277.495C209.573 277.424 212.783 276.903 214.311 274.418C214.939 273.212 215.27 271.872 215.275 270.512C215.5 267.14 215.275 263.669 215.367 260.27C216.275 266.457 217.225 276.101 214.965 279.663C213.13 282.362 210.905 284.774 208.363 286.822C207.723 287.359 207.138 287.958 206.617 288.61C206.272 288.856 206.068 288.99 206.068 288.99L205.849 289.644C205.047 290.861 204.466 292.21 204.132 293.629C204.009 293.993 203.963 294.379 203.998 294.762C204.245 295.262 202.238 297.324 202.823 298.19C197.811 304.068 196.86 312.972 196.86 312.972L187.709 326.868C183.007 339.222 175.968 340.489 175.968 340.489C175.968 340.489 159.433 329.395 158.982 328.853C158.532 328.311 152.21 325.601 152.21 325.601C151.465 324.294 150.327 323.255 148.958 322.63C146.79 321.729 146.607 318.407 146.607 318.407C146.34 310.558 141.729 309.96 141.729 309.96C138.012 309.643 135.175 310.305 132.993 311.515L132.331 311.565C129.136 311.825 125.292 312.114 121.069 312.395C109.32 313.17 106.526 320.779 106.526 320.779C106.526 320.779 105.082 322.405 106.976 324.165C108.87 325.925 120.991 324.165 121.505 324.123C120.581 324.223 119.647 324.158 118.746 323.933C120.653 323.862 123.279 323.792 125.517 323.792H126.059C125.919 324.978 125.85 326.173 125.855 327.368C125.855 329.62 132.085 331.063 132.085 331.063L151.056 347.958C151.056 347.958 162.98 353.286 170.569 360.952C178.157 368.618 184.865 362.001 184.865 362.001C192.897 360.016 216.007 332.077 216.028 332.049C216.028 332.865 216.514 360.037 217.436 365.492C217.473 365.769 217.541 366.041 217.64 366.302C218.724 368.646 217.274 375.052 216.648 377.755C216.248 380.017 216.095 382.316 216.19 384.611C216.19 384.611 207.525 417.696 208.243 420.603C208.961 423.51 203.548 437.018 203.548 437.018V448.281L204.491 448.232C204.368 448.413 204.255 448.601 204.153 448.795L204.09 448.915C204.09 448.915 209.869 450.175 213.755 449.816C217.64 449.457 224.313 452.807 224.313 452.807C224.313 452.807 226.573 453.877 233.528 454.328C240.483 454.778 240.483 451.259 240.483 451.259C239.687 446.465 228.699 444.86 228.361 444.811C227.474 444.255 226.643 443.649 225.961 443.128L225.82 443.016C225.866 442.91 225.906 442.802 225.94 442.692C227.115 437.905 220.611 435.829 220.611 435.829V434.66C224.834 432.492 225.672 417.611 225.672 417.611C225.672 417.611 232.007 399.21 232.894 396.141C233.781 393.072 232.894 388.476 232.894 388.476L233.528 384.505C233.528 384.505 234.886 381.802 234.886 381.26C235.062 379.887 235.591 378.582 236.421 377.473C237.414 376.298 235.337 373.503 235.337 373.503L237.146 368.815V363.669L241.37 345.001C241.37 345.001 245.797 323.257 244.263 316.14C242.728 309.023 246.072 305.405 246.072 305.405C245.77 305.564 245.46 305.705 245.143 305.828C245.565 304.851 245.93 303.849 246.234 302.829L255.737 304.004V304.145H259.165C259.165 304.145 258.081 290.771 258.081 285.379C258.081 279.986 261.734 260.636 261.734 260.636C261.734 260.636 263.36 241.721 261.734 241.179ZM219.548 225.566C219.548 226.094 219.499 226.643 219.463 227.206L219.273 227.495L218.921 227.199L218.492 227.868L218.365 227.931C217.436 227.452 216.957 224.714 216.289 225.305L216.197 225.383C216.049 225.214 215.902 225.165 215.747 225.305L215.606 225.425C215.606 225.221 215.606 225.01 215.606 224.799C216.894 225.13 218.218 225.298 219.548 225.298C219.555 225.39 219.548 225.481 219.548 225.566ZM251.154 287.849H251.358L251.02 288.736C251.063 288.441 251.105 288.152 251.154 287.849ZM216.458 447.479L215.162 447.155L215.866 447.035L216.521 447.465L216.598 447.521L216.458 447.479ZM229.691 445.585C229.262 445.36 228.826 445.099 228.403 444.832C228.544 444.909 229.1 445.198 229.691 445.585Z" fill="url(#paint1_linear_117:453)"/>
<path d="M255.827 274.552L247.303 296.768H249.372L241.354 303.16L255.827 304.962V274.552Z" fill="#F86D70"/>
<path opacity="0.1" d="M255.827 274.552L247.303 296.768L245.156 296.191L241.354 303.16L255.827 304.962V274.552Z" fill="black"/>
<path d="M242.461 288.764H255.828L260.735 248.394H242.461V288.764Z" fill="#F86D70"/>
<path opacity="0.1" d="M242.461 288.764H255.828L260.735 248.394H242.461V288.764Z" fill="black"/>
<path d="M216.353 257.954L219.239 257.468L225.87 256.342C225.87 256.342 245.784 251.851 249.895 251.485C252.385 251.156 254.814 250.463 257.103 249.429C258.18 248.965 258.863 248.613 258.863 248.613L251.69 235.513L240.561 227.263C240.561 227.263 233.521 225.763 230.544 221.666C229.879 220.785 229.447 219.751 229.285 218.659C229.124 217.566 229.24 216.451 229.622 215.416C231.438 209.784 218.774 220.801 218.774 220.801C218.774 220.801 218.894 223.44 218.774 226.805C218.774 227.467 218.711 228.157 218.661 228.861C218.661 229.325 218.598 229.79 218.549 230.268C218.239 233.612 217.606 237.054 216.353 239.11C213.291 244.136 216.353 257.954 216.353 257.954Z" fill="#FBBEBE"/>
<path opacity="0.1" d="M218.774 227.086H219.055C219.562 227.086 219.971 226.009 220.463 225.96C224.426 225.58 228.045 224.749 230.558 221.941C229.895 221.06 229.463 220.027 229.302 218.936C229.141 217.845 229.256 216.732 229.635 215.697C231.452 210.065 218.788 221.075 218.788 221.075C218.788 221.075 218.922 223.722 218.774 227.086Z" fill="black"/>
<path d="M203.358 211.121C203.357 213.148 203.755 215.155 204.53 217.027C205.305 218.9 206.442 220.601 207.875 222.034C209.308 223.467 211.009 224.604 212.882 225.379C214.754 226.154 216.761 226.552 218.788 226.551C219.294 226.551 219.794 226.551 220.294 226.481C223.267 226.189 226.092 225.041 228.425 223.175C230.758 221.309 232.499 218.806 233.437 215.97C234.375 213.134 234.47 210.086 233.709 207.197C232.949 204.308 231.366 201.702 229.153 199.695C226.94 197.688 224.192 196.367 221.243 195.891C218.294 195.416 215.27 195.807 212.538 197.017C209.807 198.227 207.485 200.203 205.856 202.707C204.226 205.211 203.358 208.134 203.358 211.121Z" fill="#FBBEBE"/>
<path d="M198.619 187.702C198.112 189.011 198.267 190.475 198.063 191.862C197.31 196.867 192.22 199.866 187.617 201.964C183.013 204.061 177.818 206.546 176.354 211.382C174.749 216.612 178.254 221.857 180.69 226.763C185.434 236.322 186.11 248.514 179.986 257.257C174.545 265 165.063 268.675 156.137 271.899C160.433 275.278 165.772 277.055 171.236 276.925C169.188 282.887 161.902 284.865 155.694 285.963C158.953 289.103 163.62 290.243 168.09 290.933C171.349 291.44 174.693 291.77 177.945 291.116C181.197 290.461 184.28 288.694 185.955 285.836C187.363 283.394 187.842 280.064 190.383 278.832C191.53 278.381 192.766 278.2 193.994 278.304L204.553 278.417C207.84 278.417 211.733 278.164 213.43 275.355C214.055 274.155 214.384 272.822 214.387 271.469C214.845 264.543 213.514 257.222 216.365 250.9C217.224 248.993 211.712 245.973 212.289 243.953C214.274 237.005 214.774 231.535 214.753 224.306C214.753 218.71 218.392 213.888 221.398 209.165C224.404 204.441 226.917 198.479 224.545 193.411C221.87 187.758 201.78 179.544 198.619 187.702Z" fill="#3F3D56"/>
<path d="M212.677 445.451L215.366 447.232L215.782 447.507L215.859 447.556L219.048 449.668L226.495 450.921L233.042 450.47C233.042 450.47 234.928 446.528 231.965 446.62C231.016 446.571 230.091 446.304 229.262 445.838L228.853 445.634C228.424 445.409 227.995 445.156 227.572 444.888C226.692 444.332 225.862 443.727 225.193 443.213C224.208 442.452 223.553 441.875 223.553 441.875L212.677 445.451Z" fill="#FBBEBE"/>
<path opacity="0.1" d="M215.401 447.232L215.816 447.507L215.894 447.556L219.083 449.668L226.53 450.921L233.077 450.47C233.077 450.47 234.963 446.529 232 446.62C231.05 446.571 230.125 446.304 229.297 445.839C229.818 446.247 230.254 446.69 230.296 447.063C230.416 448.07 225.453 449.879 225.453 449.879L218.456 448.028C218.456 448.028 217.267 447.69 215.64 447.268L215.486 447.225L215.401 447.232Z" fill="black"/>
<path d="M203.435 448.95C203.435 448.95 209.172 450.203 213.029 449.844C216.887 449.485 223.532 452.807 223.532 452.807C223.532 452.807 225.777 453.863 232.683 454.314C239.588 454.764 239.588 451.258 239.588 451.258C238.8 446.493 227.889 444.923 227.551 444.853C227.685 444.923 228.255 445.212 228.832 445.599C229.607 446.106 230.444 446.767 230.508 447.302C230.627 448.302 225.665 450.118 225.665 450.118L218.668 448.274C218.668 448.274 217.478 447.929 215.852 447.507H215.697C213.286 446.85 210.836 446.344 208.362 445.993C205.349 445.669 203.808 448.232 203.491 448.809C203.468 448.854 203.449 448.901 203.435 448.95Z" fill="#3F3D56"/>
<path d="M113.008 322.363L116.056 324.7C116.056 324.7 116.943 324.658 118.266 324.616H118.688C120.582 324.545 123.194 324.475 125.411 324.475C126.844 324.41 128.28 324.49 129.698 324.714C131.218 325.249 133.921 316.014 133.921 316.014L130.866 315.31L129.853 315.07L129.149 314.901L126.664 314.317L119.132 315.176L113.838 318.583L113.008 322.363Z" fill="#FBBEBE"/>
<path opacity="0.1" d="M113.008 322.363L116.056 324.7C116.056 324.7 116.943 324.658 118.266 324.616C117.659 324.381 117.158 323.933 116.858 323.356C114.887 317.886 124.665 315.549 124.665 315.549L129.219 315.352L130.106 315.31H130.81L129.796 315.07L129.092 314.901L126.608 314.317L119.076 315.176L113.782 318.583L113.008 322.363Z" fill="black"/>
<path d="M106.997 324.834C108.841 326.537 120.92 324.834 121.427 324.791C120.51 324.895 119.583 324.83 118.689 324.601C118.246 324.522 117.827 324.345 117.462 324.083C117.097 323.821 116.794 323.481 116.577 323.088C114.606 317.611 124.384 315.281 124.384 315.281L128.938 315.084L129.818 315.042L140.891 314.563L141.426 311.515C141.426 311.515 137.829 311.853 132.183 312.304C129.008 312.564 125.144 312.853 120.97 313.127C109.306 313.902 106.532 321.469 106.532 321.469C106.532 321.469 105.117 323.088 106.997 324.834Z" fill="#3F3D56"/>
<path d="M242.468 192.707C242.543 192.874 242.633 193.034 242.736 193.186L245.425 197.128L252.422 197.831L252.499 195.058L253.675 153.329C253.675 153.329 258.518 125.341 249.367 126.953C240.216 128.565 245.96 153.329 245.96 153.329C245.96 153.329 244.918 165.887 244.186 169.66C243.475 173.307 240.286 188.131 242.468 192.707Z" fill="#FBBEBE"/>
<path d="M226.763 296.353L228.755 299.76L233.211 307.384C233.211 307.384 241.292 310.347 243.362 308.087C244.495 306.856 245.72 302.555 246.579 298.936C247.283 296.008 247.754 293.537 247.754 293.537L226.763 296.353Z" fill="#FBBEBE"/>
<path opacity="0.1" d="M226.763 296.353L228.755 299.76C228.88 299.652 228.993 299.532 229.093 299.401C231.346 296.529 241.264 298.788 246.579 298.971C247.283 296.043 247.754 293.572 247.754 293.572L226.763 296.353Z" fill="black"/>
<path opacity="0.1" d="M125.411 324.461C126.845 324.396 128.281 324.476 129.698 324.7C131.219 325.235 133.922 315.999 133.922 315.999L129.853 315.042L140.926 314.563L141.461 311.515C141.461 311.515 137.864 311.853 132.218 312.304C131.052 312.975 130.011 313.845 129.142 314.873L128.973 315.084C126.615 317.977 125.742 321.708 125.411 324.461Z" fill="black"/>
<path opacity="0.1" d="M212.677 445.452L215.782 447.507C220.413 446.669 224.644 445.353 225.144 443.283C225.146 443.251 225.146 443.218 225.144 443.185C224.158 442.425 223.504 441.847 223.504 441.847L212.677 445.452Z" fill="black"/>
<path opacity="0.1" d="M203.498 448.83C207.589 448.627 211.664 448.19 215.704 447.521C213.291 446.859 210.839 446.349 208.362 445.994C205.357 445.67 203.815 448.232 203.498 448.83Z" fill="black"/>
<path d="M125.75 328.015C125.75 330.261 131.937 331.697 131.937 331.697L150.781 348.471C150.781 348.471 162.621 353.765 170.153 361.389C177.685 369.012 184.33 362.465 184.33 362.465C192.313 360.495 215.303 332.682 215.303 332.682C215.303 332.682 215.838 364.444 216.915 366.774C217.992 369.104 216.556 375.474 215.929 378.17C215.534 380.419 215.383 382.703 215.479 384.984C215.479 384.984 206.87 417.907 207.588 420.779C208.306 423.651 202.921 437.11 202.921 437.11V448.323C202.921 448.323 224.004 447.514 225.165 442.762C226.326 438.011 219.878 435.941 219.878 435.941V434.773C224.102 432.619 224.897 417.822 224.897 417.822C224.897 417.822 231.184 399.52 232.078 396.472C232.972 393.424 232.078 388.842 232.078 388.842L232.704 384.9C232.704 384.9 234.049 382.204 234.049 381.669C234.224 380.303 234.751 379.005 235.576 377.903C236.562 376.734 234.499 373.954 234.499 373.954L236.294 369.287V364.176L240.518 345.607C240.518 345.607 244.917 323.982 243.39 316.893C241.862 309.805 245.185 306.222 245.185 306.222C237.983 309.995 234.351 301.597 233.162 297.986C232.859 297.057 232.711 296.437 232.711 296.437C232.711 296.437 222.821 292.791 213.614 293.664C211.744 293.815 209.901 294.206 208.13 294.825C197.902 298.507 196.29 313.754 196.29 313.754L187.23 327.572C182.563 339.862 175.566 341.115 175.566 341.115C175.566 341.115 159.151 330.085 158.672 329.543C158.193 329.001 151.943 326.312 151.943 326.312C151.204 325.011 150.073 323.976 148.712 323.355C146.558 322.454 146.382 319.132 146.382 319.132C146.114 311.325 141.539 310.685 141.539 310.685C125.658 309.361 125.75 325.777 125.75 328.015Z" fill="#3F3D56"/>
<path d="M217.077 284.154H226.763V254.103H217.077V284.154Z" fill="#F86D70"/>
<path opacity="0.1" d="M217.077 284.154H226.763V254.103H217.077V284.154Z" fill="black"/>
<path opacity="0.1" d="M242.46 192.643C242.459 192.664 242.459 192.686 242.46 192.707C242.535 192.874 242.625 193.034 242.728 193.185L245.417 197.127L252.414 197.831L252.491 195.058C250.309 194.889 245.339 194.29 242.46 192.643Z" fill="black"/>
<path d="M242.735 193.185C242.735 193.185 243.094 208.967 239.145 211.121C235.196 213.275 233.662 224.496 233.662 224.496C233.662 224.496 245.628 232.366 248.296 235.829C250.964 239.292 257.088 247.542 255.828 249.513C254.568 251.484 258.883 260.46 258.883 260.46C258.883 260.46 250.985 276.608 252.78 282.711C254.575 288.814 254.751 304.955 254.751 304.955H258.165C258.165 304.955 257.088 291.679 257.088 286.294C257.088 280.909 260.671 261.712 260.671 261.712C260.671 261.712 262.29 242.875 260.671 242.34C259.052 241.805 249.549 234.266 248.831 230.852C248.113 227.438 253.857 195.656 253.857 195.656C253.857 195.656 246.501 195.339 242.735 193.185Z" fill="#F86D70"/>
<path opacity="0.1" d="M216.894 251.316C217.221 253.512 218.021 255.611 219.238 257.468L225.869 256.342C225.869 256.342 245.783 251.851 249.894 251.485C252.384 251.156 254.813 250.463 257.102 249.429C255.524 243.838 252.444 238.786 248.197 234.823L245.67 232.479C241.946 229.021 237.63 226.263 232.929 224.334C233.225 224.581 254.117 242.418 249.542 245.917C244.966 249.415 232.648 240.898 232.648 240.898L218.639 228.86L218.133 228.424L217.323 229.684C217.735 229.854 218.137 230.046 218.527 230.261C223.301 232.882 226.844 237.285 228.382 242.51C231.261 252.189 216.894 251.316 216.894 251.316Z" fill="black"/>
<path d="M212.586 296.17C212.586 296.17 225.862 303.526 229.086 299.401C229.79 298.493 231.275 298.099 233.127 297.993C232.824 297.064 232.676 296.444 232.676 296.444C232.676 296.444 222.786 292.798 213.579 293.671C212.973 295.191 212.586 296.17 212.586 296.17Z" fill="#444053"/>
<path d="M218.696 228.438L233.211 240.926C233.211 240.926 245.481 249.471 250.105 245.945C254.73 242.418 233.486 224.355 233.486 224.355C238.177 226.289 242.488 229.04 246.22 232.479L248.747 234.823C255.392 240.982 256.891 240.982 257.116 250.034C257.173 252.266 256.412 255.469 255.828 256.046C253.674 258.158 252.168 273.496 252.499 275.291C252.83 277.086 248.486 292.58 249.894 296.888C251.302 301.196 232.296 294.734 229.079 298.866C225.862 302.998 212.586 295.635 212.586 295.635C212.586 295.635 219.942 276.791 221.737 275.538C223.532 274.285 225.686 264.592 221.737 260.108C217.788 255.624 217.436 251.316 217.436 251.316C217.436 251.316 231.796 252.203 228.917 242.524C228.107 239.718 226.702 237.12 224.797 234.907C222.893 232.694 220.533 230.917 217.88 229.698L218.696 228.438Z" fill="#E8E8F0"/>
<path opacity="0.1" d="M238.068 260.199C238.068 260.199 232.5 270.695 225.299 273.419C225.066 273.503 224.841 273.581 224.595 273.651C217.077 275.939 238.631 263.451 238.068 260.199Z" fill="black"/>
<path d="M160.199 167.344C160.199 167.344 162.888 174.165 165.042 176.495C167.196 178.825 183.161 202.153 183.161 202.153L184.513 204.969L185.674 207.369L195.902 206.292L196.606 202.167L196.212 201.689C195.184 200.457 192.382 197.148 190.503 195.705C188.173 193.917 183.506 187.997 183.506 187.997C183.506 187.997 168.977 172.919 167.9 168.794C166.823 164.669 152.287 139.933 149.063 144.213C145.839 148.493 160.199 167.344 160.199 167.344Z" fill="#FBBEBE"/>
<g opacity="0.1">
<path opacity="0.1" d="M189.878 278.304C188.65 278.198 187.415 278.376 186.267 278.825C183.733 280.057 183.254 283.386 181.846 285.829C180.199 288.687 177.06 290.454 173.829 291.108C173.186 291.233 172.538 291.322 171.886 291.376C173.944 291.576 176.019 291.486 178.052 291.108C181.283 290.454 184.423 288.687 186.07 285.829C187.478 283.386 187.956 280.057 190.491 278.825C191.156 278.525 191.873 278.358 192.602 278.332L189.878 278.304Z" fill="black"/>
<path opacity="0.1" d="M214.882 224.306C214.882 218.71 218.521 213.888 221.52 209.165C224.519 204.441 227.039 198.479 224.667 193.411C222.639 189.081 210.419 183.274 203.366 184.422C210.271 185.316 218.782 189.863 220.443 193.411C222.815 198.479 220.295 204.441 217.297 209.165C214.298 213.888 210.644 218.71 210.659 224.306C210.659 231.528 210.173 236.977 208.188 243.953C207.618 245.959 213.115 248.993 212.27 250.893C209.413 257.229 210.75 264.535 210.292 271.462C210.283 272.815 209.952 274.147 209.328 275.348C207.92 277.664 205.034 278.262 202.225 278.389H204.682C207.962 278.389 211.855 278.135 213.552 275.326C214.176 274.126 214.506 272.794 214.516 271.441C214.974 264.514 213.636 257.2 216.494 250.872C217.353 248.972 211.841 245.945 212.411 243.931C214.396 237.005 214.896 231.528 214.882 224.306Z" fill="black"/>
</g>
<path opacity="0.1" d="M184.513 204.955L185.674 207.355L195.902 206.278L196.606 202.153L196.212 201.675C195.121 202.21 186.949 206.145 184.513 204.955Z" fill="black"/>
<path opacity="0.1" d="M222.278 231.936C222.278 231.936 219.765 227.994 218.329 229.064C216.893 230.134 216.337 225.833 215.514 226.551C214.69 227.269 212.29 229.269 211.29 226.474C210.509 224.25 202.005 210.178 198.556 204.519C197.669 203.054 197.113 202.153 197.113 202.153C197.113 202.153 187.427 206.996 185.097 205.384V208.791L187.068 208.974L197.627 228.684C197.627 228.684 200.949 233.971 200.724 235.815C200.499 237.659 204.983 245.733 205.701 246.268C206.419 246.803 214.148 255.778 214.148 255.778C214.148 255.778 218.097 275.157 214.683 280.543C211.269 285.928 205.356 289.87 205.356 289.87C205.356 289.87 203.575 295.072 203.836 295.614C204.096 296.156 201.766 298.486 202.843 299.204C203.92 299.922 205.356 304.941 205.356 304.941C205.356 304.941 210.382 296.867 213.099 295.614C215.816 294.361 219.294 277.846 219.294 277.846C219.294 277.846 220.286 268.118 220.364 261.839C220.441 255.56 220.124 231.936 222.278 231.936Z" fill="black"/>
<path d="M221.736 231.936C221.736 231.936 219.23 227.994 217.794 229.064C216.358 230.134 215.795 225.833 214.978 226.551C214.162 227.269 211.761 229.269 210.755 226.474C209.966 224.25 201.463 210.178 198.021 204.519L196.578 202.153C196.578 202.153 186.892 206.996 184.555 205.384V208.791L186.533 208.974L197.091 228.684C197.091 228.684 200.421 233.971 200.189 235.815C199.956 237.659 204.412 245.733 205.166 246.268C205.919 246.803 213.613 255.778 213.613 255.778C213.613 255.778 217.562 275.157 214.155 280.543C212.355 283.247 210.165 285.671 207.657 287.737C205.551 289.475 204.068 291.852 203.434 294.508C203.312 294.87 203.268 295.254 203.307 295.635C203.568 296.17 201.238 298.507 202.315 299.225C203.392 299.943 204.842 304.983 204.842 304.983C204.842 304.983 209.868 296.909 212.585 295.656C215.302 294.403 218.786 277.889 218.786 277.889C218.786 277.889 219.772 268.16 219.856 261.881C219.941 255.602 219.624 231.936 221.736 231.936Z" fill="#F86D70"/>
<path opacity="0.1" d="M197.156 313.578C197.156 313.578 204.695 314.986 207.715 317.161C210.735 319.336 196.234 313.754 196.234 313.754L197.156 313.578Z" fill="black"/>
<path opacity="0.1" d="M215.282 332.683C215.282 332.683 223.145 339.236 221.737 345.156C220.329 351.076 216.697 365.971 216.697 365.971L215.282 332.683Z" fill="black"/>
<path opacity="0.1" d="M146.515 320.082C146.515 320.082 135.435 321.293 136.153 322.729C136.871 324.165 146.515 321.405 146.515 321.405V320.082Z" fill="black"/>
<path opacity="0.1" d="M231.591 374.58C231.591 374.58 232.295 375.474 228.184 374.58C224.074 373.686 227.107 370.927 227.107 370.927L231.591 374.58Z" fill="black"/>
<path opacity="0.1" d="M230.183 386.962C230.183 386.962 224.552 387.856 221.532 386.962C218.512 386.068 230.183 386.962 230.183 386.962Z" fill="black"/>
<path opacity="0.1" d="M218.597 435.406C218.597 435.406 217.612 434.329 212.677 436.3C207.743 438.271 205.772 438.363 204.336 437.708C202.9 437.054 218.597 435.406 218.597 435.406Z" fill="black"/>
<path opacity="0.1" d="M224.073 318.555L217.076 328.29C217.076 328.29 220.842 319.765 224.073 318.555Z" fill="black"/>
<path opacity="0.1" d="M210.474 229.064C210.474 229.064 210.171 232.295 205.659 233.556C201.147 234.816 200.288 235.836 200.288 235.836" fill="black"/>
<path opacity="0.1" d="M198.746 205.645C198.746 205.645 192.791 209.869 186.576 208.975L198.746 205.645Z" fill="black"/>
<path opacity="0.1" d="M203.28 296.078C203.28 296.078 205.019 297.169 209.193 292.397L203.28 296.078Z" fill="black"/>
<path opacity="0.1" d="M246.634 245.473C246.803 244.6 246.198 243.791 245.627 243.108L244.459 241.7C244.23 241.412 243.973 241.148 243.692 240.912C242.988 240.37 242.087 240.208 241.354 239.722" fill="black"/>
<path opacity="0.1" d="M624.587 0.0774174C624.587 0.0774174 565.323 -3.49852 572.292 38.0331C572.292 38.0331 570.884 45.375 577.557 48.7046C577.557 48.7046 577.663 45.6285 583.639 46.6773C585.767 47.03 587.928 47.134 590.08 46.987C592.987 46.7863 595.749 45.6448 597.95 43.7349C597.95 43.7349 614.612 36.8505 621.088 9.62266C621.088 9.62266 625.882 3.68152 625.692 2.154L615.689 6.42683C615.689 6.42683 619.11 13.6421 616.393 19.6395C616.393 19.6395 616.069 6.68728 614.147 6.96885C613.76 7.03221 608.952 9.46779 608.952 9.46779C608.952 9.46779 614.83 22.0329 610.395 31.1698C610.395 31.1698 612.078 15.6835 607.115 10.3759L600.076 14.4868C600.076 14.4868 606.946 27.4672 602.286 38.0613C602.286 38.0613 603.483 21.8147 598.591 15.4864L592.213 20.4631C592.213 20.4631 598.668 33.2605 594.733 42.0455C594.733 42.0455 594.219 23.131 590.833 21.702C590.833 21.702 585.251 26.6295 584.399 28.6427C584.399 28.6427 588.82 37.9346 586.075 42.8339C586.075 42.8339 584.392 30.2336 583.013 30.1632C583.013 30.1632 577.452 38.5118 576.874 44.2417C576.874 44.2417 577.114 35.7313 581.668 29.3748C581.668 29.3748 576.29 30.297 573.151 33.7814C573.151 33.7814 574.017 27.8825 583.041 27.3686C583.041 27.3686 587.637 21.0333 588.862 20.6461C588.862 20.6461 579.894 19.9 574.453 22.3074C574.453 22.3074 579.24 16.7393 590.51 19.2735L596.81 14.1278C596.81 14.1278 584.998 12.5158 579.986 14.2967C579.986 14.2967 585.751 9.36924 598.506 12.9593L605.362 8.86242C605.362 8.86242 595.289 6.69432 589.292 7.45456C589.292 7.45456 595.627 4.04053 607.376 7.74318L612.303 5.53988C612.303 5.53988 604.926 4.0898 602.765 3.8575C600.604 3.62521 600.491 3.03391 600.491 3.03391C605.165 2.25456 609.963 2.78825 614.351 4.57551C614.351 4.57551 624.77 0.732069 624.587 0.0774174Z" fill="#6C63FF"/>
<path opacity="0.1" d="M551.49 10.6433C551.49 10.6433 524.741 9.02431 527.873 27.791C527.873 27.791 527.247 31.1135 530.246 32.6199C530.246 32.6199 530.295 31.2121 532.998 31.6978C533.958 31.8593 534.934 31.9066 535.905 31.8385C537.219 31.7493 538.467 31.2326 539.46 30.3673C539.46 30.3673 546.992 27.263 549.92 14.9584C549.92 14.9584 552.081 12.2694 551.997 11.5796L547.478 13.5083C547.478 13.5083 549.026 16.7745 547.808 19.4846C547.808 19.4846 547.661 13.628 546.795 13.7688C546.619 13.7688 544.444 14.895 544.444 14.895C544.444 14.895 547.105 20.5757 545.098 24.7078C545.098 24.7078 545.859 17.7108 543.613 15.3104L540.431 17.1687C540.431 17.1687 543.543 23.0324 541.431 27.8191C541.431 27.8191 541.973 20.4772 539.763 17.6192L536.884 19.8929C536.884 19.8929 539.798 25.6792 538.024 29.6423C538.024 29.6423 537.792 21.0966 536.257 20.4561C536.257 20.4561 533.737 22.6805 533.35 23.5956C533.35 23.5956 535.349 27.8191 534.11 30.0013C534.11 30.0013 533.35 24.3065 532.702 24.2854C532.702 24.2854 530.196 28.0585 529.929 30.6208C530.054 28.2295 530.802 25.9123 532.097 23.8983C530.647 24.173 529.308 24.8654 528.246 25.8904C528.246 25.8904 528.641 23.2295 532.716 22.9902C532.716 22.9902 534.828 20.1323 535.349 19.9563C535.349 19.9563 531.294 19.6184 528.838 20.7095C528.838 20.7095 530.999 18.1894 536.095 19.3016L538.911 16.9787C538.911 16.9787 533.575 16.2747 531.308 17.0561C531.308 17.0561 533.913 14.8317 539.678 16.4507L542.775 14.5994C542.775 14.5994 538.228 13.6139 535.511 13.9729C535.511 13.9729 538.376 12.4243 543.683 14.0996L545.901 13.1071C545.901 13.1071 542.564 12.4454 541.586 12.3468C540.607 12.2483 540.558 11.9738 540.558 11.9738C542.671 11.6222 544.84 11.866 546.823 12.6777C546.823 12.6777 551.574 10.939 551.49 10.6433Z" fill="#6C63FF"/>
<path d="M644.93 458.087C660.563 458.087 673.235 455.944 673.235 453.3C673.235 450.657 660.563 448.513 644.93 448.513C629.298 448.513 616.625 450.657 616.625 453.3C616.625 455.944 629.298 458.087 644.93 458.087Z" fill="#6C63FF"/>
<path d="M656.637 445.472C657.929 444.419 658.87 442.998 659.333 441.396C659.685 439.784 658.995 437.877 657.446 437.25C655.714 436.589 653.863 437.792 652.462 439.003C651.062 440.214 649.45 441.601 647.619 441.34C648.563 440.483 649.268 439.397 649.668 438.187C650.067 436.977 650.147 435.685 649.9 434.435C649.82 433.917 649.601 433.43 649.267 433.027C648.302 431.999 646.563 432.435 645.409 433.245C641.749 435.821 640.728 440.798 640.707 445.268C640.341 443.656 640.65 441.974 640.643 440.341C640.636 438.707 640.179 436.821 638.778 435.955C637.914 435.49 636.943 435.262 635.962 435.293C634.322 435.23 632.485 435.399 631.366 436.603C629.958 438.095 630.331 440.601 631.542 442.234C632.752 443.867 634.604 444.916 636.307 446.049C637.67 446.862 638.832 447.971 639.707 449.295C639.813 449.479 639.898 449.675 639.961 449.879H650.28C652.588 448.703 654.726 447.221 656.637 445.472Z" fill="#6C63FF"/>
</g>
<defs>
<linearGradient id="paint0_linear_117:453" x1="569.132" y1="355.433" x2="569.132" y2="72.2438" gradientUnits="userSpaceOnUse">
<stop stop-color="#808080" stop-opacity="0.25"/>
<stop offset="0.54" stop-color="#808080" stop-opacity="0.12"/>
<stop offset="1" stop-color="#808080" stop-opacity="0.1"/>
</linearGradient>
<linearGradient id="paint1_linear_117:453" x1="28052.4" y1="176393" x2="62820.4" y2="176393" gradientUnits="userSpaceOnUse">
<stop stop-color="#808080" stop-opacity="0.25"/>
<stop offset="0.54" stop-color="#808080" stop-opacity="0.12"/>
<stop offset="1" stop-color="#808080" stop-opacity="0.1"/>
</linearGradient>
<clipPath id="clip0_117:453">
<rect width="805.291" height="459.326" fill="white"/>
</clipPath>
</defs>
</svg>
