<svg width="400" height="750" viewBox="0 0 400 750" fill="none" xmlns="http://www.w3.org/2000/svg">
<g opacity="0.1">
<path d="M-155.969 31.5261L-232.218 180.442C-237.141 190.058 -233.899 202.079 -224.925 207.484L-105.533 279.41C-96.4362 284.89 -84.8705 281.52 -79.6971 271.88L66.2391 0.009617H-106C-126.849 0.009617 -146.025 12.1038 -155.969 31.5261Z" fill="#A0A0B2"/>
<path d="M66.2395 0L-79.692 271.874C-84.8748 281.512 -96.4326 284.891 -105.526 279.414L-136.689 260.648C-129.092 261.944 -121.187 258.243 -117.164 250.736L17.452 0H66.2395Z" fill="#A0A0B2"/>
<path d="M225.913 144.19L173.322 33.2207C163.674 12.8611 144.014 0.0100412 122.519 0.0100412H-29.5363L87.2109 209.941C86.8281 210.123 86.4437 210.305 86.0609 210.487C78.7171 213.991 79.0171 225.157 86.5359 228.217L187.347 269.249C192.019 271.15 197.26 268.678 199.053 263.728L237.916 156.468C240.789 148.534 233.244 140.878 225.913 144.19Z" fill="#A0A0B2"/>
<path d="M237.918 156.46L199.044 263.718C197.258 268.683 192.01 271.157 187.342 269.246L156.839 256.825L193.202 156.46C195.269 150.768 191.967 145.225 187.23 143.771C182.719 142.385 178.867 139.253 176.76 134.805L128.606 33.2173C118.964 12.8643 99.3111 0 77.8064 0H122.522C144.011 0 163.664 12.8643 173.322 33.2173L225.91 144.195C233.25 140.885 240.783 148.527 237.918 156.46Z" fill="#A0A0B2"/>
<path d="M124.323 572.033C122.907 565.873 115.407 563.233 110.829 568.083L32.0366 651.594C28.8928 654.926 28.8928 660.326 32.0366 663.656L111.134 747.488C115.679 752.305 123.102 749.734 124.596 743.677H240.913C262.328 743.677 281.926 730.924 291.615 710.684L357.985 572.031L124.323 572.033Z" fill="#A0A0B2"/>
<path d="M222.514 572.035L260.23 632.521C268.756 646.195 269.7 663.67 262.702 678.286L247.189 710.685C237.516 730.919 217.909 743.681 196.502 743.681H240.913C262.32 743.681 281.927 730.919 291.617 710.685L357.983 572.036L222.514 572.035Z" fill="#A0A0B2"/>
<path d="M-34.415 727.736V580.151C-34.415 569.058 -42.8994 560.064 -53.3666 560.064H-365.541L-285.203 716.387C-275.245 735.763 -256.094 747.82 -235.276 747.82H-53.3666C-42.901 747.822 -34.415 738.83 -34.415 727.736Z" fill="#A0A0B2"/>
<path d="M-233.147 560.077L-302.475 682.793L-365.541 560.077H-233.147Z" fill="#A0A0B2"/>
<path d="M-34.4224 580.153V727.742C-34.4224 738.831 -42.9041 747.82 -53.3666 747.82L-103.09 747.822C-92.6271 747.822 -84.1443 738.831 -84.1443 727.742V580.153C-84.1443 569.064 -92.6271 560.073 -103.09 560.073H-53.3677C-42.9052 560.071 -34.4224 569.064 -34.4224 580.153Z" fill="#A0A0B2"/>
<path d="M-186.922 429.656L-200.94 317.84C-201.633 312.316 -206.42 308.434 -211.631 309.168L-317.536 324.082C-325.511 325.205 -328.483 335.487 -323.02 341.207L-389.858 443.312C-402.113 462.032 -403.356 486.475 -393.074 506.484L-320.341 648.009L-202.243 438.93C-202.201 438.963 -202.161 438.998 -202.118 439.031C-195.378 444.453 -185.808 438.547 -186.922 429.656Z" fill="#A0A0B2"/>
<path d="M-202.123 439.032C-202.156 438.997 -202.202 438.964 -202.235 438.929L-320.337 648.004L-344.626 600.747L-245.835 425.822C-244.378 423.242 -241.529 422.127 -238.743 422.7C-238.729 422.703 -238.715 422.705 -238.701 422.708C-232.774 423.828 -226.695 418.595 -227.606 411.412L-239.92 313.145L-211.638 309.17C-206.423 308.437 -201.626 312.327 -200.934 317.836L-186.913 429.667C-185.801 438.553 -195.379 444.456 -202.123 439.032Z" fill="#A0A0B2"/>
<path d="M389.938 435.629L298.511 295.221C292.904 286.608 281.994 284.003 273.443 289.233L154.295 362.105C144.839 367.888 141.938 380.922 147.958 390.577L315.921 659.916L393.849 497.118C403.28 477.413 401.78 453.816 389.938 435.629Z" fill="#A0A0B2"/>
<path d="M393.846 497.122L315.907 659.912L289.766 617.977L347.618 497.121C357.051 477.415 355.554 453.821 343.707 435.634L255.515 300.21L273.446 289.24C281.993 284.002 292.907 286.612 298.509 295.228L389.937 435.636C401.782 453.823 403.279 477.419 393.846 497.122Z" fill="#A0A0B2"/>
</g>
</svg>
